<svg width="153" height="35" viewBox="0 0 153 35" fill="none" xmlns="http://www.w3.org/2000/svg">
<path d="M42.04 30.4897V4.72974H53.2C55.8133 4.72974 58.0133 5.16974 59.8 6.04975C61.5867 6.90308 62.9467 8.28974 63.88 10.2097C64.8133 12.1031 65.28 14.6231 65.28 17.7697C65.28 22.1964 64.2533 25.4231 62.2 27.4497C60.1733 29.4764 57.1733 30.4897 53.2 30.4897H42.04ZM48.48 25.5297H52.32C53.7067 25.5297 54.8667 25.3297 55.8 24.9297C56.76 24.5031 57.48 23.7297 57.96 22.6097C58.4667 21.4897 58.72 19.8764 58.72 17.7697C58.72 15.6364 58.4933 13.9964 58.04 12.8497C57.6133 11.6764 56.92 10.8631 55.96 10.4097C55.0267 9.92974 53.8133 9.68974 52.32 9.68974H48.48V25.5297Z" fill="#F86E2D"/>
<path d="M68.5634 30.4897V4.72974H75.0034V30.4897H68.5634ZM79.0713 30.4897V4.72974H91.9513C94.9913 4.72974 97.2313 5.52974 98.6713 7.12974C100.111 8.72974 100.831 10.8764 100.831 13.5697C100.831 15.3031 100.391 16.8231 99.5113 18.1297C98.6313 19.4364 97.4313 20.4097 95.9113 21.0497C96.2846 21.3431 96.5779 21.6764 96.7913 22.0497C97.0313 22.3964 97.2846 22.8897 97.5513 23.5297L100.591 30.4897H93.8713L90.9913 23.9297C90.7513 23.3697 90.4446 22.9697 90.0713 22.7297C89.6979 22.4631 89.1646 22.3297 88.4713 22.3297H85.5113V30.4897H79.0713ZM85.5113 17.3697H90.2713C91.5246 17.3697 92.4979 17.0631 93.1913 16.4497C93.9113 15.8097 94.2713 14.8497 94.2713 13.5697C94.2713 10.9831 93.0313 9.68974 90.5513 9.68974H85.5113V17.3697ZM104.11 30.4897V4.72974H123.11V9.68974H110.55V15.0897H121.63V20.1297H110.55V25.5297H123.11V30.4897H104.11ZM124.365 30.4897L133.765 17.5297L124.645 4.72974H132.325L137.645 12.4097L143.005 4.72974H150.685L141.565 17.5297L150.965 30.4897H143.205L137.645 22.6897L132.125 30.4897H124.365Z" fill="#13171D"/>
<g clip-path="url(#clip0_1_1364)">
<path d="M10.1558 15.0269C10.1558 10.9798 13.4443 7.69885 17.5007 7.69885V3.7124C11.2376 3.7124 6.16016 8.77813 6.16016 15.0269C6.16016 18.2201 7.48606 21.1042 9.61844 23.1613L17.2657 31.2072L17.5007 30.9727V22.3549C13.4443 22.3549 10.1558 19.074 10.1558 15.0269Z" fill="#F86E2D"/>
<path d="M17.5 3.7124V7.69885C21.5565 7.69885 24.8449 10.9798 24.8449 15.0269C24.8449 19.074 21.5565 22.3549 17.5 22.3549V30.9727L24.8235 23.666C27.2805 21.5907 28.8406 18.4904 28.8406 15.0269C28.8406 8.77813 23.7632 3.7124 17.5 3.7124Z" fill="#F86E2D"/>
<path d="M17.5 12.7168V19.0814H19.6762V15.8445H21.3038L17.5056 12.7122L17.5 12.7168ZM17.5946 16.1827H18.0191V16.6063H17.5946V16.1827ZM17.5946 16.7851H18.0191V17.2086H17.5946V16.7851Z" fill="#F86E2D"/>
<path d="M13.707 15.8444H15.3347V19.0813H17.4991V12.7168L13.707 15.8444ZM17.3771 17.2089H16.9526V16.7853H17.3771V17.2089ZM16.9523 16.6062V16.1827H17.3768V16.6062H16.9523Z" fill="#F86E2D"/>
<path d="M15.3952 20.6574C13.459 19.7824 12.2327 17.985 12.0018 16.0216L11.9833 16.0621L11.2227 15.7183C11.4242 17.8405 12.7287 19.7985 14.8143 20.7409C15.6869 21.1351 16.603 21.3093 17.5005 21.2873V21.1697C16.7927 21.1334 16.0797 20.9669 15.3952 20.6574Z" fill="#F86E2D"/>
<path d="M17.5 21.1704V21.2882C18.0685 21.2744 18.6296 21.1818 19.1673 21.0161C18.6261 21.1463 18.0647 21.1997 17.5 21.1704Z" fill="#F86E2D"/>
<path d="M15.5859 20.4695C16.1947 20.7016 16.841 20.8379 17.5012 20.8679V20.7295C16.846 20.7504 16.1991 20.6602 15.5859 20.4695Z" fill="#F86E2D"/>
<path d="M23.1053 15.6814C22.8257 17.7355 21.4539 19.5752 19.3727 20.3569C18.7557 20.5888 18.124 20.7093 17.5 20.7289V20.867C18.3097 20.9039 19.14 20.7811 19.9467 20.4783C22.1969 19.6332 23.6603 17.6145 23.9018 15.3821L23.1053 15.6814Z" fill="#F86E2D"/>
<path d="M16.2718 9.99635L10.2969 14.2575H12.803L17.4993 10.9083V9.12109L16.2718 9.99635Z" fill="#F86E2D"/>
<path d="M18.7589 10.0105L17.5209 9.1062L17.5 9.12115V10.9083L17.5106 10.9007L22.1067 14.2575H24.574L18.7589 10.0105Z" fill="#F86E2D"/>
<path d="M17.5 0C7.83497 0 0 7.81696 0 17.4598C0 27.1026 7.83497 34.9195 17.5 34.9195C27.165 34.9195 35 27.1026 35 17.4598C35 7.81696 27.165 0 17.5 0ZM17.5 33.6172C8.55595 33.6172 1.30534 26.3833 1.30534 17.4598C1.30534 8.53628 8.55595 1.30234 17.5 1.30234C26.4441 1.30234 33.6947 8.53628 33.6947 17.4598C33.6947 26.3833 26.4441 33.6172 17.5 33.6172Z" fill="#F86E2D"/>
<path d="M17.5006 2.13525C9.01765 2.13525 2.14062 8.99647 2.14062 17.4599C2.14062 25.9234 9.01765 32.7846 17.5006 32.7846C25.9836 32.7846 32.8606 25.9234 32.8606 17.4599C32.8606 8.99647 25.9836 2.13525 17.5006 2.13525ZM17.5006 32.461C9.19663 32.461 2.465 25.7448 2.465 17.4599C2.465 9.17504 9.19663 2.45888 17.5006 2.45888C25.8046 2.45888 32.5362 9.17504 32.5362 17.4599C32.5362 25.7448 25.8046 32.461 17.5006 32.461Z" fill="#F86E2D"/>
</g>
<defs>
<clipPath id="clip0_1_1364">
<rect width="35" height="34.9195" fill="white"/>
</clipPath>
</defs>
</svg>
