<svg width="153" height="36" viewBox="0 0 153 36" fill="none" xmlns="http://www.w3.org/2000/svg">
<path d="M42.04 31V5.24H53.2C55.8133 5.24 58.0133 5.68 59.8 6.56C61.5867 7.41333 62.9467 8.8 63.88 10.72C64.8133 12.6133 65.28 15.1333 65.28 18.28C65.28 22.7067 64.2533 25.9333 62.2 27.96C60.1733 29.9867 57.1733 31 53.2 31H42.04ZM48.48 26.04H52.32C53.7067 26.04 54.8667 25.84 55.8 25.44C56.76 25.0133 57.48 24.24 57.96 23.12C58.4667 22 58.72 20.3867 58.72 18.28C58.72 16.1467 58.4933 14.5067 58.04 13.36C57.6133 12.1867 56.92 11.3733 55.96 10.92C55.0267 10.44 53.8133 10.2 52.32 10.2H48.48V26.04Z" fill="#F86E2D"/>
<path d="M68.5634 31V5.24H75.0034V31H68.5634ZM79.0713 31V5.24H91.9513C94.9913 5.24 97.2313 6.04 98.6713 7.64C100.111 9.24 100.831 11.3867 100.831 14.08C100.831 15.8133 100.391 17.3333 99.5113 18.64C98.6313 19.9467 97.4313 20.92 95.9113 21.56C96.2846 21.8533 96.5779 22.1867 96.7913 22.56C97.0313 22.9067 97.2846 23.4 97.5513 24.04L100.591 31H93.8713L90.9913 24.44C90.7513 23.88 90.4446 23.48 90.0713 23.24C89.6979 22.9733 89.1646 22.84 88.4713 22.84H85.5113V31H79.0713ZM85.5113 17.88H90.2713C91.5246 17.88 92.4979 17.5733 93.1913 16.96C93.9113 16.32 94.2713 15.36 94.2713 14.08C94.2713 11.4933 93.0313 10.2 90.5513 10.2H85.5113V17.88ZM104.11 31V5.24H123.11V10.2H110.55V15.6H121.63V20.64H110.55V26.04H123.11V31H104.11ZM124.365 31L133.765 18.04L124.645 5.24H132.325L137.645 12.92L143.005 5.24H150.685L141.565 18.04L150.965 31H143.205L137.645 23.2L132.125 31H124.365Z" fill="white"/>
<g clip-path="url(#clip0_1_7189)">
<path d="M10.1558 15.5615C10.1558 11.505 13.4443 8.21658 17.5007 8.21658V4.22095C11.2376 4.22095 6.16016 9.29834 6.16016 15.5615C6.16016 18.7621 7.48606 21.6528 9.61844 23.7146L17.2657 31.7791L17.5007 31.544V22.9064C13.4443 22.9064 10.1558 19.618 10.1558 15.5615Z" fill="#F86E2D"/>
<path d="M17.5 4.22095V8.21658C21.5565 8.21658 24.8449 11.505 24.8449 15.5615C24.8449 19.6179 21.5565 22.9064 17.5 22.9064V31.544L24.8235 24.2206C27.2805 22.1405 28.8406 19.033 28.8406 15.5615C28.8406 9.29834 23.7632 4.22095 17.5 4.22095Z" fill="#F86E2D"/>
<path d="M17.5 13.2462V19.6254H19.6762V16.381H21.3038L17.5056 13.2415L17.5 13.2462ZM17.5946 16.72H18.0191V17.1445H17.5946V16.72ZM17.5946 17.3238H18.0191V17.7483H17.5946V17.3238Z" fill="#F86E2D"/>
<path d="M13.707 16.3809H15.3347V19.6253H17.4991V13.2461L13.707 16.3809ZM17.3771 17.7485H16.9526V17.324H17.3771V17.7485ZM16.9523 17.1445V16.7199H17.3768V17.1445H16.9523Z" fill="#F86E2D"/>
<path d="M15.3952 21.205C13.459 20.3281 12.2327 18.5265 12.0018 16.5586L11.9833 16.5992L11.2227 16.2546C11.4242 18.3817 12.7287 20.3442 14.8143 21.2888C15.6869 21.6839 16.603 21.8584 17.5005 21.8364V21.7186C16.7927 21.6822 16.0797 21.5153 15.3952 21.205Z" fill="#F86E2D"/>
<path d="M17.5 21.7189V21.8368C18.0685 21.8229 18.6296 21.7304 19.1673 21.5647C18.6261 21.6948 18.0647 21.7483 17.5 21.7189Z" fill="#F86E2D"/>
<path d="M15.5859 21.0166C16.1947 21.2487 16.841 21.385 17.5012 21.415V21.2766C16.846 21.2975 16.1991 21.2073 15.5859 21.0166Z" fill="#F86E2D"/>
<path d="M23.1053 16.2174C22.8257 18.2764 21.4539 20.1202 19.3727 20.9038C18.7557 21.1362 18.124 21.2569 17.5 21.2766V21.415C18.3097 21.452 19.14 21.3289 19.9467 21.0254C22.1969 20.1784 23.6603 18.155 23.9018 15.9175L23.1053 16.2174Z" fill="#F86E2D"/>
<path d="M16.2718 10.5194L10.2969 14.7903H12.803L17.4993 11.4334V9.64209L16.2718 10.5194Z" fill="#F86E2D"/>
<path d="M18.7589 10.5336L17.5209 9.6272L17.5 9.64218V11.4335L17.5106 11.4258L22.1067 14.7904H24.574L18.7589 10.5336Z" fill="#F86E2D"/>
<path d="M17.5 0.5C7.83497 0.5 0 8.33497 0 18C0 27.665 7.83497 35.5 17.5 35.5C27.165 35.5 35 27.665 35 18C35 8.33497 27.165 0.5 17.5 0.5ZM17.5 34.1947C8.55595 34.1947 1.30534 26.9441 1.30534 18C1.30534 9.05595 8.55595 1.80534 17.5 1.80534C26.4441 1.80534 33.6947 9.05595 33.6947 18C33.6947 26.9441 26.4441 34.1947 17.5 34.1947Z" fill="#F86E2D"/>
<path d="M17.5006 2.64014C9.01765 2.64014 2.14062 9.51717 2.14062 18.0001C2.14062 26.4831 9.01765 33.3601 17.5006 33.3601C25.9836 33.3601 32.8606 26.4831 32.8606 18.0001C32.8606 9.51717 25.9836 2.64014 17.5006 2.64014ZM17.5006 33.0358C9.19663 33.0358 2.465 26.3041 2.465 18.0001C2.465 9.69614 9.19663 2.96451 17.5006 2.96451C25.8046 2.96451 32.5362 9.69614 32.5362 18.0001C32.5362 26.3041 25.8046 33.0358 17.5006 33.0358Z" fill="#F86E2D"/>
</g>
<defs>
<clipPath id="clip0_1_7189">
<rect width="35" height="35" fill="white" transform="translate(0 0.5)"/>
</clipPath>
</defs>
</svg>
