<svg width="35" height="35" viewBox="0 0 35 35" fill="none" xmlns="http://www.w3.org/2000/svg">
<g clip-path="url(#clip0_1_20624)">
<path d="M10.1473 15.0615C10.1473 11.005 13.4357 7.71657 17.4922 7.71657V3.72093C11.229 3.72093 6.15164 8.79833 6.15164 15.0615C6.15164 18.2621 7.47755 21.1528 9.60992 23.2146L17.2572 31.2791L17.4922 31.044V22.4064C13.4357 22.4064 10.1473 19.1179 10.1473 15.0615Z" fill="#F86E2D"/>
<path d="M17.4922 3.72093V7.71657C21.5486 7.71657 24.8371 11.005 24.8371 15.0615C24.8371 19.1179 21.5486 22.4064 17.4922 22.4064V31.044L24.8157 23.7206C27.2727 21.6405 28.8327 18.533 28.8327 15.0615C28.8327 8.79833 23.7553 3.72093 17.4922 3.72093Z" fill="#F86E2D"/>
<path d="M17.4922 12.7461V19.1253H19.6683V15.8809H21.296L17.4978 12.7414L17.4922 12.7461ZM17.5868 16.2199H18.0113V16.6445H17.5868V16.2199ZM17.5868 16.8237H18.0113V17.2482H17.5868V16.8237Z" fill="#F86E2D"/>
<path d="M13.6999 15.8809H15.3275V19.1253H17.4919V12.7461L13.6999 15.8809ZM17.37 17.2485H16.9454V16.824H17.37V17.2485ZM16.9451 16.6445V16.2199H17.3697V16.6445H16.9451Z" fill="#F86E2D"/>
<path d="M15.3869 20.705C13.4507 19.828 12.2244 18.0265 11.9935 16.0586L11.975 16.0992L11.2144 15.7545C11.4159 17.8816 12.7204 19.8442 14.806 20.7888C15.6786 21.1839 16.5947 21.3584 17.4922 21.3364V21.2186C16.7844 21.1821 16.0714 21.0153 15.3869 20.705Z" fill="#F86E2D"/>
<path d="M17.4922 21.2189V21.3367C18.0607 21.3229 18.6218 21.2303 19.1595 21.0646C18.6183 21.1948 18.0569 21.2483 17.4922 21.2189Z" fill="#F86E2D"/>
<path d="M15.5769 20.5167C16.1857 20.7488 16.832 20.8851 17.4922 20.9151V20.7767C16.837 20.7976 16.1901 20.7074 15.5769 20.5167Z" fill="#F86E2D"/>
<path d="M23.0975 15.7175C22.8178 17.7765 21.4461 19.6203 19.3648 20.4039C18.7479 20.6363 18.1162 20.757 17.4922 20.7767V20.9151C18.3019 20.9521 19.1322 20.829 19.9389 20.5255C22.1891 19.6785 23.6525 17.6551 23.894 15.4176L23.0975 15.7175Z" fill="#F86E2D"/>
<path d="M16.2647 10.0193L10.2898 14.2903H12.7958L17.4922 10.9333V9.14207L16.2647 10.0193Z" fill="#F86E2D"/>
<path d="M18.7511 10.0334L17.513 9.12708L17.4922 9.14207V10.9333L17.5028 10.9257L22.0989 14.2903H24.5662L18.7511 10.0334Z" fill="#F86E2D"/>
<path d="M17.4922 0C7.82716 0 -0.0078125 7.83497 -0.0078125 17.5C-0.0078125 27.165 7.82716 35 17.4922 35C27.1572 35 34.9922 27.165 34.9922 17.5C34.9922 7.83497 27.1572 0 17.4922 0ZM17.4922 33.6947C8.54813 33.6947 1.29753 26.4441 1.29753 17.5C1.29753 8.55595 8.54813 1.30534 17.4922 1.30534C26.4362 1.30534 33.6868 8.55595 33.6868 17.5C33.6868 26.4441 26.4362 33.6947 17.4922 33.6947Z" fill="#F86E2D"/>
<path d="M17.4923 2.14013C9.00935 2.14013 2.13232 9.01716 2.13232 17.5001C2.13232 25.9831 9.00935 32.8601 17.4923 32.8601C25.9753 32.8601 32.8523 25.9831 32.8523 17.5001C32.8523 9.01716 25.9753 2.14013 17.4923 2.14013ZM17.4923 32.5358C9.18833 32.5358 2.4567 25.8041 2.4567 17.5001C2.4567 9.19613 9.18833 2.4645 17.4923 2.4645C25.7963 2.4645 32.5279 9.19613 32.5279 17.5001C32.5279 25.8041 25.7963 32.5358 17.4923 32.5358Z" fill="#F86E2D"/>
</g>
<defs>
<clipPath id="clip0_1_20624">
<rect width="35" height="35" fill="white" transform="translate(-0.0078125)"/>
</clipPath>
</defs>
</svg>
