<svg width="18" height="19" viewBox="0 0 18 19" fill="none" xmlns="http://www.w3.org/2000/svg">
<g clip-path="url(#clip0_1_20370)">
<path d="M14.6796 0.190918H9.75108H4.54825C3.29656 0.19322 2.2808 1.20366 2.27255 2.45465V15.9171C2.2808 17.1681 3.29656 18.1786 4.54825 18.1809H14.686C14.9644 18.185 15.2329 18.0778 15.4318 17.8832C15.6216 17.6883 15.7277 17.427 15.7275 17.155V1.23819C15.7263 0.660263 15.2579 0.192096 14.6796 0.190918ZM10.1839 1.04758H12.7018V5.06533L11.8082 3.64113C11.772 3.58084 11.7215 3.53035 11.6612 3.49421C11.4582 3.37251 11.195 3.43826 11.0732 3.64113L10.1839 5.05891V1.04758ZM3.1404 2.45465C3.14394 1.679 3.77217 1.05112 4.54825 1.04758H9.3268V5.41657C9.31067 5.76432 9.52913 6.07995 9.86036 6.18756C10.2375 6.30107 10.5761 6.05692 10.7775 5.73567L11.4439 4.66484L12.1104 5.73567C12.3096 6.05264 12.6482 6.29679 13.0361 6.18756C13.3657 6.08037 13.5838 5.76705 13.5696 5.42085V1.05829H14.686C14.785 1.05947 14.8649 1.1393 14.866 1.23819V13.6595C14.8066 13.6495 14.7464 13.6445 14.686 13.6448H4.54825C4.03702 13.6447 3.54079 13.8175 3.1404 14.1353V2.45465ZM14.866 15.4931L4.98539 15.5038C4.74872 15.5038 4.55682 15.6956 4.55682 15.9321C4.55682 16.1687 4.74872 16.3604 4.98539 16.3604L14.866 16.3497V17.1464C14.8665 17.1944 14.848 17.2406 14.8146 17.2749C14.7802 17.3083 14.734 17.3268 14.686 17.3263H4.54825C3.77013 17.3263 3.13933 16.6959 3.13933 15.9182C3.13933 15.1405 3.77013 14.5101 4.54825 14.5101H14.686C14.785 14.5112 14.8649 14.5911 14.866 14.6899V15.4931Z" fill="#F86E2D"/>
</g>
<defs>
<clipPath id="clip0_1_20370">
<rect width="18" height="17.99" fill="white" transform="translate(0 0.190918)"/>
</clipPath>
</defs>
</svg>
