<svg width="18" height="19" viewBox="0 0 18 19" fill="none" xmlns="http://www.w3.org/2000/svg">
<path d="M14.625 2.42125H13.5C13.5 1.80135 12.9953 1.29688 12.375 1.29688C11.7548 1.29688 11.25 1.80135 11.25 2.42125H6.75C6.75 1.80135 6.24525 1.29688 5.625 1.29688C5.00475 1.29688 4.5 1.80135 4.5 2.42125H3.375C2.34113 2.42125 1.5 3.26191 1.5 4.29522V15.1642C1.5 16.1975 2.34113 17.0382 3.375 17.0382H14.625C15.6589 17.0382 16.5 16.1975 16.5 15.1642V4.29522C16.5 3.26191 15.6589 2.42125 14.625 2.42125ZM12 2.42125C12 2.21474 12.168 2.04646 12.375 2.04646C12.582 2.04646 12.75 2.21474 12.75 2.42125V3.17084C12.75 3.37735 12.582 3.54563 12.375 3.54563C12.168 3.54563 12 3.37735 12 3.17084V2.42125ZM5.25 2.42125C5.25 2.21474 5.418 2.04646 5.625 2.04646C5.832 2.04646 6 2.21474 6 2.42125V3.17084C6 3.37735 5.832 3.54563 5.625 3.54563C5.418 3.54563 5.25 3.37735 5.25 3.17084V2.42125ZM2.25 4.29522C2.25 3.67531 2.75475 3.17084 3.375 3.17084H4.5C4.5 3.79075 5.00475 4.29522 5.625 4.29522C6.24525 4.29522 6.75 3.79075 6.75 3.17084H11.25C11.25 3.79075 11.7548 4.29522 12.375 4.29522C12.9953 4.29522 13.5 3.79075 13.5 3.17084H14.625C15.2453 3.17084 15.75 3.67531 15.75 4.29522V5.79439H2.25V4.29522ZM15.75 15.1642C15.75 15.7841 15.2453 16.2886 14.625 16.2886H3.375C2.75475 16.2886 2.25 15.7841 2.25 15.1642V6.54397H15.75V15.1642Z" fill="#F86E2D"/>
<path d="M4.5 10.6668H5.625C6.03863 10.6668 6.375 10.3306 6.375 9.91718V8.7928C6.375 8.3794 6.03863 8.04321 5.625 8.04321H4.5C4.08637 8.04321 3.75 8.3794 3.75 8.7928V9.91718C3.75 10.3306 4.08637 10.6668 4.5 10.6668ZM4.5 8.7928H5.625L5.62575 9.91718H4.5V8.7928Z" fill="#F86E2D"/>
<path d="M8.4375 10.6668H9.5625C9.97613 10.6668 10.3125 10.3306 10.3125 9.91718V8.7928C10.3125 8.3794 9.97613 8.04321 9.5625 8.04321H8.4375C8.02387 8.04321 7.6875 8.3794 7.6875 8.7928V9.91718C7.6875 10.3306 8.02387 10.6668 8.4375 10.6668ZM8.4375 8.7928H9.5625L9.56325 9.91718H8.4375V8.7928Z" fill="#F86E2D"/>
<path d="M12.375 10.6668H13.5C13.9136 10.6668 14.25 10.3306 14.25 9.91718V8.7928C14.25 8.3794 13.9136 8.04321 13.5 8.04321H12.375C11.9614 8.04321 11.625 8.3794 11.625 8.7928V9.91718C11.625 10.3306 11.9614 10.6668 12.375 10.6668ZM12.375 8.7928H13.5L13.5007 9.91718H12.375V8.7928Z" fill="#F86E2D"/>
<path d="M4.5 14.7896H5.625C6.03863 14.7896 6.375 14.4534 6.375 14.04V12.9156C6.375 12.5022 6.03863 12.166 5.625 12.166H4.5C4.08637 12.166 3.75 12.5022 3.75 12.9156V14.04C3.75 14.4534 4.08637 14.7896 4.5 14.7896ZM4.5 12.9156H5.625L5.62575 14.04H4.5V12.9156Z" fill="#F86E2D"/>
<path d="M8.4375 14.7896H9.5625C9.97613 14.7896 10.3125 14.4534 10.3125 14.04V12.9156C10.3125 12.5022 9.97613 12.166 9.5625 12.166H8.4375C8.02387 12.166 7.6875 12.5022 7.6875 12.9156V14.04C7.6875 14.4534 8.02387 14.7896 8.4375 14.7896ZM8.4375 12.9156H9.5625L9.56325 14.04H8.4375V12.9156Z" fill="#F86E2D"/>
<path d="M12.375 14.7896H13.5C13.9136 14.7896 14.25 14.4534 14.25 14.04V12.9156C14.25 12.5022 13.9136 12.166 13.5 12.166H12.375C11.9614 12.166 11.625 12.5022 11.625 12.9156V14.04C11.625 14.4534 11.9614 14.7896 12.375 14.7896ZM12.375 12.9156H13.5L13.5007 14.04H12.375V12.9156Z" fill="#F86E2D"/>
</svg>
