<svg width="31" height="31" viewBox="0 0 31 31" fill="none" xmlns="http://www.w3.org/2000/svg">
<path d="M24.4865 19.0839C23.8723 18.4444 23.1315 18.1025 22.3463 18.1025C21.5675 18.1025 20.8204 18.4381 20.1809 19.0776L18.1801 21.0721C18.0155 20.9834 17.8508 20.9011 17.6925 20.8188C17.4646 20.7048 17.2493 20.5972 17.0657 20.4832C15.1915 19.2928 13.4883 17.7416 11.8547 15.7344C11.0632 14.734 10.5314 13.8919 10.1452 13.0371C10.6644 12.5622 11.1456 12.0684 11.6141 11.5935C11.7914 11.4162 11.9687 11.2326 12.146 11.0553C13.4756 9.72564 13.4756 8.00341 12.146 6.67375L10.4174 4.9452C10.2211 4.74892 10.0185 4.5463 9.82857 4.34369C9.44866 3.95112 9.04977 3.54589 8.63821 3.16599C8.02403 2.55815 7.28955 2.23523 6.51709 2.23523C5.74462 2.23523 4.99748 2.55815 4.36431 3.16599C4.35797 3.17232 4.35797 3.17232 4.35164 3.17865L2.19886 5.35043C1.3884 6.16089 0.926189 7.14863 0.824882 8.29467C0.672921 10.1435 1.21745 11.8658 1.63534 12.9928C2.66108 15.7598 4.19335 18.3241 6.47909 21.0721C9.25238 24.3835 12.5892 26.9985 16.4009 28.8411C17.8572 29.5312 19.801 30.348 21.9728 30.4873C22.1057 30.4936 22.245 30.5 22.3717 30.5C23.8343 30.5 25.0627 29.9744 26.0251 28.9297C26.0314 28.917 26.0441 28.9107 26.0504 28.898C26.3796 28.4991 26.7595 28.1382 27.1584 27.752C27.4307 27.4924 27.7093 27.2201 27.9816 26.9352C28.6084 26.283 28.9377 25.5232 28.9377 24.7444C28.9377 23.9593 28.6021 23.2058 27.9626 22.5727L24.4865 19.0839ZM26.7532 25.7512C26.7469 25.7512 26.7469 25.7575 26.7532 25.7512C26.5063 26.0171 26.253 26.2577 25.9807 26.5237C25.5692 26.9162 25.1513 27.3278 24.7587 27.79C24.1192 28.4738 23.3658 28.7967 22.378 28.7967C22.283 28.7967 22.1817 28.7967 22.0867 28.7904C20.2062 28.6701 18.4587 27.9356 17.148 27.3088C13.5643 25.5739 10.4174 23.1109 7.80242 19.9893C5.64331 17.387 4.19968 14.981 3.24359 12.3976C2.65475 10.821 2.43947 9.59267 2.53444 8.43397C2.59776 7.69316 2.88269 7.07898 3.40822 6.55345L5.56733 4.39434C5.87758 4.10308 6.20683 3.94479 6.52975 3.94479C6.92865 3.94479 7.25156 4.18539 7.45418 4.38801C7.46051 4.39434 7.46684 4.40067 7.47317 4.407C7.85941 4.76791 8.22665 5.14148 8.61288 5.54038C8.80916 5.74299 9.01178 5.94561 9.21439 6.15456L10.9429 7.88311C11.6141 8.55427 11.6141 9.17478 10.9429 9.84594C10.7593 10.0296 10.582 10.2132 10.3984 10.3905C9.86656 10.935 9.36002 11.4415 8.80916 11.9354C8.7965 11.9481 8.78384 11.9544 8.7775 11.9671C8.23298 12.5116 8.33428 13.0435 8.44826 13.4044C8.45459 13.4234 8.46092 13.4423 8.46725 13.4613C8.9168 14.5504 9.54997 15.5761 10.5124 16.7982L10.5187 16.8045C12.2663 18.9573 14.1088 20.6352 16.1413 21.9205C16.4009 22.0851 16.6668 22.2181 16.9201 22.3447C17.148 22.4587 17.3633 22.5663 17.5469 22.6803C17.5722 22.693 17.5976 22.712 17.6229 22.7246C17.8382 22.8323 18.0408 22.8829 18.2497 22.8829C18.7753 22.8829 19.1045 22.5537 19.2122 22.446L21.3776 20.2806C21.5929 20.0653 21.9348 19.8057 22.3337 19.8057C22.7262 19.8057 23.0492 20.0526 23.2454 20.2679C23.2518 20.2743 23.2518 20.2743 23.2581 20.2806L26.7469 23.7694C27.399 24.4152 27.399 25.08 26.7532 25.7512Z" fill="white"/>
<path d="M16.9897 7.63623C18.6486 7.91482 20.1556 8.69996 21.3586 9.90298C22.5616 11.106 23.3404 12.6129 23.6254 14.2719C23.695 14.6897 24.0559 14.981 24.4675 14.981C24.5181 14.981 24.5624 14.9747 24.6131 14.9683C25.0816 14.8924 25.3919 14.4491 25.3159 13.9806C24.974 11.9734 24.0243 10.1436 22.5743 8.69362C21.1243 7.24366 19.2945 6.29391 17.2873 5.952C16.8188 5.87602 16.3819 6.18627 16.2996 6.64848C16.2173 7.1107 16.5212 7.56025 16.9897 7.63623Z" fill="white"/>
<path d="M30.7418 13.7336C30.1783 10.4285 28.6207 7.42092 26.2273 5.02754C23.8339 2.63415 20.8263 1.07655 17.5212 0.513032C17.059 0.430719 16.6221 0.747305 16.5398 1.20952C16.4638 1.67807 16.774 2.11495 17.2426 2.19727C20.1932 2.69747 22.8841 4.09678 25.0242 6.23056C27.1644 8.37068 28.5573 11.0617 29.0575 14.0122C29.1272 14.4301 29.4881 14.7214 29.8997 14.7214C29.9503 14.7214 29.9946 14.715 30.0453 14.7087C30.5075 14.6391 30.8241 14.1958 30.7418 13.7336Z" fill="white"/>
</svg>
