<svg width="51" height="50" viewBox="0 0 51 50" fill="none" xmlns="http://www.w3.org/2000/svg">
<path d="M36.1875 37.5H38.989C39.442 37.5012 39.8908 37.4126 40.3094 37.2392C40.7279 37.0658 41.108 36.8112 41.4274 36.49C41.574 36.3434 41.6563 36.1447 41.6563 35.9375C41.6563 35.7303 41.574 35.5316 41.4274 35.3851C41.2809 35.2386 41.0822 35.1563 40.875 35.1562C40.6678 35.1562 40.4691 35.2386 40.3226 35.3851C40.1478 35.5608 39.94 35.7 39.7111 35.7949C39.4822 35.8897 39.2367 35.9382 38.989 35.9375H36.1875C35.9803 35.9375 35.7816 36.0198 35.6351 36.1663C35.4886 36.3129 35.4062 36.5116 35.4062 36.7188C35.4062 36.926 35.4886 37.1247 35.6351 37.2712C35.7816 37.4177 35.9803 37.5 36.1875 37.5Z" fill="white"/>
<path d="M38.5313 25C37.9132 25 37.309 25.1833 36.7951 25.5267C36.2812 25.87 35.8807 26.3581 35.6441 26.9291C35.4076 27.5001 35.3457 28.1285 35.4663 28.7347C35.5869 29.3408 35.8845 29.8977 36.3215 30.3347C36.7586 30.7717 37.3154 31.0694 37.9216 31.19C38.5278 31.3105 39.1561 31.2486 39.7271 31.0121C40.2982 30.7756 40.7862 30.3751 41.1296 29.8612C41.473 29.3473 41.6563 28.7431 41.6563 28.125C41.6553 27.2965 41.3258 26.5022 40.7399 25.9163C40.1541 25.3305 39.3598 25.0009 38.5313 25ZM38.5313 29.6875C38.2222 29.6875 37.9201 29.5959 37.6632 29.4242C37.4062 29.2525 37.206 29.0085 37.0877 28.7229C36.9694 28.4374 36.9385 28.1233 36.9988 27.8202C37.0591 27.5171 37.2079 27.2387 37.4264 27.0201C37.6449 26.8016 37.9233 26.6528 38.2264 26.5925C38.5295 26.5322 38.8437 26.5632 39.1292 26.6814C39.4147 26.7997 39.6587 27 39.8304 27.2569C40.0021 27.5139 40.0938 27.816 40.0938 28.125C40.0933 28.5393 39.9285 28.9364 39.6356 29.2293C39.3426 29.5222 38.9455 29.687 38.5313 29.6875Z" fill="white"/>
<path d="M46.3438 21.0938C45.8802 21.0938 45.4271 21.2312 45.0416 21.4887C44.6562 21.7463 44.3558 22.1123 44.1784 22.5406C44.001 22.9689 43.9546 23.4401 44.045 23.8947C44.1355 24.3494 44.3587 24.767 44.6865 25.0948C45.0142 25.4226 45.4319 25.6458 45.8865 25.7362C46.3412 25.8267 46.8124 25.7802 47.2407 25.6028C47.6689 25.4254 48.035 25.125 48.2925 24.7396C48.55 24.3542 48.6875 23.9011 48.6875 23.4375C48.6868 22.8161 48.4396 22.2204 48.0003 21.781C47.5609 21.3416 46.9651 21.0944 46.3438 21.0938ZM46.3438 24.2188C46.1892 24.2188 46.0382 24.1729 45.9097 24.0871C45.7812 24.0012 45.6811 23.8792 45.622 23.7365C45.5628 23.5937 45.5474 23.4366 45.5775 23.2851C45.6077 23.1335 45.6821 22.9943 45.7913 22.8851C45.9006 22.7758 46.0398 22.7014 46.1913 22.6713C46.3429 22.6411 46.5 22.6566 46.6427 22.7157C46.7855 22.7749 46.9075 22.875 46.9933 23.0035C47.0792 23.1319 47.125 23.283 47.125 23.4375C47.1248 23.6446 47.0424 23.8432 46.8959 23.9897C46.7495 24.1361 46.5509 24.2185 46.3438 24.2188Z" fill="white"/>
<path d="M38.5313 14.0625C37.9132 14.0625 37.309 14.2458 36.7951 14.5892C36.2812 14.9325 35.8807 15.4206 35.6441 15.9916C35.4076 16.5626 35.3457 17.191 35.4663 17.7972C35.5869 18.4033 35.8845 18.9602 36.3215 19.3972C36.7586 19.8342 37.3154 20.1319 37.9216 20.2525C38.5278 20.373 39.1561 20.3111 39.7271 20.0746C40.2982 19.8381 40.7862 19.4376 41.1296 18.9237C41.473 18.4098 41.6563 17.8056 41.6563 17.1875C41.6553 16.359 41.3258 15.5647 40.7399 14.9788C40.1541 14.393 39.3598 14.0634 38.5313 14.0625ZM38.5313 18.75C38.2222 18.75 37.9201 18.6584 37.6632 18.4867C37.4062 18.315 37.206 18.071 37.0877 17.7854C36.9694 17.4999 36.9385 17.1858 36.9988 16.8827C37.0591 16.5796 37.2079 16.3012 37.4264 16.0826C37.6449 15.8641 37.9233 15.7153 38.2264 15.655C38.5295 15.5947 38.8437 15.6257 39.1292 15.7439C39.4147 15.8622 39.6587 16.0625 39.8304 16.3194C40.0021 16.5764 40.0938 16.8785 40.0938 17.1875C40.0933 17.6018 39.9285 17.9989 39.6356 18.2918C39.3426 18.5847 38.9455 18.7495 38.5313 18.75Z" fill="white"/>
<path d="M7.08594 48.4375H15.2891C15.8115 48.4378 16.328 48.327 16.8044 48.1127C16.8766 48.2132 16.9716 48.2951 17.0817 48.3516C17.1918 48.408 17.3138 48.4375 17.4375 48.4375H44.7812C44.9555 48.4375 45.1247 48.3792 45.262 48.272C45.3994 48.1648 45.4969 48.0147 45.5392 47.8457L46.1725 45.3125H47.125C47.3322 45.3125 47.5309 45.2302 47.6774 45.0837C47.8239 44.9372 47.9062 44.7384 47.9062 44.5312V41.4062C47.9062 41.1991 47.8239 41.0003 47.6774 40.8538C47.5309 40.7073 47.3322 40.625 47.125 40.625H45.1464C45.7508 39.9512 46.147 39.1168 46.2872 38.2226C46.4274 37.3283 46.3056 36.4127 45.9364 35.5862C45.5672 34.7598 44.9665 34.0581 44.2069 33.5658C43.4473 33.0736 42.5614 32.8119 41.6562 32.8125H33.8438V17.8711C33.8419 16.5656 33.3654 15.3054 32.5029 14.3254C31.6404 13.3454 30.4509 12.7126 29.1562 12.545V10.1562C29.1562 9.94905 29.0739 9.75034 28.9274 9.60382C28.7809 9.45731 28.5822 9.375 28.375 9.375V3.125C28.375 2.9178 28.2927 2.71909 28.1462 2.57257C27.9997 2.42606 27.801 2.34375 27.5938 2.34375H19.9766C19.5105 2.34429 19.0637 2.52966 18.7342 2.8592C18.4047 3.18874 18.2193 3.63553 18.2188 4.10156V5.46875C18.2188 5.67595 18.3011 5.87466 18.4476 6.02118C18.5941 6.16769 18.7928 6.25 19 6.25H22.125V9.375C21.9178 9.375 21.7191 9.45731 21.5726 9.60382C21.4261 9.75034 21.3438 9.94905 21.3438 10.1562V12.545C20.0491 12.7126 18.8596 13.3454 17.9971 14.3254C17.1346 15.3054 16.6581 16.5656 16.6562 17.8711V26.0434C16.2213 25.87 15.7573 25.7811 15.2891 25.7812C15.0301 25.781 14.7819 25.678 14.5988 25.4949C14.4158 25.3118 14.3128 25.0636 14.3125 24.8047V24.2188C14.5197 24.2188 14.7184 24.1364 14.8649 23.9899C15.0114 23.8434 15.0938 23.6447 15.0938 23.4375V20.3125C15.0938 20.1053 15.0114 19.9066 14.8649 19.7601C14.7184 19.6136 14.5197 19.5312 14.3125 19.5312H8.0625C7.8553 19.5312 7.65659 19.6136 7.51007 19.7601C7.36356 19.9066 7.28125 20.1053 7.28125 20.3125V23.4375C7.28125 23.6447 7.36356 23.8434 7.51007 23.9899C7.65659 24.1364 7.8553 24.2188 8.0625 24.2188V24.8047C8.06222 25.0636 7.95924 25.3118 7.77616 25.4949C7.59308 25.678 7.34485 25.781 7.08594 25.7812C6.10208 25.7824 5.15883 26.1737 4.46314 26.8694C3.76744 27.5651 3.37611 28.5083 3.375 29.4922V44.7266C3.37611 45.7104 3.76744 46.6537 4.46314 47.3494C5.15883 48.0451 6.10208 48.4364 7.08594 48.4375ZM18.2188 27.2186V25H26.0312V35.9375H19V29.4922C19.0006 28.6684 18.7256 27.868 18.2188 27.2186ZM44.1713 46.875H33.8438V45.3125H44.5619L44.1713 46.875ZM46.3438 43.75H33.8438V42.1875H46.3438V43.75ZM41.6562 34.375C42.4851 34.375 43.2799 34.7042 43.866 35.2903C44.452 35.8763 44.7812 36.6712 44.7812 37.5C44.7812 38.3288 44.452 39.1237 43.866 39.7097C43.2799 40.2958 42.4851 40.625 41.6562 40.625H33.8438V34.375H41.6562ZM22.9062 10.9375H27.5938V12.5H22.9062V10.9375ZM19.7812 4.6875V4.10156C19.7812 4.04976 19.8018 4.00008 19.8385 3.96346C19.8751 3.92683 19.9248 3.90625 19.9766 3.90625H22.125V4.6875H19.7812ZM23.6875 3.90625H26.8125V9.375H23.6875V3.90625ZM22.0273 14.0625H28.4727C29.4824 14.0636 30.4505 14.4653 31.1645 15.1793C31.8785 15.8933 32.2801 16.8613 32.2812 17.8711V46.875H18.3119C18.76 46.2483 19.0006 45.497 19 44.7266V37.5H26.8125C27.0197 37.5 27.2184 37.4177 27.3649 37.2712C27.5114 37.1247 27.5938 36.9259 27.5938 36.7188V24.2188C27.5938 24.0115 27.5114 23.8128 27.3649 23.6663C27.2184 23.5198 27.0197 23.4375 26.8125 23.4375H18.2188V17.8711C18.2199 16.8613 18.6215 15.8933 19.3355 15.1793C20.0495 14.4653 21.0176 14.0636 22.0273 14.0625ZM8.84375 21.0938H13.5312V22.6562H8.84375V21.0938ZM7.08594 27.3438C7.75911 27.343 8.40449 27.0753 8.8805 26.5992C9.3565 26.1232 9.62425 25.4779 9.625 24.8047V24.2188H12.75V24.8047C12.7507 25.4779 13.0185 26.1232 13.4945 26.5992C13.9705 27.0753 14.6159 27.343 15.2891 27.3438C15.8587 27.3444 16.4048 27.571 16.8075 27.9737C17.2103 28.3765 17.4369 28.9226 17.4375 29.4922V44.7266C17.4369 45.2962 17.2103 45.8423 16.8075 46.245C16.4048 46.6478 15.8587 46.8744 15.2891 46.875H7.08594C6.51633 46.8744 5.97025 46.6478 5.56748 46.245C5.16471 45.8423 4.93815 45.2962 4.9375 44.7266V42.9688H11.9688C12.176 42.9688 12.3747 42.8864 12.5212 42.7399C12.6677 42.5934 12.75 42.3947 12.75 42.1875V31.25C12.75 31.0428 12.6677 30.8441 12.5212 30.6976C12.3747 30.5511 12.176 30.4688 11.9688 30.4688H4.9375V29.4922C4.93815 28.9226 5.16471 28.3765 5.56748 27.9737C5.97025 27.571 6.51633 27.3444 7.08594 27.3438ZM4.9375 32.0312H11.1875V41.4062H4.9375V32.0312Z" fill="white"/>
<path d="M29.9375 38.2812C30.1447 38.2812 30.3434 38.1989 30.4899 38.0524C30.6364 37.9059 30.7188 37.7072 30.7188 37.5V36.7188C30.7188 36.5115 30.6364 36.3128 30.4899 36.1663C30.3434 36.0198 30.1447 35.9375 29.9375 35.9375C29.7303 35.9375 29.5316 36.0198 29.3851 36.1663C29.2386 36.3128 29.1562 36.5115 29.1562 36.7188V37.5C29.1562 37.7072 29.2386 37.9059 29.3851 38.0524C29.5316 38.1989 29.7303 38.2812 29.9375 38.2812Z" fill="white"/>
<path d="M29.9375 43.75C30.1447 43.75 30.3434 43.6677 30.4899 43.5212C30.6364 43.3747 30.7188 43.176 30.7188 42.9688V40.625C30.7188 40.4178 30.6364 40.2191 30.4899 40.0726C30.3434 39.9261 30.1447 39.8438 29.9375 39.8438C29.7303 39.8438 29.5316 39.9261 29.3851 40.0726C29.2386 40.2191 29.1562 40.4178 29.1562 40.625V42.9688C29.1562 43.176 29.2386 43.3747 29.3851 43.5212C29.5316 43.6677 29.7303 43.75 29.9375 43.75Z" fill="white"/>
</svg>
