<svg width="51" height="51" viewBox="0 0 51 51" fill="none" xmlns="http://www.w3.org/2000/svg">
<g clip-path="url(#clip0_1_11455)">
<path d="M9.42969 25.5126C11.9066 25.5126 13.9219 23.7601 13.9219 21.6063C13.9219 19.4522 11.9066 17.7001 9.42969 17.7001C6.9528 17.7001 4.9375 19.4522 4.9375 21.6063C4.9375 23.7601 6.9528 25.5126 9.42969 25.5126ZM9.42969 19.6532C10.8297 19.6532 11.9688 20.5291 11.9688 21.6063C11.9688 22.6832 10.8297 23.5594 9.42969 23.5594C8.02969 23.5594 6.89062 22.6832 6.89062 21.6063C6.89062 20.5291 8.02969 19.6532 9.42969 19.6532Z" fill="white"/>
<path d="M17.8281 33.613C17.5714 33.613 17.3192 33.7176 17.1377 33.8995C16.9561 34.0811 16.8516 34.3329 16.8516 34.5896C16.8516 34.8475 16.9561 35.0985 17.1377 35.2801C17.3192 35.4628 17.5714 35.5662 17.8281 35.5662C18.0849 35.5662 18.337 35.4628 18.5186 35.2801C18.7002 35.0985 18.8047 34.8475 18.8047 34.5896C18.8047 34.3329 18.7002 34.0811 18.5186 33.8995C18.337 33.7176 18.0849 33.613 17.8281 33.613Z" fill="white"/>
<path d="M50.1253 10.4606C50.0566 10.049 49.7343 9.72661 49.3226 9.65794C46.4162 9.1731 43.4373 10.1275 41.3537 12.2107L38.7323 14.8322L31.109 14.1051V12.4141C31.109 10.1523 29.2692 8.3125 27.0074 8.3125H21.6363V2.45312H22.3852C22.9246 2.45312 23.3617 2.01596 23.3617 1.47656C23.3617 0.937164 22.9246 0.5 22.3852 0.5H8.97383C8.43481 0.5 7.99727 0.937164 7.99727 1.47656C7.99727 2.01596 8.43481 2.45312 8.97383 2.45312H9.72266V8.3125H4.35156C2.08983 8.3125 0.25 10.1523 0.25 12.4141V17.7001C0.25 18.2391 0.687164 18.6767 1.22656 18.6767C1.76596 18.6767 2.20312 18.2391 2.20312 17.7001V12.4141C2.20312 11.2292 3.16672 10.2656 4.35156 10.2656H27.0078C28.1927 10.2656 29.1562 11.2292 29.1562 12.4141V13.919L22.7151 13.3044C22.4264 13.2769 22.138 13.3799 21.932 13.5863L19.1007 16.4176C18.881 16.6373 18.7787 16.949 18.826 17.2561C18.873 17.5635 19.0637 17.8302 19.3395 17.974L21.9572 19.3389L21.383 19.913C21.0016 20.2945 21.0016 20.9128 21.383 21.2943C21.5738 21.485 21.8236 21.58 22.0735 21.58C22.3234 21.58 22.5736 21.485 22.7643 21.2943L23.7722 20.2861L25.9901 21.4427L25.4484 21.984C25.0673 22.3655 25.0673 22.9838 25.4484 23.3653C25.6391 23.556 25.8893 23.6514 26.1392 23.6514C26.3891 23.6514 26.6389 23.556 26.8297 23.3653L27.8055 22.3895L30.0203 23.5446L25.9149 27.65L22.3512 26.8313C22.0228 26.7558 21.6798 26.8546 21.4418 27.0923L18.8268 29.7076H6.20703C5.66763 29.7076 5.23047 30.1448 5.23047 30.6842V37.1009C5.23047 39.3199 7.03558 41.125 9.25459 41.125H22.1048C24.2738 41.125 26.0465 39.3996 26.1251 37.2493L28.0393 41.1635C28.1778 41.447 28.4448 41.6457 28.7561 41.6976C28.8095 41.7064 28.8633 41.7109 28.9167 41.7109C28.9979 41.7109 29.0784 41.6995 29.1562 41.68V42.4922C29.1562 43.677 28.1927 44.6406 27.0078 44.6406H4.35156C3.16672 44.6406 2.20312 43.677 2.20312 42.4922V25.5126C2.20312 24.9732 1.76596 24.536 1.22656 24.536C0.687164 24.536 0.25 24.9732 0.25 25.5126V42.4922C0.25 44.7539 2.08983 46.5938 4.35156 46.5938H6.5V47.5703C6.5 49.1858 7.81416 50.5 9.42969 50.5C11.0452 50.5 12.3594 49.1858 12.3594 47.5703V46.5938H19V47.5703C19 49.1858 20.3142 50.5 21.9297 50.5C23.5452 50.5 24.8594 49.1858 24.8594 47.5703V46.5938H27.0078C29.2695 46.5938 31.1094 44.7539 31.1094 42.4922V39.9226L32.6909 38.341C32.929 38.103 33.0278 37.7585 32.9519 37.4305L32.1287 33.8729L36.2386 29.7629L37.3937 31.9777L36.4179 32.9535C36.0364 33.3346 36.0364 33.953 36.4179 34.3345C36.6086 34.5252 36.8585 34.6206 37.1084 34.6206C37.3582 34.6206 37.6085 34.5252 37.7992 34.3345L38.3405 33.7932L39.4971 36.0106L38.4889 37.0189C38.1078 37.4003 38.1078 38.0187 38.4889 38.4002C38.6796 38.5909 38.9295 38.6859 39.1797 38.6859C39.4296 38.6859 39.6795 38.5905 39.8702 38.4002L40.4439 37.826L41.8092 40.4437C41.953 40.7191 42.2193 40.9099 42.5268 40.9572C42.5764 40.9648 42.6259 40.9686 42.6752 40.9686C42.9323 40.9686 43.181 40.8671 43.3656 40.6825L46.1969 37.8512C46.4029 37.6452 46.5063 37.358 46.4784 37.0677L44.9506 21.0505L47.5721 18.4291C49.6557 16.3455 50.6101 13.3666 50.1253 10.4606ZM11.6758 2.45312H19.6836V8.3125H11.6758V2.45312ZM10.4062 47.5703C10.4062 48.1089 9.96832 48.5469 9.42969 48.5469C8.89105 48.5469 8.45312 48.1089 8.45312 47.5703V46.5938H10.4062V47.5703ZM22.9062 47.5703C22.9062 48.1089 22.4683 48.5469 21.9297 48.5469C21.3911 48.5469 20.9531 48.1089 20.9531 47.5703V46.5938H22.9062V47.5703ZM21.4227 16.8574L22.9879 15.2926L36.9413 16.6236L31.468 22.0969L21.4227 16.8574ZM22.1048 39.1719H9.25459C8.11285 39.1719 7.18359 38.2426 7.18359 37.1009V35.567H14.2148C14.7542 35.567 15.1914 35.1294 15.1914 34.5904C15.1914 34.051 14.7542 33.6139 14.2148 33.6139H7.18359V31.6607H18.4831C18.5266 31.6916 18.572 31.7206 18.6208 31.7443L24.1758 34.4535V37.1009C24.1758 38.2426 23.2465 39.1719 22.1048 39.1719ZM44.4906 36.7953L42.9258 38.3605L37.6863 28.3152L43.1596 22.8419L44.4906 36.7953ZM35.8034 27.436C35.8015 27.4379 35.7992 27.4402 35.7973 27.4424L30.3644 32.875C30.1263 33.113 30.0279 33.4571 30.1038 33.7855L30.9267 37.3431L29.1933 39.0769L26.547 33.6665C26.4516 33.4712 26.2933 33.3133 26.0976 33.2179L20.7075 30.5888L22.4405 28.8558L26.0042 29.6744C26.3318 29.75 26.6756 29.6512 26.9136 29.4135L42.735 13.592C44.2018 12.1253 46.2331 11.37 48.2816 11.5016C48.4128 13.5508 47.6579 15.5814 46.1912 17.0482L35.8034 27.436Z" fill="white"/>
<path d="M1.22656 22.5829C1.48329 22.5829 1.73544 22.4784 1.91702 22.2968C2.0986 22.1141 2.20312 21.8634 2.20312 21.6063C2.20312 21.3496 2.0986 21.0978 1.91702 20.9159C1.73544 20.7335 1.48329 20.6298 1.22656 20.6298C0.969833 20.6298 0.717682 20.7335 0.536102 20.9159C0.354523 21.0978 0.25 21.3484 0.25 21.6063C0.25 21.8634 0.354523 22.1152 0.536102 22.2968C0.717682 22.4784 0.969833 22.5829 1.22656 22.5829Z" fill="white"/>
</g>
<defs>
<clipPath id="clip0_1_11455">
<rect width="50" height="50" fill="white" transform="translate(0.25 0.5)"/>
</clipPath>
</defs>
</svg>
