<svg width="51" height="50" viewBox="0 0 51 50" fill="none" xmlns="http://www.w3.org/2000/svg">
<g clip-path="url(#clip0_1_11528)">
<path d="M50.4244 48.0716L47.1221 38.1644C46.0938 35.0799 43.4835 32.7257 40.3095 32.0202L31.6719 30.1008V26.3931C35.4184 24.245 37.9479 20.2054 37.9479 15.5859V9.529C37.9479 8.06113 37.4629 6.60596 36.5821 5.43154L36.5757 5.42295C35.4609 3.93896 31.9819 0 25.5009 0C19.0197 0 15.541 3.93633 14.4243 5.42295L14.4179 5.43154C13.5371 6.60596 13.052 8.06113 13.052 9.529V15.5859C13.052 20.2054 15.5815 24.245 19.3281 26.3931V30.1008L10.6905 32.0202C7.51659 32.7257 4.90614 35.0799 3.87792 38.1644L0.575576 48.0716C0.319717 48.8391 0.73456 49.6687 1.50204 49.9245C2.26972 50.1802 3.09911 49.7654 3.35497 48.998L6.65731 39.0908C7.3619 36.977 9.15097 35.3636 11.3262 34.8802L13.0521 34.4967V41.0348C11.2304 41.6481 9.91415 43.3713 9.91415 45.3972C9.91415 47.9352 11.979 50.0001 14.517 50.0001C17.055 50.0001 19.1198 47.9352 19.1198 45.3972C19.1198 43.3713 17.8036 41.6481 15.9818 41.0348V33.8456L20.0764 32.9357L24.2439 39.8749C24.5087 40.3161 24.9854 40.586 25.5 40.586C26.0145 40.586 26.4913 40.316 26.756 39.8749L30.92 32.935L35.0182 33.8457V37.8312C33.5613 38.1843 30.3111 39.8352 30.3111 43.8283V48.5352C30.3111 49.3441 30.967 50 31.776 50H33.345C34.154 50 34.8099 49.3441 34.8099 48.5352C34.8099 47.7262 34.154 47.0703 33.345 47.0703H33.2408V43.8281C33.2408 42.037 34.6902 40.5859 36.483 40.5859C38.2708 40.5859 39.7252 42.0404 39.7252 43.8281V47.0703H39.6211C38.8121 47.0703 38.1562 47.7262 38.1562 48.5352C38.1562 49.3441 38.8121 50 39.6211 50H41.19C41.999 50 42.6549 49.3441 42.6549 48.5352V43.8281C42.6549 40.9297 40.6461 38.4928 37.9478 37.8333V34.4966L39.6738 34.8801C41.849 35.3635 43.638 36.977 44.3427 39.0907L47.645 48.998C47.9009 49.7653 48.7303 50.1801 49.4979 49.9244C50.2654 49.6687 50.6803 48.8392 50.4244 48.0716ZM16.19 45.3971C16.19 46.3196 15.4394 47.0703 14.5169 47.0703C13.5943 47.0703 12.8437 46.3196 12.8437 45.3971C12.8437 44.4745 13.5943 43.7239 14.5169 43.7239C15.4394 43.7239 16.19 44.4745 16.19 45.3971ZM15.9817 9.529C15.9817 8.69346 16.2569 7.86523 16.7569 7.19561C16.7587 7.19336 16.7603 7.19111 16.762 7.18887C17.6501 6.00479 20.3594 2.92969 25.5144 2.92969C30.6472 2.92969 33.3645 6.02422 34.238 7.18887C34.2396 7.19111 34.2414 7.19336 34.2431 7.19561C34.743 7.86514 35.0183 8.69346 35.0183 9.529V12.0495L33.0016 10.033C32.6974 9.72871 32.3826 9.41406 31.7759 9.41406C31.5484 9.41406 31.3242 9.46699 31.1208 9.56875C27.6013 11.3285 23.3988 11.3285 19.8791 9.56875C19.3151 9.28652 18.634 9.39717 18.1883 9.84316L15.9818 12.0474L15.9817 9.529ZM15.9817 15.5859V15.2747C16.8231 15.0317 17.5945 14.5799 18.2311 13.9435C18.6664 13.5081 19.1536 13.021 19.5411 12.6335C23.3395 14.2109 27.6602 14.2111 31.4589 12.6335L32.7689 13.9436C33.4055 14.58 34.1768 15.0317 35.0183 15.2747V15.5859C35.0183 20.8343 30.7483 25.1042 25.5 25.1042C20.2516 25.1042 15.9817 20.8343 15.9817 15.5859ZM28.7422 30.8703L25.5 36.2739L22.2578 30.8702V27.6046C23.292 27.8839 24.3788 28.0338 25.5 28.0338C26.6212 28.0338 27.708 27.8839 28.7422 27.6046V30.8703Z" fill="white"/>
</g>
<defs>
<clipPath id="clip0_1_11528">
<rect width="50" height="50" fill="white" transform="translate(0.5)"/>
</clipPath>
</defs>
</svg>
