<svg width="50" height="50" viewBox="0 0 50 50" fill="none" xmlns="http://www.w3.org/2000/svg">
<g clip-path="url(#clip0_1_16362)">
<path d="M50 16.294V10.4491C50 9.95669 49.7526 9.49722 49.3416 9.22622C48.9304 8.95513 48.4107 8.90874 47.9581 9.10268L27.4503 17.8917C26.9117 18.1226 26.5625 18.6522 26.5625 19.2381V39.4426C25.3033 38.6905 23.7712 38.2811 22.168 38.2811C20.288 38.2811 18.5044 38.8422 17.1459 39.8612C15.6829 40.9584 14.8438 42.5182 14.8438 44.1405C14.8438 45.7627 15.6829 47.3225 17.1459 48.4198C18.5044 49.4387 20.288 49.9999 22.168 49.9999C24.0479 49.9999 25.8315 49.4387 27.19 48.4198C28.653 47.3225 29.4922 45.7627 29.4922 44.1405V26.0634L47.0703 18.5299V30.6536C45.8111 29.9014 44.279 29.492 42.6758 29.492C40.7958 29.492 39.0122 30.0532 37.6537 31.0721C36.1907 32.1694 35.3516 33.7291 35.3516 35.3514C35.3516 36.9737 36.1907 38.5334 37.6537 39.6307C39.0122 40.6497 40.7958 41.2108 42.6758 41.2108C44.5558 41.2108 46.3394 40.6497 47.6978 39.6307C49.1608 38.5334 50 36.9737 50 35.3514C50 35.3514 50 16.2991 50 16.294ZM22.168 47.0702C19.7858 47.0702 17.7734 45.7286 17.7734 44.1405C17.7734 42.5524 19.7858 41.2108 22.168 41.2108C24.5501 41.2108 26.5625 42.5524 26.5625 44.1405C26.5625 45.7286 24.5501 47.0702 22.168 47.0702ZM29.4922 22.876V20.2041L47.0703 12.6706V15.3425L29.4922 22.876ZM42.6758 38.2811C40.2937 38.2811 38.2812 36.9395 38.2812 35.3514C38.2812 33.7633 40.2937 32.4217 42.6758 32.4217C45.0579 32.4217 47.0703 33.7633 47.0703 35.3514C47.0703 36.9395 45.0579 38.2811 42.6758 38.2811Z" fill="white"/>
<path d="M20.5078 16.1132C20.5078 18.0029 18.7013 20.2372 18.0072 20.9368C17.4352 21.5089 17.4352 22.4363 18.0072 23.0084C18.5792 23.5805 19.5067 23.5806 20.0788 23.0084C20.4227 22.6646 23.4376 19.5504 23.4376 16.1133C23.4376 13.3593 21.8605 9.86004 18.7501 5.71288C16.5172 2.73582 14.3146 0.524204 14.2197 0.429282C13.3057 -0.485367 11.7188 0.156333 11.7188 1.46473V21.6692C10.4596 20.9171 8.92744 20.5077 7.32422 20.5077C5.44424 20.5077 3.66064 21.0688 2.30215 22.0878C0.83916 23.185 0 24.7448 0 26.3671C0 27.9893 0.83916 29.5491 2.30215 30.6464C3.66064 31.6653 5.44424 32.2264 7.32422 32.2264C9.2042 32.2264 10.9878 31.6653 12.3463 30.6464C13.8093 29.5491 14.6484 27.9893 14.6484 26.3671V5.25731C17.2901 8.40155 20.5078 12.9722 20.5078 16.1132ZM7.32422 29.2968C4.94209 29.2968 2.92969 27.9552 2.92969 26.3671C2.92969 24.779 4.94209 23.4374 7.32422 23.4374C9.70635 23.4374 11.7188 24.779 11.7188 26.3671C11.7188 27.9552 9.70635 29.2968 7.32422 29.2968Z" fill="white"/>
</g>
<defs>
<clipPath id="clip0_1_16362">
<rect width="50" height="50" fill="white"/>
</clipPath>
</defs>
</svg>
