<svg width="19" height="19" viewBox="0 0 19 19" fill="none" xmlns="http://www.w3.org/2000/svg">
<path d="M8.0625 11.9H8.6625V12.5H8.0625V11.9Z" fill="#F86E2D"/>
<path d="M9.2627 11.9H9.8627V12.5H9.2627V11.9Z" fill="#F86E2D"/>
<path d="M10.4629 11.9H11.0629V12.5H10.4629V11.9Z" fill="#F86E2D"/>
<path d="M8.0625 13.1H8.6625V13.7H8.0625V13.1Z" fill="#F86E2D"/>
<path d="M9.2627 13.1H9.8627V13.7H9.2627V13.1Z" fill="#F86E2D"/>
<path d="M10.4629 13.1H11.0629V13.7H10.4629V13.1Z" fill="#F86E2D"/>
<path d="M8.0625 14.3H8.6625V14.9H8.0625V14.3Z" fill="#F86E2D"/>
<path d="M9.2627 14.3H9.8627V14.9H9.2627V14.3Z" fill="#F86E2D"/>
<path d="M10.4629 14.3H11.0629V14.9H10.4629V14.3Z" fill="#F86E2D"/>
<path d="M8.0625 9.5H8.6625V10.1H8.0625V9.5Z" fill="#F86E2D"/>
<path d="M9.2627 9.5H9.8627V10.1H9.2627V9.5Z" fill="#F86E2D"/>
<path d="M10.4629 9.5H11.0629V10.1H10.4629V9.5Z" fill="#F86E2D"/>
<path d="M8.0625 10.7H8.6625V11.3H8.0625V10.7Z" fill="#F86E2D"/>
<path d="M9.2627 10.7H9.8627V11.3H9.2627V10.7Z" fill="#F86E2D"/>
<path d="M10.4629 10.7H11.0629V11.3H10.4629V10.7Z" fill="#F86E2D"/>
<path d="M6.63272 2.99153L7.88012 4.20743L7.58563 5.92429C7.57616 5.97947 7.58232 6.03619 7.60341 6.08805C7.62449 6.13991 7.65967 6.18483 7.70496 6.21774C7.75026 6.25064 7.80385 6.27022 7.85969 6.27426C7.91553 6.27829 7.97138 6.26662 8.02093 6.24056L9.56263 5.42996L11.1045 6.24056C11.154 6.26662 11.2099 6.27829 11.2657 6.27426C11.3216 6.27022 11.3752 6.25064 11.4204 6.21774C11.4657 6.18483 11.5009 6.13991 11.522 6.08805C11.5431 6.03619 11.5492 5.97947 11.5398 5.92429L11.2453 4.20743L12.4928 2.99153C12.5329 2.95245 12.5613 2.90294 12.5747 2.84859C12.5881 2.79424 12.5861 2.73722 12.5688 2.68398C12.5515 2.63074 12.5196 2.5834 12.4768 2.54732C12.434 2.51123 12.382 2.48785 12.3266 2.4798L10.6027 2.22934L9.8318 0.667239C9.80703 0.617039 9.7687 0.574772 9.72116 0.545217C9.67362 0.515663 9.61876 0.5 9.56278 0.5C9.5068 0.5 9.45193 0.515663 9.40439 0.545217C9.35685 0.574772 9.31853 0.617039 9.29375 0.667239L8.52283 2.22934L6.79888 2.4798C6.74348 2.48785 6.69143 2.51123 6.64863 2.54732C6.60583 2.5834 6.57398 2.63074 6.55668 2.68398C6.53938 2.73722 6.53732 2.79424 6.55074 2.84859C6.56415 2.90294 6.59251 2.95245 6.6326 2.99153H6.63272ZM8.76519 2.80028C8.81332 2.79328 8.85903 2.77468 8.89838 2.74608C8.93773 2.71749 8.96953 2.67976 8.99105 2.63614L9.56263 1.47791L10.1344 2.63629C10.1559 2.67991 10.1877 2.71764 10.227 2.74623C10.2664 2.77483 10.3121 2.79343 10.3602 2.80043L11.6386 2.98616L10.7139 3.88789C10.6791 3.92184 10.653 3.96375 10.638 4.01001C10.623 4.05627 10.6194 4.10549 10.6276 4.15343L10.846 5.42663L9.70258 4.8255C9.65952 4.80286 9.61161 4.79104 9.56297 4.79104C9.51432 4.79104 9.46641 4.80286 9.42335 4.8255L8.27994 5.42663L8.4983 4.15343C8.50653 4.10549 8.50298 4.05627 8.48795 4.01001C8.47292 3.96375 8.44688 3.92184 8.41205 3.88789L7.48682 2.98628L8.76519 2.80028Z" fill="#F86E2D"/>
<path d="M12.2774 5.37843C12.2601 5.43166 12.258 5.48867 12.2714 5.54301C12.2848 5.59735 12.3132 5.64685 12.3533 5.68593L13.1839 6.49563L12.9878 7.63896C12.9784 7.69414 12.9845 7.75086 13.0056 7.80272C13.0267 7.85458 13.0619 7.89951 13.1072 7.93241C13.1525 7.96532 13.2061 7.9849 13.2619 7.98893C13.3177 7.99296 13.3736 7.98129 13.4231 7.95524L14.4499 7.41543L15.4767 7.95524C15.5263 7.98128 15.5821 7.99294 15.638 7.98891C15.6938 7.98487 15.7474 7.96529 15.7927 7.93238C15.8379 7.89948 15.8731 7.85456 15.8942 7.80271C15.9153 7.75085 15.9215 7.69413 15.912 7.63896L15.7159 6.49563L16.5466 5.68593C16.5867 5.64685 16.615 5.59734 16.6284 5.54299C16.6418 5.48864 16.6398 5.43162 16.6225 5.37838C16.6052 5.32514 16.5733 5.2778 16.5305 5.24172C16.4877 5.20563 16.4357 5.18225 16.3803 5.1742L15.2323 5.00748L14.7189 3.96719C14.6941 3.917 14.6558 3.87474 14.6083 3.84519C14.5607 3.81565 14.5059 3.79999 14.4499 3.79999C14.3939 3.79999 14.3391 3.81565 14.2916 3.84519C14.244 3.87474 14.2057 3.917 14.1809 3.96719L13.6675 5.00748L12.5195 5.17428C12.4642 5.18232 12.4121 5.20571 12.3693 5.24179C12.3265 5.27786 12.2947 5.32519 12.2774 5.37843ZM13.9099 5.57853C13.958 5.57154 14.0037 5.55295 14.0431 5.52436C14.0824 5.49577 14.1142 5.45804 14.1358 5.41443L14.4499 4.77783L14.7641 5.41443C14.7856 5.45804 14.8174 5.49576 14.8568 5.52435C14.8961 5.55294 14.9418 5.57153 14.99 5.57853L15.6925 5.6806L15.1841 6.17613C15.1493 6.21008 15.1233 6.25199 15.1083 6.29825C15.0932 6.34451 15.0897 6.39373 15.0979 6.44166L15.2179 7.14134L14.5895 6.81096C14.5465 6.78833 14.4986 6.77651 14.45 6.77651C14.4013 6.77651 14.3534 6.78833 14.3104 6.81096L13.682 7.14134L13.802 6.44166C13.8102 6.39373 13.8067 6.34451 13.7917 6.29825C13.7766 6.25199 13.7506 6.21008 13.7158 6.17613L13.2074 5.6806L13.9099 5.57853Z" fill="#F86E2D"/>
<path d="M15.6308 8.64343C15.5755 8.65148 15.5234 8.67487 15.4806 8.71096C15.4378 8.74704 15.406 8.79437 15.3887 8.84761C15.3714 8.90084 15.3694 8.95785 15.3828 9.01219C15.3962 9.06654 15.4245 9.11604 15.4646 9.15511L15.9988 9.67584L15.8727 10.4112C15.8632 10.4664 15.8694 10.5231 15.8905 10.575C15.9116 10.6268 15.9467 10.6717 15.992 10.7046C16.0373 10.7375 16.0909 10.7571 16.1467 10.7612C16.2025 10.7652 16.2584 10.7535 16.3079 10.7275L16.9682 10.3804L17.6285 10.7275C17.6781 10.7535 17.7339 10.7652 17.7898 10.7611C17.8456 10.7571 17.8992 10.7375 17.9444 10.7046C17.9897 10.6717 18.0249 10.6268 18.046 10.5749C18.0671 10.5231 18.0732 10.4664 18.0638 10.4112L17.9377 9.67599L18.4719 9.15496C18.512 9.11589 18.5403 9.06638 18.5538 9.01204C18.5672 8.95769 18.5651 8.90068 18.5478 8.84744C18.5305 8.79421 18.4987 8.74687 18.4559 8.71079C18.4131 8.67471 18.361 8.65133 18.3056 8.64328L17.5674 8.53621L17.2374 7.86725C17.2126 7.81705 17.1743 7.77478 17.1268 7.74523C17.0792 7.71568 17.0244 7.70001 16.9684 7.70001C16.9124 7.70001 16.8575 7.71568 16.81 7.74523C16.7625 7.77478 16.7241 7.81705 16.6994 7.86725L16.3694 8.53621L15.6308 8.64343ZM16.8375 8.94313L16.9684 8.67785L17.0994 8.94313C17.1209 8.98671 17.1527 9.02442 17.192 9.053C17.2313 9.08159 17.2769 9.1002 17.325 9.10723L17.6178 9.14979L17.4059 9.35626C17.3711 9.39022 17.3451 9.43214 17.33 9.4784C17.315 9.52467 17.3115 9.5739 17.3197 9.62184L17.3697 9.9134L17.1079 9.77574C17.0648 9.75311 17.0169 9.74128 16.9683 9.74128C16.9196 9.74128 16.8717 9.75311 16.8287 9.77574L16.5668 9.9134L16.6168 9.62184C16.625 9.5739 16.6215 9.52467 16.6064 9.4784C16.5914 9.43214 16.5654 9.39022 16.5305 9.35626L16.3187 9.14979L16.6115 9.10723C16.6597 9.10025 16.7054 9.08167 16.7448 9.05308C16.7841 9.02449 16.816 8.98676 16.8375 8.94313Z" fill="#F86E2D"/>
<path d="M2.57878 5.68593L3.40948 6.49563L3.21335 7.63896C3.20389 7.69413 3.21005 7.75085 3.23114 7.80271C3.25223 7.85456 3.2874 7.89948 3.33268 7.93238C3.37797 7.96529 3.43156 7.98487 3.48739 7.98891C3.54322 7.99295 3.59907 7.98128 3.64862 7.95524L4.6754 7.41543L5.70219 7.95524C5.75174 7.98129 5.80759 7.99296 5.86343 7.98893C5.91927 7.9849 5.97286 7.96532 6.01815 7.93241C6.06344 7.89951 6.09862 7.85458 6.11971 7.80272C6.1408 7.75086 6.14696 7.69414 6.13749 7.63896L5.9414 6.49563L6.77207 5.68593C6.81216 5.64685 6.84051 5.59734 6.85393 5.54299C6.86735 5.48864 6.86529 5.43162 6.84799 5.37838C6.83069 5.32514 6.79884 5.2778 6.75604 5.24172C6.71324 5.20563 6.66119 5.18225 6.60579 5.1742L5.45784 5.00744L4.94443 3.96719C4.91965 3.917 4.88133 3.87474 4.83379 3.84519C4.78625 3.81565 4.7314 3.79999 4.67542 3.79999C4.61945 3.79999 4.56459 3.81565 4.51706 3.84519C4.46952 3.87474 4.43119 3.917 4.40642 3.96719L3.893 5.00744L2.74517 5.1742C2.68977 5.18225 2.63772 5.20563 2.59492 5.24172C2.55212 5.2778 2.52027 5.32514 2.50297 5.37838C2.48567 5.43162 2.48361 5.48864 2.49703 5.54299C2.51044 5.59734 2.5388 5.64685 2.57889 5.68593H2.57878ZM4.13537 5.57849C4.1835 5.57149 4.2292 5.5529 4.26855 5.52431C4.3079 5.49573 4.3397 5.458 4.36123 5.41439L4.6754 4.77779L4.98958 5.41439C5.01111 5.45801 5.04292 5.49573 5.08227 5.52432C5.12163 5.55291 5.16734 5.5715 5.21548 5.57849L5.91797 5.68056L5.40965 6.17609C5.37483 6.21004 5.34878 6.25195 5.33376 6.29821C5.31873 6.34447 5.31518 6.39369 5.3234 6.44163L5.4434 7.1413L4.81505 6.81093C4.772 6.78831 4.72409 6.7765 4.67546 6.7765C4.62683 6.7765 4.57892 6.78831 4.53587 6.81093L3.90767 7.14119L4.02767 6.44151C4.03589 6.39358 4.03234 6.34436 4.01731 6.2981C4.00229 6.25184 3.97624 6.20993 3.94142 6.17598L3.43288 5.68056L4.13537 5.57849Z" fill="#F86E2D"/>
<path d="M0.652943 9.15496L1.18713 9.67584L1.06109 10.4112C1.05162 10.4664 1.05778 10.5231 1.07887 10.575C1.09996 10.6268 1.13514 10.6718 1.18043 10.7047C1.22572 10.7376 1.27932 10.7571 1.33515 10.7612C1.39099 10.7652 1.44684 10.7535 1.49639 10.7275L2.15669 10.3804L2.81699 10.7275C2.86654 10.7535 2.92238 10.7652 2.9782 10.7611C3.03402 10.7571 3.08759 10.7375 3.13286 10.7046C3.17813 10.6717 3.2133 10.6268 3.23439 10.5749C3.25547 10.5231 3.26163 10.4664 3.25218 10.4112L3.12607 9.67584L3.66026 9.15496C3.70033 9.11589 3.72868 9.06639 3.7421 9.01204C3.75551 8.9577 3.75345 8.90069 3.73616 8.84746C3.71886 8.79422 3.68702 8.74689 3.64423 8.71081C3.60144 8.67472 3.54941 8.65133 3.49402 8.64328L2.75576 8.53621L2.42576 7.86725C2.40098 7.81705 2.36266 7.77478 2.31512 7.74523C2.26757 7.71568 2.21271 7.70001 2.15673 7.70001C2.10075 7.70001 2.04589 7.71568 1.99835 7.74523C1.9508 7.77478 1.91248 7.81705 1.88771 7.86725L1.55771 8.53621L0.819218 8.64343C0.763856 8.6515 0.711854 8.67489 0.669086 8.71096C0.626318 8.74703 0.594489 8.79434 0.577194 8.84755C0.559899 8.90076 0.557827 8.95774 0.571213 9.01206C0.584598 9.06639 0.612908 9.11588 0.652943 9.15496ZM1.79984 9.10723C1.84797 9.10023 1.89368 9.08164 1.93303 9.05305C1.97237 9.02446 2.00418 8.98674 2.02571 8.94313L2.15666 8.67785L2.28757 8.94313C2.30909 8.98674 2.3409 9.02446 2.38025 9.05305C2.41959 9.08164 2.4653 9.10023 2.51343 9.10723L2.80619 9.14979L2.59439 9.35626C2.55956 9.39022 2.53351 9.43214 2.51849 9.4784C2.50346 9.52467 2.49991 9.5739 2.50814 9.62184L2.55813 9.9134L2.29627 9.77574C2.25322 9.75311 2.20531 9.74128 2.15667 9.74128C2.10804 9.74128 2.06013 9.75311 2.01708 9.77574L1.75522 9.9134L1.80524 9.62184C1.81347 9.5739 1.80992 9.52467 1.7949 9.4784C1.77987 9.43214 1.75382 9.39022 1.71899 9.35626L1.50716 9.14979L1.79984 9.10723Z" fill="#F86E2D"/>
<path d="M5.3623 10.7H6.2623V11.3H5.3623V10.7Z" fill="#F86E2D"/>
<path d="M5.3623 12.2H6.2623V12.8H5.3623V12.2Z" fill="#F86E2D"/>
<path d="M5.3623 13.7H6.2623V14.3H5.3623V13.7Z" fill="#F86E2D"/>
<path d="M5.3623 15.2H6.2623V15.8H5.3623V15.2Z" fill="#F86E2D"/>
<path d="M17.3625 14.6H16.7625C16.4444 14.6004 16.1393 14.7269 15.9144 14.9519C15.6894 15.1768 15.5629 15.4819 15.5625 15.8V16.4178C15.3462 16.4523 15.1408 16.5365 14.9625 16.6637V15.2H14.3625V16.7H12.2625V9.8H14.3625V14.6H14.9625V9.5C14.9625 9.42044 14.9309 9.34413 14.8746 9.28787C14.8184 9.23161 14.7421 9.2 14.6625 9.2H12.2625V7.7C12.2625 7.62044 12.2309 7.54413 12.1746 7.48787C12.1184 7.43161 12.0421 7.4 11.9625 7.4H11.0625V6.8C11.0625 6.72044 11.0309 6.64413 10.9746 6.58787C10.9184 6.53161 10.8421 6.5 10.7625 6.5H8.3625C8.28294 6.5 8.20663 6.53161 8.15037 6.58787C8.09411 6.64413 8.0625 6.72044 8.0625 6.8V7.4H7.1625C7.08294 7.4 7.00663 7.43161 6.95037 7.48787C6.89411 7.54413 6.8625 7.62044 6.8625 7.7V9.2H4.4625C4.38294 9.2 4.30663 9.23161 4.25037 9.28787C4.19411 9.34413 4.1625 9.42044 4.1625 9.5V11.3H4.7625V9.8H6.8625V16.7H4.7625V11.9H4.1625V16.6637C3.98419 16.5365 3.77882 16.4523 3.5625 16.4178V15.8C3.56214 15.4819 3.4356 15.1768 3.21063 14.9519C2.98567 14.7269 2.68065 14.6004 2.3625 14.6H1.7625C1.44435 14.6004 1.13933 14.7269 0.914366 14.9519C0.6894 15.1768 0.562857 15.4819 0.5625 15.8V18.2C0.5625 18.2796 0.594107 18.3559 0.650368 18.4121C0.706629 18.4684 0.782935 18.5 0.8625 18.5H18.2625C18.3421 18.5 18.4184 18.4684 18.4746 18.4121C18.5309 18.3559 18.5625 18.2796 18.5625 18.2V15.8C18.5621 15.4819 18.4356 15.1768 18.2106 14.9519C17.9857 14.7269 17.6807 14.6004 17.3625 14.6ZM8.6625 7.1H10.4625V8.3H8.6625V7.1ZM1.1625 15.8C1.16269 15.6409 1.22596 15.4884 1.33844 15.3759C1.45093 15.2635 1.60343 15.2002 1.7625 15.2H2.3625C2.52157 15.2002 2.67407 15.2635 2.78656 15.3759C2.89904 15.4884 2.96231 15.6409 2.9625 15.8V16.4178C2.628 16.4717 2.3236 16.6429 2.10375 16.9007C1.8839 17.1586 1.76294 17.4862 1.7625 17.825V17.9H1.1625V15.8ZM2.3625 17.9V17.825C2.36275 17.6063 2.44975 17.3966 2.60441 17.2419C2.75907 17.0872 2.96877 17.0002 3.1875 17H3.3375C3.55623 17.0002 3.76593 17.0872 3.92059 17.2419C4.07525 17.3966 4.16225 17.6063 4.1625 17.825V17.9H2.3625ZM4.7625 17.3H6.8625V17.9H4.7625V17.3ZM7.4625 8H8.0625V8.6C8.0625 8.67956 8.09411 8.75587 8.15037 8.81213C8.20663 8.86839 8.28294 8.9 8.3625 8.9H10.7625C10.8421 8.9 10.9184 8.86839 10.9746 8.81213C11.0309 8.75587 11.0625 8.67956 11.0625 8.6V8H11.6625V17.9H10.7625V15.8C10.7625 15.7204 10.7309 15.6441 10.6746 15.5879C10.6184 15.5316 10.5421 15.5 10.4625 15.5H8.6625C8.58294 15.5 8.50663 15.5316 8.45037 15.5879C8.39411 15.6441 8.3625 15.7204 8.3625 15.8V17.9H7.4625V8ZM8.9625 17.9V16.1H10.1625V17.9H8.9625ZM12.2625 17.3H14.3625V17.9H12.2625V17.3ZM14.9625 17.9V17.825C14.9627 17.6063 15.0497 17.3966 15.2044 17.2419C15.3591 17.0872 15.5688 17.0002 15.7875 17H15.9375C16.1562 17.0002 16.3659 17.0872 16.5206 17.2419C16.6753 17.3966 16.7623 17.6063 16.7625 17.825V17.9H14.9625ZM17.9625 17.9H17.3625V17.825C17.3621 17.4862 17.2411 17.1586 17.0212 16.9007C16.8014 16.6429 16.497 16.4717 16.1625 16.4178V15.8C16.1627 15.6409 16.226 15.4884 16.3384 15.3759C16.4509 15.2635 16.6034 15.2002 16.7625 15.2H17.3625C17.5216 15.2002 17.6741 15.2635 17.7866 15.3759C17.899 15.4884 17.9623 15.6409 17.9625 15.8V17.9Z" fill="#F86E2D"/>
<path d="M12.8623 13.7H13.7623V14.3H12.8623V13.7Z" fill="#F86E2D"/>
<path d="M12.8623 15.2H13.7623V15.8H12.8623V15.2Z" fill="#F86E2D"/>
<path d="M12.8623 10.7H13.7623V11.3H12.8623V10.7Z" fill="#F86E2D"/>
<path d="M12.8623 12.2H13.7623V12.8H12.8623V12.2Z" fill="#F86E2D"/>
</svg>
