<svg width="51" height="50" viewBox="0 0 51 50" fill="none" xmlns="http://www.w3.org/2000/svg">
<g clip-path="url(#clip0_1_11509)">
<path d="M49.0658 7.89583L26.5658 0.136657C26.0373 -0.044169 25.4636 -0.044169 24.935 0.136657L2.435 7.89583C1.42671 8.24352 0.750039 9.1926 0.75 10.2592V15.8333C0.75 17.214 1.86929 18.3333 3.25 18.3333V20.8333C3.25438 21.889 3.92137 22.8281 4.91667 23.18V40.145C3.92253 40.4853 3.2534 41.4184 3.25 42.4692V44.1667C1.86929 44.1667 0.75 45.286 0.75 46.6667V48.3333C0.75 49.2538 1.49619 50 2.41667 50H49.0833C50.0038 50 50.75 49.2538 50.75 48.3333V46.6667C50.75 45.286 49.6307 44.1667 48.25 44.1667V42.4692C48.2466 41.4184 47.5775 40.4853 46.5833 40.145V23.18C47.5786 22.8281 48.2456 21.889 48.25 20.8333V18.3333C49.6307 18.3333 50.75 17.214 50.75 15.8333V10.2592C50.7501 9.19282 50.0738 8.24381 49.0658 7.89583ZM11.5833 18.3333V20.8333C11.5833 21.2936 11.2102 21.6667 10.75 21.6667H5.75C5.28976 21.6667 4.91667 21.2936 4.91667 20.8333V18.3333H11.5833ZM41.5833 40V23.3333H44.9167V40H41.5833ZM39.9167 23.18V40H11.5833V23.18C12.5786 22.8281 13.2456 21.889 13.25 20.8333V18.3333H38.25V20.8333C38.2544 21.889 38.9214 22.8281 39.9167 23.18ZM9.91667 23.3333V40H6.58333V23.3333H9.91667ZM49.0833 46.6667V48.3333H2.41667V46.6667C2.41667 46.2064 2.78976 45.8333 3.25 45.8333H48.25C48.7102 45.8333 49.0833 46.2064 49.0833 46.6667ZM4.91667 44.1667V42.4692C4.91713 42.0261 5.27615 41.6671 5.71917 41.6667H45.7808C46.2239 41.6671 46.5829 42.0261 46.5833 42.4692V44.1667H4.91667ZM46.5833 20.8333C46.5833 21.2936 46.2102 21.6667 45.75 21.6667H40.75C40.2898 21.6667 39.9167 21.2936 39.9167 20.8333V18.3333H46.5833V20.8333ZM49.0833 15.8333C49.0833 16.2936 48.7102 16.6667 48.25 16.6667H3.25C2.78976 16.6667 2.41667 16.2936 2.41667 15.8333L2.41667 10.2592C2.41644 9.90344 2.64204 9.58679 2.97833 9.47083L25.4783 1.71249C25.5658 1.68247 25.6575 1.66699 25.75 1.66666C25.8424 1.66649 25.9342 1.6817 26.0217 1.71166L48.5217 9.46999C48.858 9.58596 49.0836 9.9026 49.0833 10.2583V15.8333Z" fill="white"/>
<path d="M45.7909 10.2325L26.5409 3.46916C26.0268 3.28836 25.4665 3.28836 24.9525 3.46916L5.71169 10.2325C4.59376 10.633 3.92258 11.7761 4.11751 12.9475C4.31244 14.1189 5.31762 14.9831 6.50502 15H45.0009C46.1884 14.9834 47.1939 14.1195 47.3891 12.9479C47.5842 11.7764 46.9131 10.6331 45.795 10.2325H45.7909ZM45.0009 13.3333H6.50502C6.08058 13.3242 5.74341 12.9736 5.75085 12.5492C5.74662 12.2173 5.95243 11.9189 6.26419 11.805L25.5142 5.04166C25.6701 4.98723 25.8399 4.98723 25.9959 5.04166L45.2459 11.805C45.5571 11.9194 45.7625 12.2176 45.7584 12.5492C45.7619 12.7536 45.6841 12.9511 45.542 13.0982C45.4 13.2452 45.2053 13.3298 45.0009 13.3333Z" fill="white"/>
<path d="M25.75 6.66669C24.3693 6.66669 23.25 7.78598 23.25 9.16669C23.25 10.5474 24.3693 11.6667 25.75 11.6667C27.1307 11.6667 28.25 10.5474 28.25 9.16669C28.25 7.78598 27.1307 6.66669 25.75 6.66669ZM25.75 10C25.2898 10 24.9167 9.62692 24.9167 9.16669C24.9167 8.70645 25.2898 8.33335 25.75 8.33335C26.2102 8.33335 26.5833 8.70645 26.5833 9.16669C26.5833 9.62692 26.2102 10 25.75 10Z" fill="white"/>
<path d="M32.418 20.0001H19.0846C18.1642 20.0001 17.418 20.7463 17.418 21.6667V36.6667C17.418 37.5872 18.1642 38.3334 19.0846 38.3334H32.418C33.3384 38.3334 34.0846 37.5872 34.0846 36.6667V21.6667C34.0846 20.7463 33.3384 20.0001 32.418 20.0001ZM32.418 21.6667V29.6559L30.5063 27.7442C30.1809 27.4189 29.6534 27.4189 29.328 27.7442L25.3346 31.7384L23.8405 30.2442C23.5151 29.9189 22.9876 29.9189 22.6621 30.2442L19.0846 33.8217V21.6667H32.418ZM19.0846 36.6667V36.1784L23.2513 32.0117L24.7455 33.5059L25.9955 34.7559C26.3225 35.0717 26.8422 35.0672 27.1637 34.7457C27.4851 34.4243 27.4896 33.9045 27.1738 33.5776L26.513 32.9167L29.918 29.5117L32.418 32.0117V36.6667H19.0846Z" fill="white"/>
<path d="M23.25 28.3334C24.6307 28.3334 25.75 27.2141 25.75 25.8334C25.75 24.4527 24.6307 23.3334 23.25 23.3334C21.8693 23.3334 20.75 24.4527 20.75 25.8334C20.75 27.2141 21.8693 28.3334 23.25 28.3334ZM23.25 25C23.7102 25 24.0833 25.3731 24.0833 25.8334C24.0833 26.2936 23.7102 26.6667 23.25 26.6667C22.7898 26.6667 22.4167 26.2936 22.4167 25.8334C22.4167 25.3731 22.7898 25 23.25 25Z" fill="white"/>
</g>
<defs>
<clipPath id="clip0_1_11509">
<rect width="50" height="50" fill="white" transform="translate(0.75)"/>
</clipPath>
</defs>
</svg>
