<svg width="51" height="51" viewBox="0 0 51 51" fill="none" xmlns="http://www.w3.org/2000/svg">
<g clip-path="url(#clip0_1_16343)">
<path d="M17.3457 43.1758C15.3264 43.1758 13.6836 44.8186 13.6836 46.8379C13.6836 48.8572 15.3264 50.5 17.3457 50.5C19.365 50.5 21.0078 48.8572 21.0078 46.8379C21.0078 44.8186 19.365 43.1758 17.3457 43.1758ZM17.3457 49.0352C16.1342 49.0352 15.1484 48.0494 15.1484 46.8379C15.1484 45.6264 16.1342 44.6406 17.3457 44.6406C18.5572 44.6406 19.543 45.6264 19.543 46.8379C19.543 48.0494 18.5572 49.0352 17.3457 49.0352Z" fill="white"/>
<path d="M17.3457 47.5703C17.7502 47.5703 18.0781 47.2424 18.0781 46.8379C18.0781 46.4334 17.7502 46.1055 17.3457 46.1055C16.9412 46.1055 16.6133 46.4334 16.6133 46.8379C16.6133 47.2424 16.9412 47.5703 17.3457 47.5703Z" fill="white"/>
<path d="M42.4434 47.5703C42.8479 47.5703 43.1758 47.2424 43.1758 46.8379C43.1758 46.4334 42.8479 46.1055 42.4434 46.1055C42.0389 46.1055 41.7109 46.4334 41.7109 46.8379C41.7109 47.2424 42.0389 47.5703 42.4434 47.5703Z" fill="white"/>
<path d="M42.4434 43.1758C40.424 43.1758 38.7812 44.8186 38.7812 46.8379C38.7812 48.8572 40.424 50.5 42.4434 50.5C44.4627 50.5 46.1055 48.8572 46.1055 46.8379C46.1055 44.8186 44.4627 43.1758 42.4434 43.1758ZM42.4434 49.0352C41.2318 49.0352 40.2461 48.0494 40.2461 46.8379C40.2461 45.6264 41.2318 44.6406 42.4434 44.6406C43.6549 44.6406 44.6406 45.6264 44.6406 46.8379C44.6406 48.0494 43.6549 49.0352 42.4434 49.0352Z" fill="white"/>
<path d="M12.5943 35.9447L17.9256 32.9219H29.8945C31.663 32.9219 33.1428 31.6617 33.4831 29.9922H41.111C43.455 29.9922 45.4975 28.4062 46.0781 26.1354L50.4771 8.9335C50.5331 8.71426 50.4848 8.48154 50.346 8.30283C50.2072 8.12412 49.9938 8.01953 49.7676 8.01953H13.8068L13.4333 6.55908C12.5222 2.9916 9.31211 0.5 5.62695 0.5H2.69727C1.48574 0.5 0.5 1.48574 0.5 2.69727C0.5 3.90879 1.48574 4.89453 2.69727 4.89453H5.62695C7.30244 4.89453 8.76162 6.02637 9.17559 7.64717L14.801 29.6418L10.4279 32.1213C8.82197 33.0305 7.82422 34.7405 7.82422 36.584C7.82422 39.4109 10.1242 41.7109 12.9512 41.7109H45.373C46.5846 41.7109 47.5703 40.7252 47.5703 39.5137C47.5703 38.3021 46.5846 37.3164 45.373 37.3164H12.9512C12.5473 37.3164 12.2188 36.9879 12.2188 36.584C12.2188 36.3208 12.3625 36.076 12.5943 35.9447ZM39.7425 21.6914H35.2416L35.5162 16.3203H40.5665L39.7425 21.6914ZM42.0484 16.3203H47.0762L45.7026 21.6914H41.2244L42.0484 16.3203ZM39.5177 23.1562L38.6937 28.5273H34.8921L35.1667 23.1562H39.5177ZM33.7748 21.6914H29.2663L28.9915 16.3203H34.0494L33.7748 21.6914ZM35.5911 14.8555L35.8657 9.48438H41.6152L40.7912 14.8555H35.5911ZM34.1243 14.8555H28.9165L28.6417 9.48438H34.3989L34.1243 14.8555ZM27.4498 14.8555H24.5507C24.1461 14.8555 23.8183 15.1833 23.8183 15.5879C23.8183 15.9925 24.1461 16.3203 24.5507 16.3203H27.5247L27.7995 21.6914H23.2987L21.4254 9.48438H27.1749L27.4498 14.8555ZM21.8168 21.6914H17.3035L15.9298 16.3203H20.9925L21.8168 21.6914ZM22.0416 23.1562L22.8659 28.5273H19.052L17.6782 23.1562H22.0416ZM24.3479 28.5273L23.5235 23.1562H27.8745L28.1493 28.5273H24.3479ZM29.6161 28.5273L29.3413 23.1562H33.6999L33.4253 28.5273H29.6161ZM44.659 25.7726C44.2442 27.3944 42.7853 28.5273 41.111 28.5273H40.1756L40.9996 23.1562H45.3279L44.659 25.7726ZM47.4508 14.8555H42.2732L43.0973 9.48438H48.8243L47.4508 14.8555ZM19.9435 9.48438L20.7678 14.8555H15.5553L14.1815 9.48438H19.9435ZM5.62695 3.42969H2.69727C2.29336 3.42969 1.96484 3.10117 1.96484 2.69727C1.96484 2.29336 2.29336 1.96484 2.69727 1.96484H5.62695C7.1665 1.96484 8.60391 2.49717 9.74199 3.40566L8.69775 4.45C7.83418 3.80479 6.7666 3.42969 5.62695 3.42969ZM12.9512 38.7812H45.373C45.777 38.7812 46.1055 39.1098 46.1055 39.5137C46.1055 39.9176 45.777 40.2461 45.373 40.2461H12.9512C10.9318 40.2461 9.28906 38.6033 9.28906 36.584C9.28906 35.2673 10.0021 34.0457 11.1501 33.3957L16.0105 30.6398C16.298 30.4768 16.4407 30.1414 16.3588 29.8212L10.5947 7.28447C10.4245 6.61787 10.1273 6.01103 9.73408 5.48545L10.7786 4.44092C11.3486 5.154 11.777 5.99307 12.0141 6.92178L17.7737 29.4413C17.8566 29.7654 18.1486 29.9923 18.4833 29.9923H31.9663C31.664 30.8448 30.8494 31.4571 29.8945 31.4571H17.7324C17.6058 31.4571 17.4813 31.4899 17.3712 31.5524L11.8723 34.6703C11.1825 35.0605 10.7539 35.7939 10.7539 36.584C10.7539 37.7955 11.7396 38.7812 12.9512 38.7812Z" fill="white"/>
</g>
<defs>
<clipPath id="clip0_1_16343">
<rect width="50" height="50" fill="white" transform="translate(0.5 0.5)"/>
</clipPath>
</defs>
</svg>
