<svg width="50" height="50" viewBox="0 0 50 50" fill="none" xmlns="http://www.w3.org/2000/svg">
<g clip-path="url(#clip0_1_11493)">
<path d="M45.8984 5.07812H44.7266V3.12004C44.7266 1.39961 43.327 0 41.6065 0C39.8865 0 38.4869 1.39961 38.4869 3.12004V5.07812H28.1322V3.12004C28.1322 1.39961 26.7326 0 25.0126 0C23.2922 0 21.8925 1.39961 21.8925 3.12004V5.07812H11.5131V3.12004C11.5131 1.39961 10.1135 0 8.39348 0C6.67305 0 5.27344 1.39961 5.27344 3.12004V5.07812H4.10156C1.83983 5.07812 0 6.91795 0 9.17969V45.8984C0 48.1602 1.83983 50 4.10156 50H45.8984C48.1602 50 50 48.1602 50 45.8984V9.17969C50 6.91795 48.1602 5.07812 45.8984 5.07812ZM40.44 3.12004C40.44 2.4765 40.9634 1.95312 41.6065 1.95312C42.2501 1.95312 42.7734 2.4765 42.7734 3.12004V8.59871C42.7734 9.24225 42.2501 9.76562 41.6065 9.76562C40.9634 9.76562 40.44 9.24225 40.44 8.59871V3.12004ZM23.8457 3.12004C23.8457 2.4765 24.369 1.95312 25.0126 1.95312C25.6557 1.95312 26.1791 2.4765 26.1791 3.12004V8.59871C26.1791 9.24225 25.6557 9.76562 25.0126 9.76562C24.369 9.76562 23.8457 9.24225 23.8457 8.59871V3.12004ZM7.22656 3.12004C7.22656 2.4765 7.74994 1.95312 8.39348 1.95312C9.03664 1.95312 9.56001 2.4765 9.56001 3.12004V8.59871C9.56001 9.24225 9.03664 9.76562 8.39348 9.76562C7.74994 9.76562 7.22656 9.24225 7.22656 8.59871V3.12004ZM4.10156 7.03125H5.27344V8.59871C5.27344 10.3191 6.67305 11.7188 8.39348 11.7188C10.1135 11.7188 11.5131 10.3191 11.5131 8.59871V7.03125H21.8925V8.59871C21.8925 10.3191 23.2922 11.7188 25.0126 11.7188C26.7326 11.7188 28.1322 10.3191 28.1322 8.59871V7.03125H38.4869V8.59871C38.4869 10.3191 39.8865 11.7188 41.6065 11.7188C43.327 11.7188 44.7266 10.3191 44.7266 8.59871V7.03125H45.8984C47.0833 7.03125 48.0469 7.99484 48.0469 9.17969V16.7969H29.3945C28.8551 16.7969 28.418 17.234 28.418 17.7734C28.418 18.3128 28.8551 18.75 29.3945 18.75H48.0469V41.9922C48.0469 43.177 47.0833 44.1406 45.8984 44.1406H4.10156C2.91672 44.1406 1.95312 43.177 1.95312 41.9922V18.75H20.6055C21.1449 18.75 21.582 18.3128 21.582 17.7734C21.582 17.234 21.1449 16.7969 20.6055 16.7969H1.95312V9.17969C1.95312 7.99484 2.91672 7.03125 4.10156 7.03125ZM45.8984 48.0469H4.10156C2.91672 48.0469 1.95312 47.0833 1.95312 45.8984V45.4842C2.57835 45.8702 3.31421 46.0938 4.10156 46.0938H45.8984C46.6858 46.0938 47.4216 45.8702 48.0469 45.4842V45.8984C48.0469 47.0833 47.0833 48.0469 45.8984 48.0469Z" fill="white"/>
<path d="M25 18.75C25.2567 18.75 25.5089 18.6455 25.6905 18.4639C25.872 18.2823 25.9766 18.0302 25.9766 17.7734C25.9766 17.5167 25.872 17.2646 25.6905 17.083C25.5089 16.9014 25.2567 16.7969 25 16.7969C24.7433 16.7969 24.4911 16.9014 24.3095 17.083C24.128 17.2646 24.0234 17.5167 24.0234 17.7734C24.0234 18.0302 24.128 18.2823 24.3095 18.4639C24.4911 18.6455 24.7433 18.75 25 18.75Z" fill="white"/>
<path d="M17.5734 27.254C16.7227 27.3776 16.0292 27.9624 15.7637 28.7799C15.4982 29.5974 15.7153 30.4778 16.331 31.0778L19.0409 33.7191L18.4012 37.4488C18.2559 38.296 18.5973 39.136 19.2927 39.6414C19.9881 40.1465 20.893 40.2121 21.6536 39.812L25.0033 38.0511L28.3526 39.812C28.6837 39.9859 29.0415 40.0721 29.3978 40.0721C29.8609 40.0721 30.3206 39.9268 30.7135 39.6414C31.4089 39.136 31.7507 38.296 31.6054 37.4488L30.9657 33.7191L33.6756 31.0778C34.2909 30.4778 34.5084 29.5974 34.2429 28.7799C33.977 27.9624 33.2839 27.3776 32.4332 27.254L28.6883 26.71L27.0136 23.3165C26.6329 22.5459 25.8627 22.0671 25.0033 22.0671C24.1438 22.0671 23.3737 22.5459 22.9933 23.3165L21.3183 26.71L17.5734 27.254ZM22.8423 28.0349L24.7443 24.1809C24.8099 24.0481 24.9213 24.0203 25.0029 24.0203C25.0849 24.0203 25.1963 24.0481 25.2619 24.1809L27.1639 28.0349C27.3062 28.3229 27.5809 28.5228 27.899 28.5689L32.152 29.1869C32.2985 29.2083 32.3596 29.3055 32.3851 29.3833C32.4103 29.4612 32.4179 29.5756 32.3119 29.679L29.2346 32.6789C29.0041 32.9035 28.8992 33.2267 28.9534 33.5433L29.6801 37.7791C29.7049 37.9252 29.6313 38.0133 29.5653 38.0614C29.4989 38.1095 29.3925 38.1526 29.2613 38.0835L25.4572 36.0835C25.315 36.0087 25.1589 35.9713 25.0029 35.9713C24.8469 35.9713 24.6909 36.0087 24.5486 36.0835L20.7446 38.0835C20.6133 38.1526 20.5069 38.1095 20.4405 38.0614C20.3745 38.0133 20.3009 37.9252 20.3257 37.7791L21.0524 33.5433C21.1066 33.2267 21.0017 32.9035 20.7717 32.6789L17.694 29.679C17.5879 29.5756 17.5955 29.4612 17.6211 29.3833C17.6463 29.3055 17.7073 29.2083 17.8538 29.1869L22.1068 28.5689C22.4249 28.5228 22.7 28.3229 22.8423 28.0349Z" fill="white"/>
</g>
<defs>
<clipPath id="clip0_1_11493">
<rect width="50" height="50" fill="white"/>
</clipPath>
</defs>
</svg>
