<svg width="18" height="18" viewBox="0 0 18 18" fill="none" xmlns="http://www.w3.org/2000/svg">
<path d="M6.03068 15.277C5.3078 15.277 4.71973 15.8651 4.71973 16.588C4.71973 17.3109 5.3078 17.8989 6.03068 17.8989C6.75356 17.8989 7.34163 17.3109 7.34163 16.588C7.34163 15.8651 6.75356 15.277 6.03068 15.277ZM6.03068 17.3746C5.59698 17.3746 5.24411 17.0217 5.24411 16.588C5.24411 16.1543 5.59698 15.8014 6.03068 15.8014C6.46438 15.8014 6.81725 16.1543 6.81725 16.588C6.81725 17.0217 6.46438 17.3746 6.03068 17.3746Z" fill="#F86E2D"/>
<path d="M6.03055 16.8497C6.17525 16.8497 6.29255 16.7324 6.29255 16.5877C6.29255 16.443 6.17525 16.3257 6.03055 16.3257C5.88586 16.3257 5.76855 16.443 5.76855 16.5877C5.76855 16.7324 5.88586 16.8497 6.03055 16.8497Z" fill="#F86E2D"/>
<path d="M15.014 16.8497C15.1586 16.8497 15.2759 16.7324 15.2759 16.5877C15.2759 16.443 15.1586 16.3257 15.014 16.3257C14.8693 16.3257 14.752 16.443 14.752 16.5877C14.752 16.7324 14.8693 16.8497 15.014 16.8497Z" fill="#F86E2D"/>
<path d="M15.0151 15.277C14.2922 15.277 13.7041 15.8651 13.7041 16.588C13.7041 17.3109 14.2922 17.8989 15.0151 17.8989C15.7379 17.8989 16.326 17.3109 16.326 16.588C16.326 15.8651 15.7379 15.277 15.0151 15.277ZM15.0151 17.3746C14.5814 17.3746 14.2285 17.0217 14.2285 16.588C14.2285 16.1543 14.5814 15.8014 15.0151 15.8014C15.4488 15.8014 15.8016 16.1543 15.8016 16.588C15.8016 17.0217 15.4488 17.3746 15.0151 17.3746Z" fill="#F86E2D"/>
<path d="M4.3295 12.6884L6.23796 11.6063H10.5226C11.1556 11.6063 11.6854 11.1552 11.8072 10.5575H14.5378C15.3769 10.5575 16.1081 9.9898 16.3159 9.17691L17.8907 3.019C17.9107 2.94052 17.8934 2.85721 17.8437 2.79324C17.7941 2.72926 17.7176 2.69182 17.6367 2.69182H4.76354L4.62983 2.16901C4.30366 0.891937 3.15453 0 1.83533 0H0.786571C0.352873 0 0 0.352873 0 0.786571C0 1.22027 0.352873 1.57314 0.786571 1.57314H1.83533C2.43512 1.57314 2.95747 1.97831 3.10566 2.55852L5.11942 10.4321L3.55397 11.3197C2.97908 11.6452 2.6219 12.2573 2.6219 12.9172C2.6219 13.9292 3.44525 14.7526 4.45724 14.7526H16.0635C16.4972 14.7526 16.8501 14.3997 16.8501 13.966C16.8501 13.5323 16.4972 13.1794 16.0635 13.1794H4.45724C4.31265 13.1794 4.19505 13.0618 4.19505 12.9172C4.19505 12.823 4.24651 12.7354 4.3295 12.6884ZM14.0479 7.58604H12.4367L12.535 5.66331H14.3429L14.0479 7.58604ZM14.8734 5.66331H16.6732L16.1815 7.58604H14.5784L14.8734 5.66331ZM13.9674 8.11042L13.6725 10.0332H12.3116L12.4099 8.11042H13.9674ZM11.9116 7.58604H10.2977L10.1993 5.66331H12.0099L11.9116 7.58604ZM12.5618 5.13893L12.6601 3.2162H14.7183L14.4233 5.13893H12.5618ZM12.0367 5.13893H10.1725L10.0741 3.2162H12.135L12.0367 5.13893ZM9.64742 5.13893H8.6096C8.46476 5.13893 8.34741 5.25629 8.34741 5.40112C8.34741 5.54596 8.46476 5.66331 8.6096 5.66331H9.67423L9.7726 7.58604H8.16143L7.49081 3.2162H9.54901L9.64742 5.13893ZM7.63093 7.58604H6.01528L5.52351 5.66331H7.33584L7.63093 7.58604ZM7.7114 8.11042L8.00649 10.0332H6.64118L6.14941 8.11042H7.7114ZM8.53699 10.0332L8.2419 8.11042H9.79945L9.89783 10.0332H8.53699ZM10.4229 10.0332L10.3245 8.11042H11.8848L11.7865 10.0332H10.4229ZM15.8079 9.047C15.6594 9.62759 15.1372 10.0332 14.5378 10.0332H14.203L14.4979 8.11042H16.0474L15.8079 9.047ZM16.8073 5.13893H14.9539L15.2489 3.2162H17.299L16.8073 5.13893ZM6.96032 3.2162L7.2554 5.13893H5.38945L4.89768 3.2162H6.96032ZM1.83533 1.04876H0.786571C0.641982 1.04876 0.524381 0.93116 0.524381 0.786571C0.524381 0.641982 0.641982 0.524381 0.786571 0.524381H1.83533C2.38646 0.524381 2.90101 0.714941 3.30842 1.04016L2.93461 1.41401C2.62547 1.18304 2.2433 1.04876 1.83533 1.04876ZM4.45724 13.7038H16.0635C16.2081 13.7038 16.3257 13.8214 16.3257 13.966C16.3257 14.1106 16.2081 14.2282 16.0635 14.2282H4.45724C3.73436 14.2282 3.14628 13.6401 3.14628 12.9172C3.14628 12.4459 3.40152 12.0086 3.81249 11.7759L5.55242 10.7894C5.65534 10.731 5.70642 10.6109 5.67709 10.4963L3.61368 2.42869C3.55275 2.19006 3.44637 1.97283 3.30559 1.78468L3.67951 1.41076C3.88356 1.66603 4.03689 1.96639 4.12177 2.29885L6.1836 10.3603C6.21328 10.4764 6.31781 10.5576 6.43761 10.5576H11.2642C11.156 10.8628 10.8644 11.0819 10.5226 11.0819H6.16882C6.12347 11.0819 6.07894 11.0937 6.0395 11.1161L4.07101 12.2322C3.8241 12.3719 3.67067 12.6344 3.67067 12.9172C3.67067 13.3509 4.02354 13.7038 4.45724 13.7038Z" fill="#F86E2D"/>
</svg>
