<svg width="51" height="50" viewBox="0 0 51 50" fill="none" xmlns="http://www.w3.org/2000/svg">
<path d="M47.1821 15.605C47.1486 15.566 47.1141 15.528 47.0786 15.49C47.0481 15.4575 47.0181 15.4245 46.9861 15.393L45.5111 13.918C45.5721 13.868 45.6311 13.815 45.6876 13.759L46.0426 13.404C46.9441 12.5025 46.9441 11.0355 46.0426 10.134L40.6156 4.70645C40.1796 4.27095 39.5991 4.03095 38.9806 4.03095C38.3621 4.03095 37.7816 4.27095 37.3456 4.70645L36.9906 5.06145C36.9341 5.11795 36.8811 5.17695 36.8316 5.23795L35.3566 3.76295C35.3251 3.73145 35.2921 3.70095 35.2596 3.67045C35.2221 3.63545 35.1836 3.60095 35.1451 3.56695C34.4071 2.92595 33.4721 2.57495 32.4801 2.57495C31.4886 2.57495 30.5531 2.92595 29.8151 3.56695C29.7761 3.60095 29.7381 3.63545 29.7001 3.67045C29.6676 3.70095 29.6351 3.73145 29.6031 3.76295L28.7561 4.60995C27.1741 6.19595 27.1741 8.77645 28.7571 10.3635L31.8931 13.499L30.7676 14.625C28.6546 12.844 26.4316 11.3315 24.2556 11.3315C23.5481 11.3315 22.8716 11.4895 22.2356 11.804L21.2256 10.7935C21.5956 10.3845 21.5841 9.75345 21.1896 9.35895L17.5696 5.73895C17.3741 5.54345 17.1091 5.43345 16.8326 5.43345C16.5561 5.43345 16.2911 5.54345 16.0951 5.73895L5.64356 16.191C5.23656 16.5985 5.23656 17.258 5.64356 17.6655L9.26356 21.2889C9.45906 21.4844 9.72406 21.5944 10.0011 21.5944C10.2776 21.5944 10.5426 21.4844 10.7381 21.2889L11.6066 20.42L12.9686 21.7824C13.0161 22.0259 13.0611 22.2704 13.1051 22.5084C13.4876 24.5875 13.8826 26.7299 16.1086 29.2875L14.2481 31.148L11.1111 28.0105C10.3451 27.2444 9.32306 26.8225 8.23406 26.8225C7.14506 26.8225 6.12356 27.245 5.35706 28.0105L4.51406 28.854C4.48106 28.8864 4.45006 28.9205 4.41906 28.954C4.38356 28.992 4.34906 29.03 4.31506 29.069C2.99556 30.592 2.99556 32.8695 4.31506 34.3925C4.34906 34.431 4.38356 34.4694 4.41906 34.5075C4.45056 34.541 4.48156 34.5749 4.51406 34.6074L5.98856 36.082C5.92956 36.1305 5.87306 36.1819 5.81856 36.236L5.46406 36.5905C5.02806 37.0265 4.78806 37.6069 4.78806 38.2254C4.78806 38.8439 5.02806 39.4249 5.46406 39.8605L10.8901 45.2874C11.3261 45.7234 11.9066 45.9635 12.5251 45.9635C13.1436 45.9635 13.7241 45.7234 14.1601 45.2874L14.5151 44.9329C14.5691 44.8784 14.6206 44.8214 14.6691 44.763L16.1421 46.236C16.1751 46.269 16.2091 46.3004 16.2431 46.332C16.2811 46.367 16.3191 46.402 16.3581 46.4355C17.0946 47.0745 18.0281 47.4249 19.0191 47.4249C20.0096 47.4249 20.9446 47.075 21.6821 46.4355C21.7211 46.402 21.7591 46.367 21.7971 46.332C21.8306 46.3004 21.8646 46.269 21.8976 46.2365L22.7406 45.3935C24.3271 43.807 24.3271 41.2254 22.7406 39.639L19.5711 36.4695L21.4051 34.637L22.5546 35.7859C23.0706 36.3029 23.7186 36.5765 24.4286 36.5765H24.4291C25.7356 36.576 27.0846 35.6095 27.6356 34.278C27.7076 34.1045 27.7626 33.931 27.8021 33.7575C29.0426 33.716 30.3081 32.7935 30.8361 31.5335C30.8856 31.4155 30.9276 31.297 30.9611 31.179C30.9861 31.179 31.0116 31.1795 31.0366 31.1795C32.3106 31.1795 33.6251 30.2385 34.1621 28.9415C34.3466 28.4955 34.4211 28.045 34.3891 27.614C35.3596 27.306 36.2406 26.517 36.6541 25.517C37.0966 24.447 36.8941 23.3434 36.1136 22.5639L34.7951 21.246L37.2186 18.8225L40.3856 21.989C41.1521 22.7555 42.1736 23.177 43.2626 23.177C44.3516 23.177 45.3736 22.7549 46.1381 21.99L46.9851 21.146C47.0166 21.114 47.0471 21.0809 47.0776 21.0485C47.1131 21.011 47.1476 20.9729 47.1811 20.934C48.5061 19.4104 48.5061 17.129 47.1821 15.605ZM38.4656 6.53595L38.8206 6.18095C38.8741 6.12745 38.9371 6.11595 38.9811 6.11595C39.0246 6.11595 39.0876 6.12745 39.1416 6.18095L44.5686 11.6085C44.6556 11.6955 44.6556 11.8425 44.5686 11.9295L44.2141 12.2845C44.1601 12.338 44.0971 12.3495 44.0531 12.3495C44.0086 12.3495 43.9441 12.3375 43.8901 12.2845L38.4656 6.85695C38.4121 6.80295 38.4006 6.74045 38.4006 6.69645C38.4006 6.65245 38.4116 6.58995 38.4656 6.53595ZM13.0406 43.458L12.6856 43.813C12.6321 43.867 12.5686 43.8779 12.5251 43.8779C12.4816 43.8779 12.4186 43.867 12.3646 43.813L6.93756 38.3855C6.88406 38.3315 6.87256 38.2684 6.87256 38.2249C6.87256 38.1819 6.88356 38.1185 6.93756 38.0644L7.29256 37.7099C7.34606 37.6564 7.40956 37.645 7.45306 37.645C7.49656 37.645 7.55956 37.6559 7.61356 37.7099L13.0406 43.1375C13.0941 43.191 13.1056 43.254 13.1056 43.298C13.1056 43.341 13.0941 43.4044 13.0406 43.458ZM7.85506 16.9285L16.8331 7.95045L18.9791 10.0965L10.0011 19.0765L7.85506 16.9285ZM21.2656 41.1139C22.0391 41.8874 22.0391 43.146 21.2656 43.9194L20.4226 44.7625C20.0501 45.135 19.5516 45.34 19.0191 45.34C18.4866 45.34 17.9891 45.135 17.6176 44.7625L5.98856 33.1329C5.21506 32.3599 5.21506 31.101 5.98856 30.3279L6.83156 29.485C7.20406 29.112 7.70206 28.9074 8.23406 28.9074C8.76606 28.9074 9.26456 29.1125 9.63656 29.4845L21.2656 41.1139ZM19.9301 33.1635L18.0966 34.9954L16.9636 33.8624L15.7231 32.6214L17.5556 30.7889L19.9301 33.1635ZM34.7276 24.7205C34.5181 25.226 33.9511 25.67 33.5136 25.67C33.3776 25.67 33.2741 25.6245 33.1661 25.5165C32.7591 25.1095 32.0996 25.1105 31.6926 25.5175C31.2851 25.9244 31.2861 26.586 31.6931 26.993L32.1586 27.458C32.2351 27.5345 32.4146 27.714 32.2361 28.1445C32.0266 28.6505 31.4661 29.0949 31.0371 29.0949C30.9016 29.0949 30.7916 29.0459 30.6846 28.9384L30.3266 28.5774C30.3261 28.5774 30.3261 28.577 30.3256 28.5765L30.3121 28.563C29.9056 28.1565 29.2471 28.156 28.8391 28.5615C28.4316 28.967 28.4296 29.6264 28.8346 30.0345L28.8421 30.042C28.9171 30.1185 29.0936 30.2975 28.9136 30.728C28.7026 31.232 28.1426 31.6744 27.7161 31.6744C27.5806 31.6744 27.4706 31.6255 27.3606 31.5149L27.0946 31.249C26.6871 30.8415 26.0271 30.8415 25.6201 31.249C25.2131 31.6555 25.2126 32.316 25.6201 32.7234L25.6226 32.726C25.7026 32.806 25.9036 33.014 25.7101 33.4809C25.4871 34.0194 24.8886 34.492 24.4291 34.492C24.2771 34.492 24.1541 34.4375 24.0301 34.313L22.1531 32.437C22.1496 32.4335 22.1471 32.4294 22.1436 32.4264L18.4961 28.781L18.3851 28.6705C15.9031 26.1865 15.5576 24.307 15.1571 22.131C15.0931 21.7819 15.0261 21.4209 14.9501 21.0555C14.9086 20.8565 14.8101 20.674 14.6666 20.5305L13.0826 18.9465L19.7551 12.2715L21.3391 13.8565C21.7041 14.2215 22.2811 14.264 22.6956 13.958C23.1881 13.594 23.6986 13.417 24.2556 13.417C25.7516 13.417 27.5836 14.682 29.2886 16.1055L28.7906 16.6035L28.7326 16.6615C28.7076 16.6865 28.6846 16.7125 28.6626 16.739C28.6481 16.7565 28.6356 16.775 28.6226 16.793C28.6156 16.8025 28.6081 16.812 28.6016 16.8215C28.5861 16.845 28.5716 16.8695 28.5586 16.8945C28.5556 16.899 28.5526 16.9045 28.5496 16.909C28.5356 16.935 28.5236 16.9615 28.5121 16.988C28.5101 16.9925 28.5076 16.9965 28.5061 17.001C28.4956 17.027 28.4866 17.053 28.4781 17.0795C28.4766 17.0855 28.4736 17.091 28.4716 17.097C28.4641 17.1215 28.4591 17.146 28.4531 17.17C28.4511 17.179 28.4486 17.1875 28.4466 17.1965C28.4426 17.219 28.4396 17.2415 28.4366 17.265C28.4351 17.2755 28.4331 17.2865 28.4321 17.2975C28.4296 17.323 28.4291 17.3485 28.4281 17.3735C28.4281 17.386 28.4276 17.398 28.4276 17.4105C28.4276 17.4405 28.4291 17.471 28.4321 17.501C28.4331 17.5095 28.4346 17.5175 28.4361 17.526C28.4391 17.551 28.4421 17.577 28.4471 17.6015C28.4486 17.608 28.4506 17.614 28.4516 17.62C28.4576 17.6475 28.4641 17.674 28.4721 17.7015C28.4726 17.705 28.4746 17.7085 28.4756 17.712C28.4846 17.741 28.4946 17.7695 28.5061 17.7975C28.5071 17.7995 28.5076 17.8015 28.5086 17.803C28.5206 17.8325 28.5346 17.861 28.5496 17.89C28.5506 17.8915 28.5516 17.893 28.5526 17.8945C28.5676 17.923 28.5841 17.95 28.6021 17.9765C28.6061 17.9825 28.6111 17.988 28.6146 17.994C28.6301 18.016 28.6456 18.0375 28.6626 18.0585C28.6841 18.0855 28.7076 18.111 28.7326 18.136L34.6391 24.04C34.7186 24.118 34.9016 24.3005 34.7276 24.7205ZM35.7446 17.349L33.3211 19.7724L30.9451 17.3985L30.9446 17.398L31.5726 16.7695L33.3676 14.973L33.3686 14.972L35.7451 17.3485L35.7446 17.349ZM45.5131 19.6714L44.6661 20.5154C44.2936 20.8879 43.7951 21.0925 43.2631 21.0925C42.7311 21.0925 42.2331 20.8874 41.8601 20.5149L37.9656 16.6215C37.9626 16.618 37.9596 16.6145 37.9561 16.611L34.1056 12.76C34.0986 12.753 34.0916 12.748 34.0846 12.741L30.2316 8.88895C29.4601 8.11495 29.4601 6.85595 30.2311 6.08295L31.0771 5.23695C31.4501 4.86495 31.9481 4.65995 32.4801 4.65995C33.0121 4.65995 33.5106 4.86545 33.8831 5.23745L45.5121 16.867C46.2851 17.641 46.2851 18.899 45.5131 19.6714Z" fill="white"/>
</svg>
