<svg width="18" height="18" viewBox="0 0 18 18" fill="none" xmlns="http://www.w3.org/2000/svg">
<path d="M18 5.86564V3.76147C18 3.58421 17.9109 3.4188 17.763 3.32124C17.6149 3.22364 17.4279 3.20695 17.2649 3.27677L9.88211 6.44083C9.68822 6.52394 9.5625 6.71459 9.5625 6.92553V14.1991C9.1092 13.9284 8.55763 13.781 7.98047 13.781C7.30368 13.781 6.66158 13.983 6.17252 14.3498C5.64585 14.7448 5.34375 15.3064 5.34375 15.8904C5.34375 16.4744 5.64585 17.0359 6.17252 17.4309C6.66158 17.7977 7.30368 17.9997 7.98047 17.9997C8.65726 17.9997 9.29936 17.7977 9.78841 17.4309C10.3151 17.0359 10.6172 16.4744 10.6172 15.8904V9.38263L16.9453 6.67057V11.0351C16.492 10.7643 15.9404 10.6169 15.3633 10.6169C14.6865 10.6169 14.0444 10.8189 13.5553 11.1858C13.0287 11.5808 12.7266 12.1423 12.7266 12.7263C12.7266 13.3103 13.0287 13.8718 13.5553 14.2669C14.0444 14.6337 14.6865 14.8357 15.3633 14.8357C16.0401 14.8357 16.6822 14.6337 17.1712 14.2669C17.6979 13.8718 18 13.3103 18 12.7263C18 12.7263 18 5.86747 18 5.86564ZM7.98047 16.9451C7.1229 16.9451 6.39844 16.4621 6.39844 15.8904C6.39844 15.3187 7.1229 14.8357 7.98047 14.8357C8.83804 14.8357 9.5625 15.3187 9.5625 15.8904C9.5625 16.4621 8.83804 16.9451 7.98047 16.9451ZM10.6172 8.23517V7.27326L16.9453 4.5612V5.52311L10.6172 8.23517ZM15.3633 13.781C14.5057 13.781 13.7812 13.298 13.7812 12.7263C13.7812 12.1546 14.5057 11.6716 15.3633 11.6716C16.2208 11.6716 16.9453 12.1546 16.9453 12.7263C16.9453 13.298 16.2208 13.781 15.3633 13.781Z" fill="#F86E2D"/>
<path d="M7.38281 5.8007C7.38281 6.481 6.73246 7.28534 6.4826 7.5372C6.27666 7.74315 6.27666 8.07703 6.4826 8.28297C6.68851 8.48892 7.02243 8.48895 7.22837 8.28297C7.35216 8.15922 8.43754 7.03809 8.43754 5.80073C8.43754 4.80929 7.8698 3.54957 6.75004 2.05659C5.94619 0.984853 5.15327 0.188669 5.1191 0.154498C4.79004 -0.174776 4.21875 0.0562358 4.21875 0.527259V7.80088C3.76545 7.5301 3.21388 7.38273 2.63672 7.38273C1.95993 7.38273 1.31783 7.58473 0.828773 7.95156C0.302098 8.34657 0 8.90809 0 9.4921C0 10.0761 0.302098 10.6376 0.828773 11.0326C1.31783 11.3995 1.95993 11.6015 2.63672 11.6015C3.31351 11.6015 3.95561 11.3995 4.44466 11.0326C4.97134 10.6376 5.27344 10.0761 5.27344 9.4921V1.89259C6.22445 3.02451 7.38281 4.66997 7.38281 5.8007ZM2.63672 10.5468C1.77915 10.5468 1.05469 10.0638 1.05469 9.4921C1.05469 8.92039 1.77915 8.43741 2.63672 8.43741C3.49429 8.43741 4.21875 8.92039 4.21875 9.4921C4.21875 10.0638 3.49429 10.5468 2.63672 10.5468Z" fill="#F86E2D"/>
</svg>
