<svg width="19" height="19" viewBox="0 0 19 19" fill="none" xmlns="http://www.w3.org/2000/svg">
<path d="M9.5 4.44568C6.7473 4.44568 4.50781 6.68517 4.50781 9.43787C4.50781 12.1906 6.7473 14.4301 9.5 14.4301C12.2527 14.4301 14.4922 12.1906 14.4922 9.43787C14.4922 6.68517 12.2527 4.44568 9.5 4.44568ZM9.5 13.7269C7.135 13.7269 5.21094 11.8029 5.21094 9.43787C5.21094 7.07287 7.135 5.1488 9.5 5.1488C11.865 5.1488 13.7891 7.07287 13.7891 9.43787C13.7891 11.8029 11.865 13.7269 9.5 13.7269Z" fill="#F86E2D"/>
<path d="M18.3134 0.478563C18.1985 0.417602 18.0594 0.424949 17.9516 0.497723C16.2257 1.66389 15.1953 3.60367 15.1953 5.68664V10.2482C15.1953 10.7375 15.3859 11.1975 15.7318 11.5435L16.3906 12.2023V17.3828C16.3906 17.9644 16.8638 18.4375 17.4453 18.4375C18.0269 18.4375 18.5 17.9644 18.5 17.3828V0.789063C18.5 0.65902 18.4282 0.539594 18.3134 0.478563ZM17.7969 17.3828C17.7969 17.5767 17.6392 17.7344 17.4453 17.7344C17.2515 17.7344 17.0937 17.5767 17.0937 17.3828V12.0566C17.0937 11.9634 17.0567 11.874 16.9908 11.8081L16.229 11.0463C16.0158 10.8331 15.8984 10.5497 15.8984 10.2482V5.68664C15.8984 4.07016 16.5974 2.55092 17.7969 1.50263V17.3828Z" fill="#F86E2D"/>
<path d="M8.69374 6.6494C8.61752 6.47084 8.41087 6.3879 8.23235 6.46409C7.03939 6.97336 6.26855 8.14051 6.26855 9.43753C6.26855 9.63167 6.42595 9.7891 6.62012 9.7891C6.81429 9.7891 6.97168 9.63167 6.97168 9.43753C6.97168 8.42261 7.57489 7.50928 8.50843 7.11079C8.68699 7.03457 8.76996 6.82799 8.69374 6.6494Z" fill="#F86E2D"/>
<path d="M9.49978 6.20618L9.48203 6.20621C9.28786 6.20751 9.13152 6.36596 9.13282 6.56013C9.13412 6.75349 9.29127 6.90934 9.48435 6.90934C9.48512 6.90934 9.48597 6.90934 9.48674 6.90934L9.49978 6.9093C9.69395 6.9093 9.85134 6.75191 9.85134 6.55774C9.85134 6.36357 9.69395 6.20618 9.49978 6.20618Z" fill="#F86E2D"/>
<path d="M14.3737 4.81381C13.7526 4.15934 13.0204 3.64437 12.1976 3.28325C11.3455 2.90932 10.438 2.71973 9.50025 2.71973C8.42869 2.71973 7.40438 2.96463 6.45579 3.44767C6.28279 3.53577 6.21392 3.74745 6.30202 3.92049C6.39015 4.09346 6.60183 4.16229 6.77487 4.07423C7.62368 3.64202 8.54063 3.42285 9.50025 3.42285C11.1665 3.42285 12.7162 4.08871 13.8637 5.29784C13.9328 5.37068 14.0257 5.40739 14.1188 5.40739C14.2057 5.40739 14.2927 5.37536 14.3607 5.31081C14.5015 5.17715 14.5073 4.95464 14.3737 4.81381Z" fill="#F86E2D"/>
<path d="M14.7148 13.1071C14.5625 12.9867 14.3414 13.0125 14.221 13.1648C13.0717 14.6185 11.3509 15.4522 9.50007 15.4522C8.34167 15.4522 7.21713 15.1223 6.24801 14.4982C6.08481 14.393 5.8672 14.4402 5.76208 14.6034C5.65696 14.7666 5.70407 14.9842 5.8673 15.0893C6.95019 15.7867 8.20639 16.1553 9.50007 16.1553C11.5673 16.1553 13.489 15.2243 14.7726 13.6009C14.893 13.4486 14.8672 13.2275 14.7148 13.1071Z" fill="#F86E2D"/>
<path d="M5.27977 13.7236L5.27461 13.7177C5.27274 13.7154 5.27088 13.7131 5.26894 13.7109C5.14389 13.5623 4.92213 13.5433 4.77359 13.6683C4.62506 13.7934 4.606 14.0151 4.73109 14.1637L4.7345 14.1677L4.73468 14.1676C4.7384 14.1723 4.74227 14.177 4.74628 14.1817C4.81582 14.2627 4.91418 14.3042 5.01318 14.3042C5.09425 14.3042 5.17571 14.2763 5.24202 14.2194C5.38932 14.0929 5.40623 13.871 5.27977 13.7236Z" fill="#F86E2D"/>
<path d="M4.85937 0.4375C4.66521 0.4375 4.50781 0.594895 4.50781 0.789062V4.58594H3.87472C3.87475 4.58397 3.875 4.58207 3.875 4.58007V0.789062C3.875 0.594895 3.71761 0.4375 3.52344 0.4375C3.32927 0.4375 3.17187 0.594895 3.17187 0.789062V4.58007C3.17187 4.58204 3.17216 4.58397 3.17216 4.58594H2.53878C2.53882 4.58397 2.53906 4.58207 2.53906 4.58007V0.789062C2.53906 0.594895 2.38167 0.4375 2.1875 0.4375C1.99333 0.4375 1.83594 0.594895 1.83594 0.789062V4.58007C1.83594 4.58204 1.83622 4.58397 1.83622 4.58594H1.20312V0.789062C1.20312 0.594895 1.04573 0.4375 0.851562 0.4375C0.657395 0.4375 0.5 0.594895 0.5 0.789062V5.07812C0.5 5.94051 1.02327 6.71883 1.80078 7.05528V17.3828C1.80078 17.9644 2.27391 18.4375 2.85547 18.4375C3.43702 18.4375 3.91016 17.9644 3.91016 17.3828V7.05528C4.68767 6.71883 5.21094 5.94051 5.21094 5.07812V0.789062C5.21094 0.594895 5.05354 0.4375 4.85937 0.4375ZM3.461 6.47102C3.3106 6.51447 3.20703 6.65218 3.20703 6.80876V17.3828C3.20703 17.5767 3.04932 17.7344 2.85547 17.7344C2.66162 17.7344 2.50391 17.5767 2.50391 17.3828V6.80876C2.50391 6.65218 2.40037 6.51447 2.24994 6.47102C1.7021 6.31271 1.30139 5.84246 1.21902 5.28906H4.49189C4.40955 5.84246 4.00884 6.31271 3.461 6.47102Z" fill="#F86E2D"/>
</svg>
