<svg width="19" height="19" viewBox="0 0 19 19" fill="none" xmlns="http://www.w3.org/2000/svg">
<path d="M17.9267 5.24219C17.9133 5.22653 17.8994 5.21128 17.8852 5.19603C17.8729 5.18299 17.8609 5.16974 17.848 5.1571L17.2561 4.56512C17.2806 4.54505 17.3042 4.52378 17.3269 4.50131L17.4694 4.35883C17.8312 3.99702 17.8312 3.40825 17.4694 3.04644L15.2913 0.868156C15.1163 0.693372 14.8833 0.59705 14.6351 0.59705C14.3869 0.59705 14.1539 0.693372 13.9789 0.868156L13.8364 1.01063C13.8138 1.03331 13.7925 1.05699 13.7726 1.08147L13.1806 0.48949C13.168 0.476848 13.1548 0.464607 13.1417 0.452366C13.1267 0.438319 13.1112 0.424472 13.0958 0.410827C12.7996 0.153566 12.4243 0.0126953 12.0262 0.0126953C11.6282 0.0126953 11.2528 0.153566 10.9566 0.410827C10.9409 0.424472 10.9257 0.438319 10.9104 0.452366C10.8974 0.464607 10.8844 0.476848 10.8715 0.48949L10.5316 0.829427C9.89666 1.46596 9.89666 2.50162 10.532 3.13855L11.7906 4.39696L11.3389 4.84887C10.4908 4.13408 9.59866 3.52705 8.72534 3.52705C8.44139 3.52705 8.16988 3.59046 7.91463 3.71668L7.50927 3.31113C7.65777 3.14698 7.65315 2.89373 7.49482 2.7354L6.04197 1.28254C5.9635 1.20408 5.85715 1.15993 5.74618 1.15993C5.6352 1.15993 5.52885 1.20408 5.45019 1.28254L1.25556 5.47737C1.09221 5.64092 1.09221 5.9056 1.25556 6.06915L2.70842 7.52341C2.78688 7.60188 2.89323 7.64602 3.00441 7.64602C3.11538 7.64602 3.22173 7.60188 3.30019 7.52341L3.64876 7.17465L4.19539 7.72148C4.21445 7.8192 4.23251 7.91733 4.25017 8.01285C4.40369 8.84724 4.56222 9.70712 5.4556 10.7336L4.70891 11.4802L3.4499 10.221C3.14247 9.91361 2.7323 9.74424 2.29523 9.74424C1.85817 9.74424 1.4482 9.91381 1.14057 10.221L0.802241 10.5596C0.788996 10.5726 0.776555 10.5863 0.764113 10.5997C0.749866 10.615 0.736019 10.6302 0.722374 10.6459C0.192803 11.2571 0.192803 12.1712 0.722374 12.7824C0.736019 12.7979 0.749866 12.8133 0.764113 12.8286C0.776755 12.842 0.789197 12.8556 0.802241 12.8687L1.39402 13.4605C1.37034 13.4799 1.34766 13.5006 1.32579 13.5223L1.18352 13.6646C1.00853 13.8395 0.912209 14.0725 0.912209 14.3207C0.912209 14.569 1.00853 14.8022 1.18352 14.9769L3.3612 17.155C3.53618 17.33 3.76916 17.4263 4.01739 17.4263C4.26562 17.4263 4.4986 17.33 4.67359 17.155L4.81606 17.0128C4.83774 16.9909 4.85841 16.968 4.87787 16.9445L5.46905 17.5357C5.48229 17.5489 5.49594 17.5616 5.50958 17.5742C5.52484 17.5883 5.54009 17.6023 5.55574 17.6158C5.85133 17.8722 6.22598 18.0129 6.62371 18.0129C7.02124 18.0129 7.39649 17.8724 7.69248 17.6158C7.70814 17.6023 7.72339 17.5883 7.73864 17.5742C7.75208 17.5616 7.76573 17.5489 7.77897 17.5359L8.11731 17.1976C8.75403 16.5608 8.75403 15.5248 8.11731 14.888L6.84525 13.616L7.58131 12.8805L8.04266 13.3417C8.24975 13.5492 8.50982 13.6589 8.79477 13.6589H8.79497C9.31933 13.6587 9.86074 13.2708 10.0819 12.7364C10.1108 12.6668 10.1328 12.5972 10.1487 12.5276C10.6466 12.5109 11.1545 12.1407 11.3664 11.635C11.3862 11.5876 11.4031 11.54 11.4165 11.4927C11.4266 11.4927 11.4368 11.4929 11.4468 11.4929C11.9582 11.4929 12.4857 11.1152 12.7012 10.5947C12.7753 10.4157 12.8052 10.2349 12.7923 10.0619C13.1818 9.93829 13.5354 9.62163 13.7014 9.22029C13.879 8.79085 13.7977 8.34797 13.4845 8.03513L12.9553 7.50616L13.9279 6.5335L15.199 7.80435C15.5066 8.11198 15.9166 8.28115 16.3537 8.28115C16.7907 8.28115 17.2009 8.11178 17.5077 7.80476L17.8476 7.46602C17.8603 7.45318 17.8725 7.43994 17.8848 7.42689C17.899 7.41184 17.9129 7.39659 17.9263 7.38094C18.4581 6.76949 18.4581 5.85383 17.9267 5.24219ZM14.4284 1.60241L14.5709 1.45994C14.5924 1.43846 14.6176 1.43385 14.6353 1.43385C14.6528 1.43385 14.678 1.43846 14.6997 1.45994L16.8778 3.63822C16.9127 3.67314 16.9127 3.73213 16.8778 3.76705L16.7355 3.90953C16.7139 3.931 16.6886 3.93562 16.6709 3.93562C16.6531 3.93562 16.6272 3.9308 16.6055 3.90953L14.4284 1.73124C14.4069 1.70957 14.4023 1.68449 14.4023 1.66683C14.4023 1.64917 14.4067 1.62408 14.4284 1.60241ZM4.22429 16.4208L4.08181 16.5632C4.06034 16.5849 4.03485 16.5893 4.01739 16.5893C3.99994 16.5893 3.97465 16.5849 3.95298 16.5632L1.77489 14.385C1.75342 14.3633 1.74881 14.338 1.74881 14.3205C1.74881 14.3033 1.75322 14.2778 1.77489 14.2561L1.91737 14.1139C1.93884 14.0924 1.96433 14.0878 1.98179 14.0878C1.99924 14.0878 2.02453 14.0922 2.0462 14.1139L4.22429 16.2921C4.24576 16.3136 4.25037 16.3389 4.25037 16.3566C4.25037 16.3738 4.24576 16.3993 4.22429 16.4208ZM2.14313 5.77336L5.74638 2.17011L6.60766 3.03139L3.00441 6.63544L2.14313 5.77336ZM7.52533 15.48C7.83576 15.7905 7.83576 16.2956 7.52533 16.606L7.18699 16.9443C7.03749 17.0938 6.83743 17.1761 6.62371 17.1761C6.41 17.1761 6.21033 17.0938 6.06123 16.9443L1.39402 12.2769C1.08358 11.9667 1.08358 11.4614 1.39402 11.1511L1.73235 10.8128C1.88185 10.6631 2.08172 10.581 2.29523 10.581C2.50875 10.581 2.70882 10.6633 2.85812 10.8126L7.52533 15.48ZM6.98933 12.2892L6.25347 13.0244L5.79875 12.5697L5.30089 12.0716L6.03635 11.3362L6.98933 12.2892ZM12.9282 8.90062C12.8441 9.1035 12.6166 9.28169 12.441 9.28169C12.3864 9.28169 12.3448 9.26343 12.3015 9.22009C12.1382 9.05674 11.8735 9.05714 11.7101 9.22049C11.5466 9.38384 11.547 9.64932 11.7103 9.81267L11.8971 9.9993C11.9279 10.03 11.9999 10.102 11.9283 10.2748C11.8442 10.4779 11.6192 10.6563 11.447 10.6563C11.3927 10.6563 11.3485 10.6366 11.3056 10.5935L11.1619 10.4486C11.1617 10.4486 11.1617 10.4484 11.1615 10.4482L11.1561 10.4428C10.9929 10.2796 10.7286 10.2794 10.5649 10.4422C10.4013 10.6049 10.4005 10.8696 10.5631 11.0334L10.5661 11.0364C10.5962 11.0671 10.667 11.1389 10.5948 11.3117C10.5101 11.514 10.2854 11.6916 10.1142 11.6916C10.0598 11.6916 10.0157 11.6719 9.97151 11.6275L9.86475 11.5208C9.7012 11.3572 9.43632 11.3572 9.27297 11.5208C9.10962 11.6839 9.10942 11.949 9.27297 12.1126L9.27397 12.1136C9.30608 12.1457 9.38675 12.2292 9.30909 12.4166C9.21959 12.6327 8.97939 12.8223 8.79497 12.8223C8.73397 12.8223 8.6846 12.8005 8.63484 12.7505L7.88152 11.9976C7.88011 11.9962 7.87911 11.9946 7.8777 11.9934L6.41381 10.5303L6.36926 10.4859C5.37313 9.48899 5.23446 8.73467 5.07373 7.86134C5.04804 7.72128 5.02115 7.57639 4.99065 7.4297C4.97399 7.34983 4.93446 7.27659 4.87687 7.219L4.24114 6.58327L6.9191 3.90431L7.55482 4.54044C7.70131 4.68693 7.93289 4.70399 8.09925 4.58117C8.29691 4.43509 8.50179 4.36405 8.72534 4.36405C9.32575 4.36405 10.061 4.87175 10.7453 5.44306L10.5454 5.64293L10.5221 5.6662C10.5121 5.67624 10.5029 5.68667 10.4941 5.69731C10.4882 5.70433 10.4832 5.71176 10.478 5.71898C10.4752 5.72279 10.4722 5.72661 10.4696 5.73042C10.4634 5.73985 10.4575 5.74968 10.4523 5.75972C10.4511 5.76152 10.4499 5.76373 10.4487 5.76554C10.4431 5.77597 10.4383 5.78661 10.4337 5.79724C10.4328 5.79905 10.4318 5.80065 10.4312 5.80246C10.427 5.81289 10.4234 5.82333 10.42 5.83396C10.4194 5.83637 10.4182 5.83858 10.4174 5.84099C10.4144 5.85082 10.4124 5.86065 10.41 5.87029C10.4092 5.8739 10.4082 5.87731 10.4074 5.88092C10.4058 5.88995 10.4046 5.89898 10.4034 5.90841C10.4028 5.91263 10.4019 5.91704 10.4015 5.92146C10.4005 5.93169 10.4003 5.94193 10.3999 5.95196C10.3999 5.95698 10.3997 5.96179 10.3997 5.96681C10.3997 5.97885 10.4003 5.99109 10.4015 6.00313C10.4019 6.00654 10.4025 6.00975 10.4032 6.01316C10.4044 6.0232 10.4056 6.03363 10.4076 6.04346C10.4082 6.04607 10.409 6.04848 10.4094 6.05089C10.4118 6.06193 10.4144 6.07256 10.4176 6.0836C10.4178 6.085 10.4186 6.08641 10.419 6.08781C10.4226 6.09945 10.4266 6.11089 10.4312 6.12213C10.4316 6.12293 10.4318 6.12373 10.4322 6.12434C10.4371 6.13617 10.4427 6.14761 10.4487 6.15925C10.4491 6.15985 10.4495 6.16046 10.4499 6.16106C10.4559 6.1725 10.4625 6.18333 10.4698 6.19397C10.4714 6.19638 10.4734 6.19858 10.4748 6.20099C10.481 6.20982 10.4872 6.21845 10.4941 6.22688C10.5027 6.23771 10.5121 6.24795 10.5221 6.25798L12.8927 8.62751C12.9246 8.65881 12.998 8.73206 12.9282 8.90062ZM13.3364 5.94213L12.3637 6.91478L11.4101 5.96199L11.4099 5.96179L11.662 5.70955L12.3824 4.98854L12.3828 4.98814L13.3366 5.94193L13.3364 5.94213ZM17.2569 6.87424L16.9169 7.21298C16.7674 7.36248 16.5674 7.44455 16.3539 7.44455C16.1403 7.44455 15.9405 7.36228 15.7908 7.21278L14.2277 5.65015C14.2265 5.64875 14.2253 5.64734 14.2239 5.64594L12.6786 4.10037C12.6758 4.09756 12.6729 4.09555 12.6701 4.09274L11.1238 2.54677C10.8141 2.23613 10.8141 1.73084 11.1236 1.4206L11.4631 1.08107C11.6128 0.931769 11.8127 0.849494 12.0262 0.849494C12.2397 0.849494 12.4398 0.93197 12.5893 1.08127L17.2565 5.74868C17.5667 6.05932 17.5667 6.56421 17.2569 6.87424Z" fill="#F86E2D"/>
</svg>
