<svg width="48" height="48" viewBox="0 0 48 48" fill="none" xmlns="http://www.w3.org/2000/svg">
<path d="M20.0938 30.25H21.6562V31.8125H20.0938V30.25Z" fill="white"/>
<path d="M23.2188 30.25H24.7812V31.8125H23.2188V30.25Z" fill="white"/>
<path d="M26.3438 30.25H27.9062V31.8125H26.3438V30.25Z" fill="white"/>
<path d="M20.0938 33.375H21.6562V34.9375H20.0938V33.375Z" fill="white"/>
<path d="M23.2188 33.375H24.7812V34.9375H23.2188V33.375Z" fill="white"/>
<path d="M26.3438 33.375H27.9062V34.9375H26.3438V33.375Z" fill="white"/>
<path d="M20.0938 36.5H21.6562V38.0625H20.0938V36.5Z" fill="white"/>
<path d="M23.2188 36.5H24.7812V38.0625H23.2188V36.5Z" fill="white"/>
<path d="M26.3438 36.5H27.9062V38.0625H26.3438V36.5Z" fill="white"/>
<path d="M20.0938 24H21.6562V25.5625H20.0938V24Z" fill="white"/>
<path d="M23.2188 24H24.7812V25.5625H23.2188V24Z" fill="white"/>
<path d="M26.3438 24H27.9062V25.5625H26.3438V24Z" fill="white"/>
<path d="M20.0938 27.125H21.6562V28.6875H20.0938V27.125Z" fill="white"/>
<path d="M23.2188 27.125H24.7812V28.6875H23.2188V27.125Z" fill="white"/>
<path d="M26.3438 27.125H27.9062V28.6875H26.3438V27.125Z" fill="white"/>
<path d="M16.37 7.05073L19.6185 10.2171L18.8516 14.6881C18.8269 14.8318 18.843 14.9795 18.8979 15.1146C18.9528 15.2496 19.0444 15.3666 19.1624 15.4523C19.2803 15.538 19.4199 15.589 19.5653 15.5995C19.7107 15.61 19.8561 15.5796 19.9852 15.5118L24 13.4008L28.0153 15.5118C28.1443 15.5796 28.2897 15.61 28.4352 15.5995C28.5806 15.589 28.7201 15.538 28.8381 15.4523C28.956 15.3666 29.0476 15.2496 29.1026 15.1146C29.1575 14.9795 29.1735 14.8318 29.1489 14.6881L28.382 10.2171L31.6308 7.05073C31.7352 6.94897 31.809 6.82004 31.844 6.6785C31.8789 6.53696 31.8736 6.38847 31.8285 6.24982C31.7835 6.11117 31.7005 5.98789 31.589 5.89393C31.4776 5.79996 31.3421 5.73906 31.1978 5.71811L26.7086 5.06586L24.701 0.997895C24.6365 0.867167 24.5367 0.757096 24.4129 0.680132C24.2891 0.603167 24.1462 0.562378 24.0004 0.562378C23.8546 0.562378 23.7118 0.603167 23.588 0.680132C23.4641 0.757096 23.3643 0.867167 23.2998 0.997895L21.2922 5.06586L16.8028 5.71811C16.6585 5.73906 16.523 5.79996 16.4115 5.89393C16.3 5.98789 16.2171 6.11117 16.172 6.24982C16.127 6.38847 16.1216 6.53696 16.1566 6.6785C16.1915 6.82004 16.2654 6.94897 16.3698 7.05073H16.37ZM21.9234 6.55268C22.0487 6.53445 22.1677 6.48602 22.2702 6.41156C22.3727 6.33709 22.4555 6.23883 22.5115 6.12524L24 3.10903L25.4889 6.12563C25.5449 6.23922 25.6278 6.33748 25.7302 6.41195C25.8327 6.48641 25.9517 6.53484 26.0771 6.55307L29.4062 7.03676L26.9981 9.385C26.9074 9.47343 26.8396 9.58257 26.8004 9.70304C26.7613 9.8235 26.752 9.95167 26.7735 10.0765L27.3421 13.3921L24.3645 11.8267C24.2524 11.7678 24.1276 11.7369 24.0009 11.7369C23.8742 11.7369 23.7495 11.7678 23.6373 11.8267L20.6597 13.3921L21.2283 10.0765C21.2498 9.95167 21.2405 9.8235 21.2014 9.70304C21.1623 9.58257 21.0944 9.47343 21.0037 9.385L18.5943 7.03706L21.9234 6.55268Z" fill="white"/>
<path d="M31.0695 13.2668C31.0244 13.4054 31.0191 13.5539 31.054 13.6954C31.0889 13.8369 31.1628 13.9658 31.2671 14.0675L33.4303 16.1761L32.9197 19.1536C32.895 19.2973 32.911 19.445 32.966 19.58C33.0209 19.7151 33.1125 19.8321 33.2304 19.9178C33.3484 20.0035 33.488 20.0544 33.6334 20.065C33.7788 20.0755 33.9242 20.0451 34.0533 19.9772L36.7272 18.5715L39.4011 19.9772C39.5302 20.045 39.6756 20.0754 39.821 20.0649C39.9664 20.0544 40.1059 20.0034 40.2239 19.9177C40.3418 19.832 40.4334 19.715 40.4883 19.58C40.5432 19.445 40.5593 19.2973 40.5346 19.1536L40.0239 16.1761L42.1872 14.0675C42.2916 13.9658 42.3654 13.8369 42.4003 13.6953C42.4353 13.5538 42.4299 13.4053 42.3849 13.2666C42.3398 13.128 42.2569 13.0047 42.1454 12.9107C42.0339 12.8168 41.8984 12.7559 41.7541 12.7349L38.7647 12.3008L37.4277 9.59167C37.3632 9.46097 37.2634 9.35092 37.1396 9.27397C37.0158 9.19703 36.8729 9.15625 36.7271 9.15625C36.5814 9.15625 36.4385 9.19703 36.3147 9.27397C36.1909 9.35092 36.0911 9.46097 36.0266 9.59167L34.6896 12.3008L31.7001 12.7351C31.5559 12.7561 31.4204 12.817 31.3089 12.9109C31.1975 13.0049 31.1145 13.1281 31.0695 13.2668ZM35.3207 13.7879C35.4461 13.7697 35.5651 13.7212 35.6676 13.6468C35.7701 13.5724 35.853 13.4741 35.909 13.3605L36.7272 11.7027L37.5454 13.3605C37.6014 13.4741 37.6842 13.5723 37.7867 13.6468C37.8892 13.7212 38.0082 13.7696 38.1335 13.7879L39.9629 14.0537L38.6392 15.3441C38.5485 15.4325 38.4807 15.5417 38.4416 15.6621C38.4024 15.7826 38.3932 15.9108 38.4146 16.0356L38.7271 17.8577L37.0908 16.9973C36.9787 16.9384 36.8539 16.9076 36.7272 16.9076C36.6006 16.9076 36.4758 16.9384 36.3637 16.9973L34.7274 17.8577L35.0399 16.0356C35.0613 15.9108 35.0521 15.7826 35.0129 15.6621C34.9738 15.5417 34.906 15.4325 34.8153 15.3441L33.4913 14.0537L35.3207 13.7879Z" fill="white"/>
<path d="M39.8028 21.7694C39.6586 21.7904 39.5231 21.8513 39.4117 21.9453C39.3002 22.0393 39.2173 22.1625 39.1723 22.3011C39.1272 22.4398 39.1219 22.5882 39.1568 22.7298C39.1917 22.8713 39.2656 23.0002 39.3699 23.1019L40.761 24.458L40.4326 26.373C40.408 26.5167 40.424 26.6644 40.4789 26.7995C40.5338 26.9345 40.6254 27.0515 40.7434 27.1372C40.8613 27.2228 41.0009 27.2738 41.1462 27.2844C41.2916 27.2949 41.4371 27.2645 41.5661 27.1967L43.2856 26.2927L45.0052 27.1967C45.1342 27.2645 45.2796 27.2948 45.425 27.2843C45.5704 27.2738 45.7099 27.2228 45.8278 27.1371C45.9457 27.0514 46.0373 26.9344 46.0922 26.7994C46.1472 26.6644 46.1632 26.5167 46.1386 26.373L45.8102 24.4584L47.2015 23.1016C47.3058 22.9998 47.3797 22.8709 47.4146 22.7293C47.4495 22.5878 47.4441 22.4394 47.3991 22.3007C47.354 22.1621 47.2711 22.0388 47.1597 21.9449C47.0482 21.8509 46.9127 21.79 46.7685 21.769L44.846 21.4902L43.9866 19.7481C43.9221 19.6174 43.8223 19.5073 43.6985 19.4304C43.5747 19.3534 43.4318 19.3126 43.286 19.3126C43.1403 19.3126 42.9974 19.3534 42.8736 19.4304C42.7498 19.5073 42.65 19.6174 42.5855 19.7481L41.7261 21.4902L39.8028 21.7694ZM42.9452 22.5499L43.2861 21.8591L43.6271 22.5499C43.6832 22.6634 43.7659 22.7616 43.8682 22.836C43.9706 22.9105 44.0895 22.9589 44.2147 22.9772L44.9771 23.0881L44.4255 23.6258C44.3348 23.7142 44.2669 23.8234 44.2278 23.9439C44.1887 24.0643 44.1794 24.1925 44.2009 24.3174L44.3312 25.0767L43.6492 24.7182C43.5371 24.6592 43.4124 24.6284 43.2857 24.6284C43.159 24.6284 43.0343 24.6592 42.9222 24.7182L42.2402 25.0767L42.3704 24.3174C42.3918 24.1925 42.3826 24.0643 42.3435 23.9439C42.3043 23.8234 42.2365 23.7142 42.1458 23.6258L41.5942 23.0881L42.3566 22.9772C42.482 22.9591 42.6012 22.9107 42.7037 22.8362C42.8062 22.7618 42.8891 22.6635 42.9452 22.5499Z" fill="white"/>
<path d="M5.81282 14.0677L7.9761 16.1763L7.46536 19.1537C7.44071 19.2974 7.45675 19.4451 7.51167 19.5801C7.56659 19.7152 7.65819 19.8321 7.77612 19.9178C7.89404 20.0035 8.0336 20.0545 8.17899 20.065C8.32438 20.0755 8.46982 20.0452 8.59885 19.9773L11.2728 18.5716L13.9467 19.9773C14.0757 20.0452 14.2212 20.0756 14.3666 20.0651C14.512 20.0546 14.6516 20.0036 14.7695 19.9179C14.8875 19.8322 14.9791 19.7152 15.034 19.5802C15.0889 19.4451 15.105 19.2974 15.0803 19.1537L14.5697 16.1763L16.7328 14.0677C16.8372 13.9659 16.9111 13.837 16.946 13.6954C16.981 13.5539 16.9756 13.4054 16.9306 13.2668C16.8855 13.1281 16.8026 13.0048 16.6911 12.9109C16.5796 12.8169 16.4441 12.756 16.2998 12.7351L13.3104 12.3008L11.9734 9.59179C11.9088 9.46109 11.809 9.35104 11.6852 9.2741C11.5614 9.19715 11.4186 9.15637 11.2728 9.15637C11.1271 9.15637 10.9842 9.19715 10.8604 9.2741C10.7366 9.35104 10.6368 9.46109 10.5723 9.59179L9.23528 12.3008L6.24612 12.7351C6.10185 12.756 5.96631 12.8169 5.85485 12.9109C5.74339 13.0048 5.66044 13.1281 5.61539 13.2668C5.57034 13.4054 5.56498 13.5539 5.59992 13.6954C5.63486 13.837 5.70871 13.9659 5.81311 14.0677H5.81282ZM9.86643 13.7879C9.99177 13.7697 10.1108 13.7212 10.2133 13.6468C10.3157 13.5724 10.3986 13.4741 10.4546 13.3605L11.2728 11.7027L12.0909 13.3605C12.147 13.4741 12.2299 13.5724 12.3323 13.6468C12.4348 13.7213 12.5539 13.7697 12.6792 13.7879L14.5086 14.0537L13.1849 15.3441C13.0942 15.4326 13.0264 15.5417 12.9872 15.6622C12.9481 15.7826 12.9389 15.9108 12.9603 16.0356L13.2728 17.8577L11.6365 16.9974C11.5243 16.9385 11.3996 16.9077 11.2729 16.9077C11.1463 16.9077 11.0215 16.9385 10.9094 16.9974L9.27346 17.8574L9.58596 16.0353C9.60738 15.9105 9.59813 15.7823 9.559 15.6619C9.51987 15.5414 9.45204 15.4323 9.36135 15.3438L8.03704 14.0537L9.86643 13.7879Z" fill="white"/>
<path d="M0.798517 23.1016L2.18963 24.458L1.86141 26.373C1.83675 26.5167 1.85278 26.6645 1.9077 26.7995C1.96262 26.9345 2.05424 27.0515 2.17218 27.1372C2.29013 27.2229 2.4297 27.2739 2.57511 27.2844C2.72052 27.2949 2.86596 27.2645 2.995 27.1967L4.71453 26.2927L6.43406 27.1967C6.56309 27.2644 6.70851 27.2948 6.85387 27.2842C6.99923 27.2737 7.13874 27.2227 7.25664 27.137C7.37454 27.0513 7.46612 26.9344 7.52103 26.7994C7.57593 26.6644 7.59199 26.5167 7.56736 26.373L7.23895 24.458L8.63006 23.1016C8.73443 22.9998 8.80826 22.8709 8.84319 22.7294C8.87812 22.5879 8.87276 22.4394 8.82772 22.3008C8.78268 22.1621 8.69976 22.0389 8.58833 21.9449C8.47689 21.8509 8.34139 21.79 8.19715 21.769L6.27459 21.4902L5.41522 19.7481C5.3507 19.6174 5.2509 19.5073 5.12709 19.4304C5.00328 19.3534 4.86041 19.3126 4.71463 19.3126C4.56885 19.3126 4.42598 19.3534 4.30217 19.4304C4.17836 19.5073 4.07856 19.6174 4.01404 19.7481L3.15467 21.4902L1.23152 21.7694C1.08735 21.7904 0.95193 21.8514 0.840555 21.9453C0.729181 22.0392 0.646293 22.1624 0.601254 22.301C0.556215 22.4396 0.550819 22.588 0.585677 22.7294C0.620536 22.8709 0.694258 22.9998 0.798517 23.1016ZM3.78524 22.9772C3.91057 22.959 4.0296 22.9106 4.13207 22.8362C4.23453 22.7617 4.31736 22.6635 4.37342 22.5499L4.71443 21.8591L5.05535 22.5499C5.11141 22.6635 5.19424 22.7617 5.2967 22.8362C5.39917 22.9106 5.5182 22.959 5.64354 22.9772L6.40594 23.0881L5.85438 23.6258C5.76367 23.7142 5.69583 23.8234 5.6567 23.9439C5.61757 24.0643 5.60833 24.1925 5.62977 24.3174L5.75994 25.0767L5.07801 24.7182C4.9659 24.6592 4.84114 24.6284 4.71448 24.6284C4.58783 24.6284 4.46307 24.6592 4.35096 24.7182L3.66902 25.0767L3.7993 24.3174C3.82074 24.1925 3.81149 24.0643 3.77236 23.9439C3.73323 23.8234 3.66539 23.7142 3.57469 23.6258L3.02303 23.0881L3.78524 22.9772Z" fill="white"/>
<path d="M13.0625 27.125H15.4062V28.6875H13.0625V27.125Z" fill="white"/>
<path d="M13.0625 31.0312H15.4062V32.5938H13.0625V31.0312Z" fill="white"/>
<path d="M13.0625 34.9375H15.4062V36.5H13.0625V34.9375Z" fill="white"/>
<path d="M13.0625 38.8438H15.4062V40.4062H13.0625V38.8438Z" fill="white"/>
<path d="M44.3125 37.2812H42.75C41.9215 37.2822 41.1272 37.6117 40.5413 38.1976C39.9555 38.7834 39.6259 39.5777 39.625 40.4062V42.015C39.0617 42.1049 38.5269 42.3241 38.0625 42.6555V38.8438H36.5V42.75H31.0312V24.7812H36.5V37.2812H38.0625V24C38.0625 23.7928 37.9802 23.5941 37.8337 23.4476C37.6872 23.3011 37.4884 23.2188 37.2812 23.2188H31.0312V19.3125C31.0312 19.1053 30.9489 18.9066 30.8024 18.7601C30.6559 18.6136 30.4572 18.5312 30.25 18.5312H27.9062V16.9688C27.9062 16.7615 27.8239 16.5628 27.6774 16.4163C27.5309 16.2698 27.3322 16.1875 27.125 16.1875H20.875C20.6678 16.1875 20.4691 16.2698 20.3226 16.4163C20.1761 16.5628 20.0938 16.7615 20.0938 16.9688V18.5312H17.75C17.5428 18.5312 17.3441 18.6136 17.1976 18.7601C17.0511 18.9066 16.9688 19.1053 16.9688 19.3125V23.2188H10.7188C10.5115 23.2188 10.3128 23.3011 10.1663 23.4476C10.0198 23.5941 9.9375 23.7928 9.9375 24V28.6875H11.5V24.7812H16.9688V42.75H11.5V30.25H9.9375V42.6555C9.47315 42.3241 8.93832 42.1049 8.375 42.015V40.4062C8.37407 39.5777 8.04453 38.7834 7.45868 38.1976C6.87283 37.6117 6.07852 37.2822 5.25 37.2812H3.6875C2.85898 37.2822 2.06467 37.6117 1.47882 38.1976C0.892969 38.7834 0.563431 39.5777 0.5625 40.4062V46.6562C0.5625 46.8635 0.64481 47.0622 0.791323 47.2087C0.937836 47.3552 1.13655 47.4375 1.34375 47.4375H46.6562C46.8634 47.4375 47.0622 47.3552 47.2087 47.2087C47.3552 47.0622 47.4375 46.8635 47.4375 46.6562V40.4062C47.4366 39.5777 47.107 38.7834 46.5212 38.1976C45.9353 37.6117 45.141 37.2822 44.3125 37.2812ZM21.6562 17.75H26.3438V20.875H21.6562V17.75ZM2.125 40.4062C2.12549 39.992 2.29027 39.5949 2.58319 39.3019C2.87611 39.009 3.27325 38.8442 3.6875 38.8438H5.25C5.66425 38.8442 6.06139 39.009 6.35431 39.3019C6.64723 39.5949 6.81201 39.992 6.8125 40.4062V42.015C5.9414 42.1555 5.1487 42.6014 4.57617 43.2728C4.00365 43.9442 3.68864 44.7973 3.6875 45.6797V45.875H2.125V40.4062ZM5.25 45.875V45.6797C5.25065 45.1101 5.47721 44.564 5.87998 44.1612C6.28275 43.7585 6.82884 43.5319 7.39844 43.5312H7.78906C8.35866 43.5319 8.90475 43.7585 9.30752 44.1612C9.71029 44.564 9.93685 45.1101 9.9375 45.6797V45.875H5.25ZM11.5 44.3125H16.9688V45.875H11.5V44.3125ZM18.5312 20.0938H20.0938V21.6562C20.0938 21.8635 20.1761 22.0622 20.3226 22.2087C20.4691 22.3552 20.6678 22.4375 20.875 22.4375H27.125C27.3322 22.4375 27.5309 22.3552 27.6774 22.2087C27.8239 22.0622 27.9062 21.8635 27.9062 21.6562V20.0938H29.4688V45.875H27.125V40.4062C27.125 40.199 27.0427 40.0003 26.8962 39.8538C26.7497 39.7073 26.551 39.625 26.3438 39.625H21.6562C21.449 39.625 21.2503 39.7073 21.1038 39.8538C20.9573 40.0003 20.875 40.199 20.875 40.4062V45.875H18.5312V20.0938ZM22.4375 45.875V41.1875H25.5625V45.875H22.4375ZM31.0312 44.3125H36.5V45.875H31.0312V44.3125ZM38.0625 45.875V45.6797C38.0631 45.1101 38.2897 44.564 38.6925 44.1612C39.0952 43.7585 39.6413 43.5319 40.2109 43.5312H40.6016C41.1712 43.5319 41.7173 43.7585 42.12 44.1612C42.5228 44.564 42.7494 45.1101 42.75 45.6797V45.875H38.0625ZM45.875 45.875H44.3125V45.6797C44.3114 44.7973 43.9964 43.9442 43.4238 43.2728C42.8513 42.6014 42.0586 42.1555 41.1875 42.015V40.4062C41.188 39.992 41.3528 39.5949 41.6457 39.3019C41.9386 39.009 42.3358 38.8442 42.75 38.8438H44.3125C44.7267 38.8442 45.1239 39.009 45.4168 39.3019C45.7097 39.5949 45.8745 39.992 45.875 40.4062V45.875Z" fill="white"/>
<path d="M32.5938 34.9375H34.9375V36.5H32.5938V34.9375Z" fill="white"/>
<path d="M32.5938 38.8438H34.9375V40.4062H32.5938V38.8438Z" fill="white"/>
<path d="M32.5938 27.125H34.9375V28.6875H32.5938V27.125Z" fill="white"/>
<path d="M32.5938 31.0312H34.9375V32.5938H32.5938V31.0312Z" fill="white"/>
</svg>
