<svg width="51" height="51" viewBox="0 0 51 51" fill="none" xmlns="http://www.w3.org/2000/svg">
<g clip-path="url(#clip0_1_16249)">
<path d="M25.5 11.6328C17.8536 11.6328 11.6328 17.8536 11.6328 25.5C11.6328 33.1464 17.8536 39.3672 25.5 39.3672C33.1464 39.3672 39.3672 33.1464 39.3672 25.5C39.3672 17.8536 33.1464 11.6328 25.5 11.6328ZM25.5 37.4141C18.9306 37.4141 13.5859 32.0694 13.5859 25.5C13.5859 18.9306 18.9306 13.5859 25.5 13.5859C32.0694 13.5859 37.4141 18.9306 37.4141 25.5C37.4141 32.0694 32.0694 37.4141 25.5 37.4141Z" fill="white"/>
<path d="M49.9815 0.614063C49.6625 0.444727 49.276 0.465137 48.9767 0.667285C44.1825 3.90664 41.3203 9.29492 41.3203 15.081V27.7521C41.3203 29.1111 41.8496 30.3889 42.8105 31.3499L44.6406 33.18V47.5703C44.6406 49.1857 45.9549 50.5 47.5703 50.5C49.1857 50.5 50.5 49.1857 50.5 47.5703V1.47656C50.5 1.11533 50.3006 0.783594 49.9815 0.614063ZM48.5469 47.5703C48.5469 48.1088 48.1088 48.5469 47.5703 48.5469C47.0318 48.5469 46.5938 48.1088 46.5938 47.5703V32.7754C46.5938 32.5164 46.4908 32.2681 46.3077 32.0849L44.1916 29.9688C43.5995 29.3767 43.2734 28.5895 43.2734 27.7521V15.081C43.2734 10.5907 45.2149 6.37061 48.5469 3.45869V47.5703Z" fill="white"/>
<path d="M23.2601 17.7552C23.0483 17.2592 22.4743 17.0288 21.9784 17.2405C18.6646 18.6551 16.5234 21.8972 16.5234 25.5C16.5234 26.0393 16.9606 26.4766 17.5 26.4766C18.0394 26.4766 18.4766 26.0393 18.4766 25.5C18.4766 22.6808 20.1521 20.1438 22.7453 19.0369C23.2413 18.8251 23.4718 18.2513 23.2601 17.7552Z" fill="white"/>
<path d="M25.5001 16.5229L25.4508 16.523C24.9114 16.5267 24.4771 16.9668 24.4807 17.5062C24.4843 18.0433 24.9209 18.4762 25.4572 18.4762C25.4593 18.4762 25.4617 18.4762 25.4638 18.4762L25.5001 18.4761C26.0394 18.4761 26.4766 18.0389 26.4766 17.4995C26.4766 16.9602 26.0394 16.5229 25.5001 16.5229Z" fill="white"/>
<path d="M39.0377 12.6562C37.3123 10.8383 35.2785 9.40781 32.9928 8.40469C30.626 7.36602 28.1051 6.83936 25.5003 6.83936C22.5237 6.83936 19.6784 7.51963 17.0434 8.86143C16.5629 9.10615 16.3716 9.69414 16.6163 10.1748C16.8611 10.6553 17.4491 10.8465 17.9298 10.6019C20.2876 9.40127 22.8346 8.79248 25.5003 8.79248C30.1288 8.79248 34.4334 10.6421 37.621 14.0008C37.813 14.2031 38.071 14.3051 38.3295 14.3051C38.5709 14.3051 38.8127 14.2161 39.0015 14.0368C39.3927 13.6655 39.4089 13.0475 39.0377 12.6562Z" fill="white"/>
<path d="M39.9856 35.6932C39.5624 35.3589 38.9484 35.4306 38.6139 35.8537C35.4212 39.8918 30.6414 42.2076 25.5001 42.2076C22.2823 42.2076 19.1586 41.2912 16.4666 39.5574C16.0133 39.2653 15.4088 39.3963 15.1168 39.8496C14.8248 40.3031 14.9557 40.9074 15.4091 41.1994C18.4171 43.1367 21.9066 44.1606 25.5001 44.1606C31.2423 44.1606 36.5805 41.5744 40.1459 37.0649C40.4804 36.642 40.4087 36.0278 39.9856 35.6932Z" fill="white"/>
<path d="M13.7771 37.4066L13.7628 37.3901C13.7576 37.3838 13.7524 37.3774 13.7471 37.3711C13.3997 36.9584 12.7837 36.9057 12.3711 37.2529C11.9585 37.6004 11.9056 38.2163 12.253 38.629L12.2625 38.6402L12.263 38.6399C12.2733 38.6529 12.2841 38.666 12.2952 38.6789C12.4884 38.9039 12.7616 39.0193 13.0366 39.0193C13.2618 39.0193 13.4881 38.9419 13.6723 38.7838C14.0814 38.4324 14.1284 37.8159 13.7771 37.4066Z" fill="white"/>
<path d="M12.6094 0.5C12.07 0.5 11.6328 0.937207 11.6328 1.47656V12.0234H9.87422C9.87432 12.018 9.875 12.0127 9.875 12.0071V1.47656C9.875 0.937207 9.43779 0.5 8.89844 0.5C8.35908 0.5 7.92188 0.937207 7.92188 1.47656V12.0071C7.92188 12.0126 7.92266 12.018 7.92266 12.0234H6.16328C6.16338 12.018 6.16406 12.0127 6.16406 12.0071V1.47656C6.16406 0.937207 5.72686 0.5 5.1875 0.5C4.64814 0.5 4.21094 0.937207 4.21094 1.47656V12.0071C4.21094 12.0126 4.21172 12.018 4.21172 12.0234H2.45312V1.47656C2.45312 0.937207 2.01592 0.5 1.47656 0.5C0.937207 0.5 0.5 0.937207 0.5 1.47656V13.3906C0.5 15.7861 1.95352 17.9481 4.11328 18.8827V47.5703C4.11328 49.1857 5.42754 50.5 7.04297 50.5C8.6584 50.5 9.97266 49.1857 9.97266 47.5703V18.8827C12.1324 17.9481 13.5859 15.7861 13.5859 13.3906V1.47656C13.5859 0.937207 13.1487 0.5 12.6094 0.5ZM8.725 17.2598C8.30723 17.3805 8.01953 17.763 8.01953 18.198V47.5703C8.01953 48.1088 7.58145 48.5469 7.04297 48.5469C6.50449 48.5469 6.06641 48.1088 6.06641 47.5703V18.198C6.06641 17.763 5.77881 17.3805 5.36094 17.2598C3.83916 16.82 2.72607 15.5138 2.49727 13.9766H11.5886C11.3599 15.5138 10.2468 16.82 8.725 17.2598Z" fill="white"/>
</g>
<defs>
<clipPath id="clip0_1_16249">
<rect width="50" height="50" fill="white" transform="translate(0.5 0.5)"/>
</clipPath>
</defs>
</svg>
