<svg width="25" height="22" viewBox="0 0 25 22" fill="none" xmlns="http://www.w3.org/2000/svg">
<path d="M7.93 7.48812L6.25 9.16514L12.25 15.1545L24.25 3.1758L22.57 1.49878L12.25 11.8004L7.93 7.48812Z" fill="#F86E2D"/>
<path d="M11.05 19.4668C6.37 19.4668 2.65 15.7534 2.65 11.0817C2.65 6.41003 6.37 2.69664 11.05 2.69664C12.49 2.69664 13.93 3.056 15.25 3.77472L16.45 1.73835C14.77 0.780051 12.97 0.300903 11.05 0.300903C5.05 0.300903 0.25 5.09238 0.25 11.0817C0.25 17.0711 5.05 21.8625 11.05 21.8625C17.05 21.8625 21.85 17.0711 21.85 11.0817H19.45C19.45 15.7534 15.73 19.4668 11.05 19.4668Z" fill="#F86E2D"/>
</svg>
