<svg width="21" height="21" viewBox="0 0 21 21" fill="none" xmlns="http://www.w3.org/2000/svg">
<g clip-path="url(#clip0_1_20505)">
<path d="M11.2812 9.00195H9.71875V10.5645H11.2812V9.00195Z" fill="#F86E2D"/>
<path d="M18.1562 1.58008H17.2188V0.0175781H15.6562V1.58008H5.34375V0.0175781H3.78125V1.58008H2.84375C1.55141 1.58008 0.5 2.63148 0.5 3.92383V17.6738C0.5 18.9662 1.55141 20.0176 2.84375 20.0176H8.03906H8.15625H10.8813C10.3412 19.5717 9.8707 19.0445 9.48824 18.4551H8.15625H8.03906H2.84375C2.41297 18.4551 2.0625 18.1046 2.0625 17.6738V7.36133H18.9375V8.92383V9.00195V9.00582C19.5269 9.38828 20.0541 9.85879 20.5 10.3989V9.00195V8.92383V3.92383C20.5 2.63148 19.4486 1.58008 18.1562 1.58008ZM18.9375 5.79883H2.0625V3.92383C2.0625 3.49305 2.41297 3.14258 2.84375 3.14258H3.78125V4.70508H5.34375V3.14258H15.6562V4.70508H17.2188V3.14258H18.1562C18.587 3.14258 18.9375 3.49305 18.9375 3.92383V5.79883Z" fill="#F86E2D"/>
<path d="M15.2266 9.4707C12.3188 9.4707 9.95312 11.8364 9.95312 14.7441C9.95312 17.6519 12.3188 20.0176 15.2266 20.0176C18.1343 20.0176 20.5 17.6519 20.5 14.7441C20.5 11.8364 18.1343 9.4707 15.2266 9.4707ZM15.2266 18.4551C13.1804 18.4551 11.5156 16.7904 11.5156 14.7441C11.5156 12.6979 13.1804 11.0332 15.2266 11.0332C17.2728 11.0332 18.9375 12.6979 18.9375 14.7441C18.9375 16.7904 17.2728 18.4551 15.2266 18.4551Z" fill="#F86E2D"/>
<path d="M15.9688 12.127H14.4062V15.5254H17.2969V13.9629H15.9688V12.127Z" fill="#F86E2D"/>
<path d="M8.15625 12.127H6.59375V13.6895H8.15625V12.127Z" fill="#F86E2D"/>
<path d="M5.03125 12.127H3.46875V13.6895H5.03125V12.127Z" fill="#F86E2D"/>
<path d="M5.03125 9.00195H3.46875V10.5645H5.03125V9.00195Z" fill="#F86E2D"/>
<path d="M5.03125 15.252H3.46875V16.8145H5.03125V15.252Z" fill="#F86E2D"/>
<path d="M8.15625 9.00195H6.59375V10.5645H8.15625V9.00195Z" fill="#F86E2D"/>
<path d="M8.15625 15.252H6.59375V16.8145H8.15625V15.252Z" fill="#F86E2D"/>
</g>
<defs>
<clipPath id="clip0_1_20505">
<rect width="20" height="20" fill="white" transform="translate(0.5 0.0175781)"/>
</clipPath>
</defs>
</svg>
