<svg width="70" height="71" viewBox="0 0 70 71" fill="none" xmlns="http://www.w3.org/2000/svg">
<path d="M51.7221 52.9822C51.7221 52.3773 52.2181 51.8972 52.823 51.8972C53.4278 51.8972 53.908 52.3773 53.908 52.9822V69.0559C53.908 69.6602 53.4273 70.1568 52.823 70.1568H6.24125C5.63695 70.1568 5.15625 69.6608 5.15625 69.0559V41.4185C5.15625 40.8136 5.63641 40.3335 6.24125 40.3335C6.84609 40.3335 7.34211 40.8136 7.34211 41.4185V67.9704H51.7221V52.9822Z" fill="#F86E2D"/>
<path d="M15.9158 66.2188C15.9158 66.8231 15.4198 67.3196 14.8149 67.3196C14.2101 67.3196 13.7305 66.8236 13.7305 66.2188V52.2532C13.7305 50.1762 14.5672 48.2851 15.947 46.9212C17.3114 45.5573 19.2025 44.7042 21.2795 44.7042C23.3566 44.7042 25.2477 45.5573 26.6116 46.9212C27.976 48.2851 28.8286 50.1762 28.8286 52.2532V66.2188C28.8286 66.8231 28.3326 67.3196 27.7283 67.3196C27.1234 67.3196 26.6427 66.8236 26.6427 66.2188V52.2532C26.6427 50.781 26.0384 49.4472 25.0617 48.4716C24.085 47.4949 22.7517 46.89 21.279 46.89C19.8062 46.89 18.4577 47.4943 17.4815 48.4716C16.5201 49.4472 15.9158 50.781 15.9158 52.2532V66.2188Z" fill="#F86E2D"/>
<path d="M35.8655 57.4923H45.91V49.8502H35.8655V57.4923ZM47.0109 59.6781H34.7805C34.1762 59.6781 33.6797 59.1974 33.6797 58.5931V48.7499C33.6797 48.1456 34.1757 47.6649 34.7805 47.6649H47.0109C47.6152 47.6649 48.1117 48.1456 48.1117 48.7499V58.5926C48.1117 59.1974 47.6152 59.6781 47.0109 59.6781Z" fill="#F86E2D"/>
<path fill-rule="evenodd" clip-rule="evenodd" d="M23.1087 60.3442C23.6977 60.3442 24.1937 59.8488 24.1937 59.2598C24.1937 58.6555 23.6977 58.1589 23.1087 58.1589C22.5044 58.1589 22.0078 58.655 22.0078 59.2598C22.0078 59.8482 22.5038 60.3442 23.1087 60.3442Z" fill="#F86E2D"/>
<path d="M24.3799 34.0401V33.9777L25.1089 20.4459H20.9073L18.4272 34.1019C18.4425 34.9698 18.7684 35.7452 19.3109 36.3189C19.8376 36.8773 20.5819 37.218 21.4033 37.218C22.2099 37.218 22.9531 36.8773 23.4803 36.3189C24.0387 35.7299 24.364 34.9238 24.364 34.0401H24.3799ZM27.2789 20.4464L26.5658 34.0401C26.5658 34.9238 26.907 35.7299 27.4495 36.3189C27.9767 36.8773 28.7205 37.218 29.5419 37.218C30.348 37.218 31.0917 36.8773 31.6189 36.3189C32.1773 35.7299 32.5026 34.9238 32.5026 34.0401H32.518L32.1455 27.22C32.1144 26.6157 32.5798 26.1038 33.1846 26.0727C33.7889 26.0415 34.3008 26.5069 34.3314 27.1112L34.688 33.9777V34.0401H34.7033C34.7033 34.9238 35.0445 35.7299 35.587 36.3189C36.1137 36.8773 36.858 37.218 37.6794 37.218C38.2831 37.218 38.7638 37.714 38.7638 38.3183C38.7638 38.9226 38.2831 39.4192 37.6794 39.4192C36.2378 39.4192 34.9351 38.799 34.0055 37.8228C33.866 37.6681 33.7266 37.5133 33.6024 37.3421C33.4788 37.5133 33.3394 37.6681 33.1999 37.8228C32.2697 38.799 30.967 39.4192 29.5413 39.4192C28.0998 39.4192 26.7976 38.799 25.8674 37.8228C25.728 37.6681 25.5885 37.5133 25.4644 37.3421C25.3402 37.5133 25.2013 37.6681 25.0619 37.8228C24.1316 38.799 22.8295 39.4192 21.4033 39.4192C19.9617 39.4192 18.6596 38.799 17.7294 37.8228C17.5899 37.6681 17.4505 37.5133 17.3263 37.3421C17.2022 37.5133 17.0627 37.6681 16.9233 37.8228C15.993 38.799 14.6909 39.4192 13.2652 39.4192C11.8237 39.4192 10.521 38.799 9.59132 37.8228C9.45186 37.6681 9.31241 37.5133 9.18827 37.3421C9.06413 37.5133 8.92467 37.6681 8.78522 37.8228C7.85553 38.799 6.55343 39.4192 5.12718 39.4192C3.90272 39.4192 2.78655 38.9696 1.9028 38.2412C1.01905 37.5133 0.367722 36.4748 0.104128 35.2809C0.0117066 34.8938 -0.0194653 34.5213 0.0117066 34.1495C0.0423316 33.7776 0.135847 33.4057 0.290613 33.0333L4.8171 21.9968C5.28194 20.8495 6.04155 19.9198 6.97178 19.269C7.91733 18.6177 9.0335 18.2611 10.2426 18.2611H30.2391C30.8434 18.2611 31.3394 18.7571 31.3394 19.362C31.3394 19.951 30.8434 20.447 30.2391 20.447L27.2789 20.4464ZM18.7066 20.4464H14.2731L10.2897 34.1642C10.3208 35.0015 10.6462 35.7611 11.1734 36.3189C11.7006 36.8767 12.4444 37.218 13.2663 37.218C14.0724 37.218 14.8162 36.8773 15.3433 36.3189C15.9017 35.7299 16.2271 34.9238 16.2271 34.0401H16.2424C16.2424 33.9777 16.2424 33.9006 16.2577 33.8383L18.7066 20.4464ZM12.0101 20.4464H10.2432C9.48358 20.4464 8.78577 20.663 8.21264 21.0666C7.62366 21.4849 7.14296 22.0739 6.83343 22.8335L2.30639 33.8542C2.2446 34.0089 2.19811 34.1642 2.18225 34.3195C2.18225 34.4743 2.18225 34.6296 2.22874 34.7997C2.3835 35.5128 2.77124 36.133 3.29843 36.5667C3.80975 36.9856 4.42991 37.2174 5.12772 37.2174C5.93382 37.2174 6.67757 36.8767 7.20475 36.3184C7.76311 35.7294 8.0885 34.9233 8.0885 34.0395H8.10382C8.10382 33.9307 8.11913 33.8377 8.13499 33.7295L12.0101 20.4464Z" fill="#F86E2D"/>
<path d="M33.1555 63.3668C32.5513 63.3668 32.0547 62.8866 32.0547 62.2823C32.0547 61.678 32.5513 61.1815 33.1555 61.1815H48.6409C49.2446 61.1815 49.7253 61.6775 49.7253 62.2823C49.7253 62.8872 49.2446 63.3668 48.6409 63.3668H33.1555Z" fill="#F86E2D"/>
<path d="M67.8128 25.732L53.7384 49.5407C53.4284 50.0673 52.7617 50.238 52.2498 49.9279C52.0792 49.8349 51.9403 49.6955 51.8473 49.5254L37.7872 25.732C37.7719 25.7008 37.756 25.6702 37.7407 25.6543C37.0588 24.414 36.5316 23.0659 36.1597 21.6709C35.8031 20.2758 35.6172 18.8342 35.6172 17.3462C35.6172 12.6031 37.5395 8.30961 40.6397 5.19406C43.7552 2.07797 48.0488 0.15625 52.8077 0.15625C57.5507 0.15625 61.8448 2.07797 64.9609 5.19352C68.077 8.30906 69.9987 12.6031 69.9987 17.3462C69.9987 18.8342 69.7974 20.2758 69.4403 21.6709C69.0679 23.0966 68.5254 24.4452 67.8281 25.7008L67.8128 25.732ZM52.8077 6.91398C55.6902 6.91398 58.295 8.07664 60.1861 9.96719C62.0772 11.8583 63.2398 14.4625 63.2398 17.3456C63.2398 20.2288 62.0772 22.833 60.1861 24.7241C58.295 26.6152 55.6902 27.7931 52.8077 27.7931C49.924 27.7931 47.3045 26.6152 45.4134 24.7241C43.5376 22.833 42.3602 20.2288 42.3602 17.3456C42.3602 14.4625 43.5376 11.8583 45.4134 9.96719C47.305 8.07664 49.924 6.91398 52.8077 6.91398ZM58.6363 11.5176C57.1482 10.0142 55.0865 9.0993 52.8082 9.0993C50.5294 9.0993 48.4677 10.0142 46.9638 11.5176C45.4757 13.0056 44.5455 15.0673 44.5455 17.3456C44.5455 19.6245 45.4757 21.6862 46.9638 23.1895C48.4677 24.6776 50.5294 25.592 52.8082 25.592C55.0865 25.592 57.1488 24.6776 58.6363 23.1895C60.1248 21.6862 61.0551 19.6245 61.0551 17.3456C61.0551 15.0673 60.1243 13.0062 58.6363 11.5176ZM52.8077 46.8435L65.937 24.6158C66.5413 23.5308 67.0067 22.3528 67.3321 21.1125C67.6422 19.9187 67.8128 18.663 67.8128 17.3456C67.8128 13.2074 66.123 9.45586 63.411 6.74336C60.6974 4.03086 56.9464 2.34156 52.8077 2.34156C48.653 2.34156 44.902 4.03086 42.1895 6.74336C39.4759 9.45586 37.8025 13.2074 37.8025 17.3456C37.8025 18.663 37.9573 19.9187 38.2673 21.1125C38.5933 22.337 39.0581 23.4996 39.6471 24.5846L39.6624 24.6158L52.8077 46.8435Z" fill="#F86E2D"/>
<path d="M52.8074 12.3395C54.1719 12.3395 55.427 12.9132 56.3413 13.8123C57.2409 14.7113 57.7987 15.9664 57.7987 17.3462C57.7987 18.7259 57.2404 19.981 56.3413 20.8801C55.427 21.7945 54.1877 22.3528 52.8074 22.3528C51.4282 22.3528 50.172 21.7945 49.2571 20.8801C49.2418 20.8648 49.2259 20.8336 49.1953 20.8183C48.328 19.9192 47.8008 18.6948 47.8008 17.3462C47.8008 15.967 48.3591 14.7113 49.2571 13.8123C49.2883 13.797 49.3036 13.7658 49.3348 13.7499C50.2338 12.882 51.4594 12.3395 52.8074 12.3395ZM54.7915 15.3463C54.2802 14.8502 53.5829 14.5402 52.8074 14.5402C52.0478 14.5402 51.3659 14.8349 50.8545 15.3151C50.8392 15.3304 50.8234 15.3463 50.808 15.3616C50.2956 15.8734 49.9855 16.5707 49.9855 17.3456C49.9855 18.1052 50.2803 18.7872 50.7616 19.2991C50.7769 19.3144 50.7927 19.3302 50.808 19.3456C51.3199 19.8416 52.0172 20.167 52.8074 20.167C53.5829 20.167 54.2802 19.8416 54.7915 19.3456C55.3034 18.8337 55.6129 18.1364 55.6129 17.3456C55.6129 16.5707 55.3034 15.8734 54.7915 15.3616V15.3463Z" fill="#F86E2D"/>
</svg>
