<svg width="70" height="70" viewBox="0 0 70 70" fill="none" xmlns="http://www.w3.org/2000/svg">
<g clip-path="url(#clip0_1_5513)">
<path d="M54.6325 26.8207C50.6628 26.6937 45.6691 22.8804 39.3945 25.4224V14.6187C48.6142 5.33976 55.9128 21.6097 67.1811 19.9573C66.4128 21.4827 65.2607 23.5849 60.0107 22.3142L62.3156 25.1797C60.0107 25.9423 57.8339 24.6609 55.529 23.3896C54.7607 24.6609 56.1691 25.8046 56.1691 26.6943C55.7847 26.6937 55.1445 26.8207 54.6325 26.8207Z" fill="#F86E2D"/>
<path d="M13.8362 26.5667C13.8362 25.677 15.2447 24.5327 14.4764 23.262C12.1715 24.6603 9.9947 25.9417 7.68978 25.0521L9.9947 22.1866C4.7447 23.4579 3.59253 21.3551 2.82422 19.8297C13.9644 21.4821 21.263 5.21272 30.6108 14.4911V25.2954C23.5679 22.3723 18.0622 27.965 13.8362 26.5667Z" fill="#F86E2D"/>
<path d="M35.0353 11.5455C38.2088 11.5455 40.7815 8.96094 40.7815 5.77274C40.7815 2.58454 38.2088 0 35.0353 0C31.8617 0 29.2891 2.58454 29.2891 5.77274C29.2891 8.96094 31.8617 11.5455 35.0353 11.5455Z" fill="#F86E2D"/>
<path d="M35.0353 70.0002C34.4121 70.0002 33.9062 69.4944 33.9062 68.8711V11.1652C33.9062 10.5419 34.4121 10.0361 35.0353 10.0361C35.6585 10.0361 36.1643 10.5419 36.1643 11.1652V68.8711C36.1643 69.4944 35.6591 70.0002 35.0353 70.0002Z" fill="#F86E2D"/>
<path d="M44.9825 52.3859C44.0967 52.3859 43.5554 51.3664 44.0431 50.632C44.8436 49.4267 45.6971 47.64 45.215 45.9691C44.4919 43.4637 40.8976 42.337 38.7502 41.6635L38.2444 41.5037C35.585 40.6519 33.3286 40.7913 31.1456 40.9245C28.3964 41.0933 25.8008 41.2525 23.23 39.2688C22.001 38.321 19.9321 36.2786 19.8762 33.2528C19.8129 29.8707 22.3397 27.6279 23.1154 27.0205C23.6065 26.6361 24.3161 26.7236 24.7005 27.2141C25.085 27.7053 24.998 28.4149 24.5069 28.7993C24.1027 29.1154 22.0891 30.8135 22.1337 33.211C22.1721 35.2941 23.7013 36.7804 24.6096 37.481C26.5092 38.947 28.4941 38.8245 31.0079 38.6704C33.2879 38.5304 35.8712 38.3718 38.9342 39.3529L39.4271 39.5082C42.0075 40.3171 46.326 41.6714 47.3856 45.3419C47.9575 47.3216 47.4522 49.5831 45.9246 51.8807C45.7067 52.2092 45.3483 52.3859 44.9825 52.3859Z" fill="#F86E2D"/>
<path d="M41.6729 60.7873C40.7866 60.7873 40.2452 59.7678 40.7335 59.0333C41.2597 58.2419 41.8231 57.0767 41.5182 56.02C41.0576 54.4235 38.6279 53.662 37.1765 53.207L36.8181 53.0941C35.0009 52.5115 33.4394 52.6075 31.9305 52.7006C30.0156 52.8191 28.0353 52.94 26.1216 51.4637C25.2077 50.7587 23.6677 49.2362 23.6259 46.9617C23.5785 44.4242 25.4606 42.7499 26.0381 42.2971C26.5292 41.9127 27.2382 41.9996 27.6232 42.4896C28.0077 42.9808 27.9218 43.6898 27.4307 44.0748C27.1671 44.2814 25.8546 45.3884 25.8834 46.9205C25.9082 48.2516 26.9074 49.2187 27.5013 49.6765C28.7427 50.6345 30.0218 50.556 31.7922 50.447C33.4298 50.3466 35.286 50.2331 37.5068 50.9438L37.8517 51.0528C39.7366 51.6438 42.8906 52.6323 43.6877 55.3945C44.1189 56.8882 43.7481 58.5795 42.6145 60.2843C42.3966 60.6106 42.0381 60.7873 41.6729 60.7873Z" fill="#F86E2D"/>
<path d="M39.0223 68.4759C38.1366 68.4759 37.5952 67.4564 38.0829 66.722C38.333 66.3455 38.7276 65.6246 38.5566 65.0307C38.3065 64.1636 36.8116 63.6951 35.918 63.4151L35.677 63.3388C34.5361 62.973 33.5329 63.0351 32.5636 63.0944C31.2195 63.1774 29.8303 63.2621 28.4449 62.1934C27.3018 61.31 26.6599 60.1426 26.6374 58.9057C26.6029 57.0428 27.9674 55.8263 28.3868 55.4977C28.8779 55.1133 29.587 55.1991 29.972 55.6897C30.3564 56.1802 30.2706 56.8898 29.78 57.2748C29.6293 57.3928 28.8796 58.0239 28.8949 58.8634C28.9084 59.5905 29.4831 60.1414 29.8241 60.4051C30.506 60.9312 31.1857 60.9171 32.4253 60.8397C33.4928 60.7748 34.8206 60.693 36.3657 61.1875L36.5937 61.2597C37.8328 61.6481 40.1395 62.3718 40.7254 64.4035C41.0438 65.5071 40.7807 66.7406 39.9628 67.9707C39.746 68.2992 39.3875 68.4759 39.0223 68.4759Z" fill="#F86E2D"/>
<path d="M45.6015 39.1317C44.3726 39.1317 44.0615 37.3602 45.216 36.9414C46.9902 36.2972 48.1548 34.8007 48.1836 33.1297C48.2107 31.544 47.1782 30.0509 45.5535 29.326C44.9839 29.072 44.7288 28.4042 44.9823 27.8346C45.2368 27.2656 45.9047 27.0093 46.4737 27.2633C48.9265 28.3579 50.484 30.6752 50.4411 33.1676C50.396 35.783 48.6477 38.0969 45.9865 39.0634C45.8601 39.1097 45.7297 39.1317 45.6015 39.1317Z" fill="#F86E2D"/>
<path d="M31.3639 69.1167C30.7097 69.1167 30.0678 68.888 29.5598 68.4663C28.9738 67.9803 28.6147 67.2786 28.5741 66.5413C28.4962 65.1041 29.6281 63.8187 31.0969 63.6758C31.7207 63.6183 32.2694 64.0699 32.3298 64.6903C32.3897 65.3113 31.9358 65.8628 31.3154 65.9232C30.6256 65.9904 30.7622 66.9444 31.4345 66.8535C32.1035 66.7626 32.7148 67.3046 32.7114 67.9786C32.7081 68.7396 32.0498 69.1167 31.3639 69.1167Z" fill="#F86E2D"/>
</g>
<defs>
<clipPath id="clip0_1_5513">
<rect width="70" height="70" fill="white"/>
</clipPath>
</defs>
</svg>
