<svg width="70" height="71" viewBox="0 0 70 71" fill="none" xmlns="http://www.w3.org/2000/svg">
<path d="M65.0047 22.3919C64.9578 22.3373 64.9095 22.2841 64.8598 22.2309C64.8171 22.1854 64.7751 22.1392 64.7303 22.0951L62.6653 20.0301C62.7507 19.9601 62.8333 19.8859 62.9124 19.8075L63.4094 19.3105C64.6715 18.0484 64.6715 15.9946 63.4094 14.7325L55.8116 7.134C55.2012 6.5243 54.3885 6.1883 53.5226 6.1883C52.6567 6.1883 51.844 6.5243 51.2336 7.134L50.7366 7.631C50.6575 7.7101 50.5833 7.7927 50.514 7.8781L48.449 5.8131C48.4049 5.769 48.3587 5.7263 48.3132 5.6836C48.2607 5.6346 48.2068 5.5863 48.1529 5.5387C47.1197 4.6413 45.8107 4.1499 44.4219 4.1499C43.0338 4.1499 41.7241 4.6413 40.6909 5.5387C40.6363 5.5863 40.5831 5.6346 40.5299 5.6836C40.4844 5.7263 40.4389 5.769 40.3941 5.8131L39.2083 6.9989C36.9935 9.2193 36.9935 12.832 39.2097 15.0538L43.6001 19.4435L42.0244 21.0199C39.0662 18.5265 35.954 16.409 32.9076 16.409C31.9171 16.409 30.97 16.6302 30.0796 17.0705L28.6656 15.6558C29.1836 15.0832 29.1675 14.1998 28.6152 13.6475L23.5472 8.5795C23.2735 8.3058 22.9025 8.1518 22.5154 8.1518C22.1283 8.1518 21.7573 8.3058 21.4829 8.5795L6.85084 23.2123C6.28104 23.7828 6.28104 24.7061 6.85084 25.2766L11.9188 30.3495C12.1925 30.6232 12.5635 30.7772 12.9513 30.7772C13.3384 30.7772 13.7094 30.6232 13.9831 30.3495L15.199 29.1329L17.1058 31.0404C17.1723 31.3813 17.2353 31.7236 17.2969 32.0568C17.8324 34.9674 18.3854 37.9669 21.5018 41.5474L18.8971 44.1521L14.5053 39.7596C13.4329 38.6872 12.0021 38.0964 10.4775 38.0964C8.95294 38.0964 7.52284 38.6879 6.44974 39.7596L5.26954 40.9405C5.22334 40.986 5.17994 41.0336 5.13654 41.0805C5.08684 41.1337 5.03854 41.1869 4.99094 41.2415C3.14364 43.3737 3.14364 46.5622 4.99094 48.6944C5.03854 48.7483 5.08684 48.8022 5.13654 48.8554C5.18064 48.9023 5.22404 48.9499 5.26954 48.9954L7.33384 51.0597C7.25124 51.1276 7.17214 51.1997 7.09584 51.2753L6.59954 51.7716C5.98914 52.382 5.65314 53.1947 5.65314 54.0606C5.65314 54.9265 5.98914 55.7399 6.59954 56.3496L14.1959 63.9474C14.8063 64.5578 15.619 64.8938 16.4849 64.8938C17.3508 64.8938 18.1635 64.5578 18.7739 63.9474L19.2709 63.4511C19.3465 63.3748 19.4186 63.295 19.4865 63.2131L21.5487 65.2753C21.5949 65.3215 21.6425 65.3656 21.6901 65.4097C21.7433 65.4587 21.7965 65.5077 21.8511 65.5546C22.8822 66.4492 24.1891 66.9399 25.5765 66.9399C26.9632 66.9399 28.2722 66.4499 29.3047 65.5546C29.3593 65.5077 29.4125 65.4587 29.4657 65.4097C29.5126 65.3656 29.5602 65.3215 29.6064 65.276L30.7866 64.0958C33.0077 61.8747 33.0077 58.2606 30.7866 56.0395L26.3493 51.6022L28.9169 49.0367L30.5262 50.6453C31.2486 51.3691 32.1558 51.752 33.1498 51.752H33.1505C34.9796 51.7513 36.8682 50.3982 37.6396 48.5341C37.7404 48.2912 37.8174 48.0483 37.8727 47.8054C39.6094 47.7473 41.3811 46.4558 42.1203 44.6918C42.1896 44.5266 42.2484 44.3607 42.2953 44.1955C42.3303 44.1955 42.366 44.1962 42.401 44.1962C44.1846 44.1962 46.0249 42.8788 46.7767 41.063C47.035 40.4386 47.1393 39.8079 47.0945 39.2045C48.4532 38.7733 49.6866 37.6687 50.2655 36.2687C50.885 34.7707 50.6015 33.2258 49.5088 32.1345L47.6629 30.2893L51.0558 26.8964L55.4896 31.3295C56.5627 32.4026 57.9928 32.9927 59.5174 32.9927C61.042 32.9927 62.4728 32.4019 63.5431 31.3309L64.7289 30.1493C64.773 30.1045 64.8157 30.0583 64.8584 30.0128C64.9081 29.9603 64.9564 29.9071 65.0033 29.8525C66.8583 27.7196 66.8583 24.5255 65.0047 22.3919ZM52.8016 9.6953L53.2986 9.1983C53.3735 9.1234 53.4617 9.1073 53.5233 9.1073C53.5842 9.1073 53.6724 9.1234 53.748 9.1983L61.3458 16.7968C61.4676 16.9186 61.4676 17.1244 61.3458 17.2462L60.8495 17.7432C60.7739 17.8181 60.6857 17.8342 60.6241 17.8342C60.5618 17.8342 60.4715 17.8174 60.3959 17.7432L52.8016 10.1447C52.7267 10.0691 52.7106 9.9816 52.7106 9.92C52.7106 9.8584 52.726 9.7709 52.8016 9.6953ZM17.2066 61.3861L16.7096 61.8831C16.6347 61.9587 16.5458 61.9741 16.4849 61.9741C16.424 61.9741 16.3358 61.9587 16.2602 61.8831L8.66244 54.2846C8.58754 54.209 8.57144 54.1208 8.57144 54.0599C8.57144 53.9997 8.58684 53.9108 8.66244 53.8352L9.15944 53.3389C9.23434 53.264 9.32324 53.2479 9.38414 53.2479C9.44504 53.2479 9.53324 53.2633 9.60884 53.3389L17.2066 60.9374C17.2815 61.0123 17.2976 61.1005 17.2976 61.1621C17.2976 61.2223 17.2815 61.3112 17.2066 61.3861ZM9.94694 24.2448L22.5161 11.6756L25.5205 14.68L12.9513 27.252L9.94694 24.2448ZM28.7216 58.1045C29.8045 59.1874 29.8045 60.9493 28.7216 62.0322L27.5414 63.2124C27.0199 63.7339 26.322 64.0209 25.5765 64.0209C24.831 64.0209 24.1345 63.7339 23.6144 63.2124L7.33384 46.9311C6.25094 45.8489 6.25094 44.0863 7.33384 43.0041L8.51404 41.8239C9.03554 41.3017 9.73274 41.0154 10.4775 41.0154C11.2223 41.0154 11.9202 41.3024 12.441 41.8232L28.7216 58.1045ZM26.8519 46.9738L24.285 49.5386L22.6988 47.9524L20.9621 46.215L23.5276 43.6495L26.8519 46.9738ZM47.5684 35.1536C47.2751 35.8613 46.4813 36.4829 45.8688 36.4829C45.6784 36.4829 45.5335 36.4192 45.3823 36.268C44.8125 35.6982 43.8892 35.6996 43.3194 36.2694C42.7489 36.8392 42.7503 37.7653 43.3201 38.3351L43.9718 38.9861C44.0789 39.0932 44.3302 39.3445 44.0803 39.9472C43.787 40.6556 43.0023 41.2779 42.4017 41.2779C42.212 41.2779 42.058 41.2093 41.9082 41.0588L41.407 40.5534C41.4063 40.5534 41.4063 40.5527 41.4056 40.552L41.3867 40.5331C40.8176 39.964 39.8957 39.9633 39.3245 40.531C38.754 41.0987 38.7512 42.022 39.3182 42.5932L39.3287 42.6037C39.4337 42.7108 39.6808 42.9614 39.4288 43.5641C39.1334 44.2697 38.3494 44.8892 37.7523 44.8892C37.5626 44.8892 37.4086 44.8206 37.2546 44.6659L36.8822 44.2935C36.3117 43.723 35.3877 43.723 34.8179 44.2935C34.2481 44.8626 34.2474 45.7873 34.8179 46.3578L34.8214 46.3613C34.9334 46.4733 35.2148 46.7645 34.9439 47.4183C34.6317 48.1722 33.7938 48.8337 33.1505 48.8337C32.9377 48.8337 32.7655 48.7574 32.5919 48.5831L29.9641 45.9567C29.9592 45.9518 29.9557 45.9462 29.9508 45.942L24.8443 40.8383L24.6889 40.6836C21.2141 37.206 20.7304 34.5747 20.1697 31.5283C20.0801 31.0397 19.9863 30.5343 19.8799 30.0226C19.8218 29.744 19.6839 29.4885 19.483 29.2876L17.2654 27.07L26.6069 17.725L28.8245 19.944C29.3355 20.455 30.1433 20.5145 30.7236 20.0861C31.4131 19.5765 32.1278 19.3287 32.9076 19.3287C35.002 19.3287 37.5668 21.0997 39.9538 23.0926L39.2566 23.7898L39.1754 23.871C39.1404 23.906 39.1082 23.9424 39.0774 23.9795C39.0571 24.004 39.0396 24.0299 39.0214 24.0551C39.0116 24.0684 39.0011 24.0817 38.992 24.095C38.9703 24.1279 38.95 24.1622 38.9318 24.1972C38.9276 24.2035 38.9234 24.2112 38.9192 24.2175C38.8996 24.2539 38.8828 24.291 38.8667 24.3281C38.8639 24.3344 38.8604 24.34 38.8583 24.3463C38.8436 24.3827 38.831 24.4191 38.8191 24.4562C38.817 24.4646 38.8128 24.4723 38.81 24.4807C38.7995 24.515 38.7925 24.5493 38.7841 24.5829C38.7813 24.5955 38.7778 24.6074 38.775 24.62C38.7694 24.6515 38.7652 24.683 38.761 24.7159C38.7589 24.7306 38.7561 24.746 38.7547 24.7614C38.7512 24.7971 38.7505 24.8328 38.7491 24.8678C38.7491 24.8853 38.7484 24.9021 38.7484 24.9196C38.7484 24.9616 38.7505 25.0043 38.7547 25.0463C38.7561 25.0582 38.7582 25.0694 38.7603 25.0813C38.7645 25.1163 38.7687 25.1527 38.7757 25.187C38.7778 25.1961 38.7806 25.2045 38.782 25.2129C38.7904 25.2514 38.7995 25.2885 38.8107 25.327C38.8114 25.3319 38.8142 25.3368 38.8156 25.3417C38.8282 25.3823 38.8422 25.4222 38.8583 25.4614C38.8597 25.4642 38.8604 25.467 38.8618 25.4691C38.8786 25.5104 38.8982 25.5503 38.9192 25.5909C38.9206 25.593 38.922 25.5951 38.9234 25.5972C38.9444 25.6371 38.9675 25.6749 38.9927 25.712C38.9983 25.7204 39.0053 25.7281 39.0102 25.7365C39.0319 25.7673 39.0536 25.7974 39.0774 25.8268C39.1075 25.8646 39.1404 25.9003 39.1754 25.9353L47.4445 34.2009C47.5558 34.3101 47.812 34.5656 47.5684 35.1536ZM48.9922 24.8335L45.5993 28.2264L42.2729 24.9028L42.2722 24.9021L43.1514 24.0222L45.6644 21.5071L45.6658 21.5057L48.9929 24.8328L48.9922 24.8335ZM62.6681 28.085L61.4823 29.2666C60.9608 29.7881 60.2629 30.0744 59.5181 30.0744C58.7733 30.0744 58.0761 29.7874 57.5539 29.2659L52.1016 23.815C52.0974 23.8101 52.0932 23.8052 52.0883 23.8003L46.6976 18.4089C46.6878 18.3991 46.678 18.3921 46.6682 18.3823L41.274 12.9895C40.1939 11.9059 40.1939 10.1433 41.2733 9.0611L42.4577 7.8767C42.9799 7.3559 43.6771 7.0689 44.4219 7.0689C45.1667 7.0689 45.8646 7.3566 46.3861 7.8774L62.6667 24.1587C63.7489 25.2423 63.7489 27.0035 62.6681 28.085Z" fill="#F86E2D"/>
</svg>
