<svg width="70" height="71" viewBox="0 0 70 71" fill="none" xmlns="http://www.w3.org/2000/svg">
<path d="M67.6667 38.3686H63.4878C62.1169 36.7836 60.899 35.0727 59.8501 33.2586C58.1351 30.3046 56.5146 27.5127 53.7344 26.0252C50.001 24.0068 45.8092 24.9122 43.9763 24.7839C43.3896 24.3414 42.837 23.8555 42.3231 23.3302C41.9416 22.9627 41.6359 22.6243 41.3454 22.3036C40.3487 21.1105 39.0973 20.1562 37.6832 19.5105C37.9492 19.327 38.1992 19.1218 38.4311 18.8968C42.322 15.0071 41.3851 9.07924 41.3477 8.82836C41.2658 8.33658 40.8804 7.95131 40.3888 7.86941C40.1368 7.82853 34.2054 6.89173 30.3193 10.786C30.1341 10.9822 29.963 11.1913 29.8071 11.4114C29.6504 11.1916 29.4789 10.9826 29.2937 10.786C25.4041 6.89638 19.4762 7.83318 19.2242 7.86941C18.7322 7.95145 18.3468 8.3374 18.2653 8.82959C18.2233 9.07924 17.2888 15.013 21.1819 18.8968C21.491 19.1996 21.833 19.4669 22.2016 19.6936H22.1923C21.348 20.1695 20.5568 20.7337 19.8321 21.3771C18.3025 22.7825 17.0314 24.4453 16.0765 26.29C13.2181 27.354 7.58312 29.8191 5.64417 38.3686H2.33324C1.63405 38.3686 0.971649 38.6822 0.528542 39.223C0.0854348 39.7637 -0.0918902 40.4749 0.0455127 41.1604L0.682488 44.3396C2.99578 55.7778 13.0369 64.0098 24.7065 64.0353H45.2936C56.9633 64.0098 67.0043 55.7778 69.3176 44.3396L69.9546 41.1592C70.0916 40.4738 69.9141 39.763 69.471 39.2226C69.0279 38.6821 68.3658 38.3686 67.6667 38.3686ZM40.5848 24.8936C41.3572 25.7605 42.2766 26.4842 43.3009 27.0309C44.9168 27.4905 49.1809 26.2143 52.6261 28.0809C54.8265 29.257 56.2847 31.7699 57.8622 34.4872C58.6512 35.8315 59.5196 37.1276 60.4627 38.3686H57.4913C56.9254 37.5018 56.3736 36.5731 55.8416 35.6561C54.458 33.2645 53.1502 31.0046 51.525 30.1307C49.7885 29.3996 47.8869 29.1505 46.0207 29.4097C44.8063 29.5512 43.5763 29.4722 42.3899 29.1763C41.1336 28.5664 40.008 27.718 39.0755 26.6784C38.8585 26.4697 38.6367 26.2572 38.414 26.0484C38.8886 25.5349 39.4964 25.1633 40.1699 24.975C40.3223 24.9425 40.4437 24.9227 40.5848 24.8936ZM25.55 33.3006C25.7144 33.0077 25.8732 32.7172 26.0283 32.4163C26.2453 32.0032 26.4576 31.6066 26.6805 31.2402C27.9218 32.1968 29.1027 33.2295 30.2167 34.3318C31.6915 35.7802 33.2611 37.1287 34.915 38.3685H31.1814C30.2912 37.5962 29.4314 36.7935 28.6148 36.0222L28.5273 35.9417C27.3128 34.7986 26.3235 33.8909 25.55 33.3006ZM27.7118 38.3686H18.1451C18.9151 37.7204 19.8203 37.2528 20.7946 37.0001C21.9265 36.6671 22.9896 36.1345 23.9341 35.4274C24.0216 35.3527 24.0939 35.2617 24.1755 35.1811C24.942 35.7738 26.1087 36.8635 26.9452 37.6451L27.0257 37.721C27.2439 37.9322 27.4819 38.1527 27.7118 38.3686ZM31.8196 32.6332C30.653 31.532 29.5271 30.4761 28.4643 29.6595C29.3134 29.5017 30.1804 29.4624 31.0403 29.5428C31.2737 29.5534 31.5 29.5603 31.7298 29.5673C32.5668 30.0382 33.3137 30.6535 33.936 31.385C35.6069 33.2485 37.6577 34.7324 39.9502 35.7366C44.6845 37.4866 47.1042 35.0565 48.874 37.7106C48.9906 37.9183 49.1202 38.1458 49.2438 38.3651H43.1036C41.4804 38.4166 39.8608 38.1795 38.3202 37.6651C36.2168 36.7761 33.8812 34.5745 31.8196 32.6332ZM40.7645 33.5538C38.7883 32.6525 37.0215 31.3497 35.5763 29.7282C35.3593 29.5136 35.1516 29.3095 34.9475 29.1134C35.6535 28.7862 36.2906 28.3273 36.8246 27.7612C37.03 27.9538 37.2377 28.1521 37.4534 28.3598C38.6066 29.6325 40.0077 30.6564 41.5706 31.3686C43.0481 31.7902 44.594 31.9178 46.1206 31.7443C47.5678 31.5389 49.0433 31.6919 50.4174 32.19C51.4592 32.7512 52.6597 34.8232 53.8206 36.8287C54.1169 37.3398 54.4192 37.8589 54.7271 38.3723H51.9772C51.5806 37.7645 51.2224 37.1461 50.8735 36.5137C48.5766 32.3463 45.1057 35.1579 40.7645 33.5538ZM38.7754 23.0012C37.625 23.5517 36.6218 24.3673 35.8482 25.3812L35.8412 25.3894L35.8296 25.3987V25.4069C34.3282 27.1278 33.9501 27.3355 31.1455 27.2153C27.1099 27.0321 25.8779 27.6984 23.9669 31.3314C23.5895 32.19 23.0652 32.976 22.4176 33.6543C21.6812 34.1679 20.8653 34.557 20.0026 34.8057C18.3494 35.403 16.177 36.1998 15.5436 38.3688H12.9885C14.1551 34.4394 16.9247 33.4268 19.1928 32.6089C19.713 32.4442 20.2201 32.2402 20.7094 31.9987C20.8543 31.917 20.98 31.8053 21.0781 31.6709C21.3795 31.2105 21.6522 30.732 21.8948 30.2382C22.5177 28.8858 23.3883 27.6619 24.4614 26.6296C24.8069 26.3123 25.1878 26.036 25.5966 25.8059C27.3436 24.9659 29.2947 24.6445 31.2187 24.8796C31.9764 25.0262 32.7609 24.9362 33.4657 24.6218C34.1295 24.1201 35.4491 22.5555 36.6986 21.6246C37.4608 21.9682 38.162 22.433 38.7754 23.0012ZM31.9666 12.4323C33.7705 10.8254 36.1281 9.982 38.542 10.0803C38.7532 10.0803 38.948 10.0803 39.1254 10.0942C39.3485 12.6962 38.5066 15.2773 36.792 17.2471C35.4441 18.5317 33.325 18.5317 31.9771 17.2471C30.6464 15.9197 30.6418 13.7656 31.9666 12.4323ZM20.4866 10.0989C23.089 9.87358 25.6714 10.7159 27.6405 12.4323C28.9671 13.7631 28.9671 15.9163 27.6405 17.2471C26.2922 18.5319 24.1728 18.5319 22.8245 17.2471C21.1071 15.2785 20.2618 12.6974 20.4818 10.0942L20.4866 10.0989ZM17.2817 28.3352C17.55 28.2368 17.7731 28.0438 17.9094 27.7927C18.7663 26.0383 19.9384 24.4565 21.3674 23.1261C21.9661 22.59 22.6214 22.1206 23.3216 21.7261C26.6667 20.0938 30.4977 19.7574 34.0759 20.7823C33.5661 21.263 32.4904 22.3596 32.2559 22.5789C31.9759 22.5789 31.6236 22.5591 31.3109 22.5404C28.9567 22.2829 26.5781 22.7069 24.4578 23.7618C23.8982 24.0756 23.3764 24.4526 22.9027 24.8854C21.6141 26.1071 20.5675 27.5608 19.818 29.1706C19.6582 29.4914 19.468 29.832 19.3385 30.0618C19.0469 30.1784 18.5965 30.3383 18.4133 30.4036C15.9551 31.2879 11.9324 32.7474 10.5733 38.3603H8.03238C9.02223 33.5643 12.5806 29.7073 17.2817 28.3352ZM67.0298 43.8822C64.937 54.2312 55.8519 61.6792 45.2934 61.7019H24.7064C14.148 61.6792 5.06297 54.2312 2.97008 43.8822L2.3331 40.7019H43.9833H67.6667L67.0298 43.8822Z" fill="#F86E2D"/>
<path fill-rule="evenodd" clip-rule="evenodd" d="M24.7083 57.0352C16.7281 57.0354 9.7586 51.6369 7.7636 43.9102C7.67241 43.4927 7.36028 43.1584 6.94999 43.0388C6.5397 42.9193 6.09686 43.0337 5.79567 43.3371C5.49462 43.6405 5.38346 44.0842 5.5061 44.4936C7.76702 53.2499 15.6649 59.3679 24.7083 59.3686C25.3526 59.3686 25.8749 58.8464 25.8749 58.202C25.8749 57.5577 25.3526 57.0352 24.7083 57.0352Z" fill="#F86E2D"/>
</svg>
