<svg width="70" height="70" viewBox="0 0 70 70" fill="none" xmlns="http://www.w3.org/2000/svg">
<g clip-path="url(#clip0_1_4371)">
<path d="M19.832 31.5005H11.6665C11.0223 31.5005 10.5 32.0228 10.5 32.667V44.3319C10.5 44.9762 11.0223 45.4984 11.6665 45.4984H19.832C20.4762 45.4984 20.9985 44.9762 20.9985 44.3319V32.667C20.9985 32.0228 20.4762 31.5005 19.832 31.5005ZM18.6655 43.1655H12.833V33.8335H18.6655V43.1655Z" fill="#F86E2D"/>
<path d="M39.6601 31.5005H31.4946C30.8504 31.5005 30.3281 32.0228 30.3281 32.667V44.3319C30.3281 44.9762 30.8504 45.4984 31.4946 45.4984H39.6601C40.3044 45.4984 40.8266 44.9762 40.8266 44.3319V32.667C40.8266 32.0228 40.3044 31.5005 39.6601 31.5005ZM38.4937 43.1655H32.6612V33.8335H38.4937V43.1655Z" fill="#F86E2D"/>
<path d="M39.6601 50.1646H31.4946C30.8504 50.1646 30.3281 50.6868 30.3281 51.331V62.996C30.3281 63.6402 30.8504 64.1625 31.4946 64.1625H39.6601C40.3044 64.1625 40.8266 63.6402 40.8266 62.996V51.331C40.8266 50.687 40.3044 50.1646 39.6601 50.1646ZM38.4937 61.8295H32.6612V52.4975H38.4937V61.8295Z" fill="#F86E2D"/>
<path d="M58.3242 31.5005H50.1587C49.5145 31.5005 48.9922 32.0228 48.9922 32.667V44.3319C48.9922 44.9762 49.5145 45.4984 50.1587 45.4984H58.3242C58.9684 45.4984 59.4907 44.9762 59.4907 44.3319V32.667C59.4907 32.0228 58.9684 31.5005 58.3242 31.5005ZM57.1577 43.1655H51.3253V33.8335H57.1577V43.1655Z" fill="#F86E2D"/>
<path d="M19.832 50.1646H11.6665C11.0223 50.1646 10.5 50.6868 10.5 51.331V62.996C10.5 63.6402 11.0223 64.1625 11.6665 64.1625H19.832C20.4762 64.1625 20.9985 63.6402 20.9985 62.996V51.331C20.9985 50.687 20.4762 50.1646 19.832 50.1646ZM18.6655 61.8295H12.833V52.4975H18.6655V61.8295Z" fill="#F86E2D"/>
<path d="M58.3242 50.1646H50.1587C49.5145 50.1646 48.9922 50.6868 48.9922 51.331V62.996C48.9922 63.6402 49.5145 64.1625 50.1587 64.1625H58.3242C58.9684 64.1625 59.4907 63.6402 59.4907 62.996V51.331C59.4907 50.687 58.9684 50.1646 58.3242 50.1646ZM57.1577 61.8295H51.3253V52.4975H57.1577V61.8295Z" fill="#F86E2D"/>
<path d="M65.3239 67.662V28.001H66.4904C67.1346 28.001 67.6569 27.4787 67.6569 26.8345V21.0021C67.6569 20.3578 67.1346 19.8356 66.4904 19.8356H65.3239V15.1696C65.3239 14.5254 64.8017 14.0032 64.1575 14.0032H61.8245V1.17155C61.8245 0.527332 61.3022 0.00506592 60.658 0.00506592H9.33201C8.68779 0.00506592 8.16553 0.527332 8.16553 1.17155V14.003H5.83256C5.18834 14.003 4.66607 14.5253 4.66607 15.1695V19.8354H3.49959C2.85537 19.8354 2.33311 20.3577 2.33311 21.0019V26.8343C2.33311 27.4786 2.85537 28.0008 3.49959 28.0008H4.66607V67.6617H0V69.9947H5.83256H64.1575H70V67.6617H65.3239V67.662ZM10.4985 2.33803H59.4914V14.003H10.4985V2.33803ZM6.99904 16.336H9.33201H60.6579H62.9908V19.8354H6.99904V16.336ZM62.9908 67.662H6.99904V28.001H62.991V67.662H62.9908ZM5.83256 25.668H4.66607V22.1685H5.83256H64.1575H65.3239V25.668H64.1575H5.83256Z" fill="#F86E2D"/>
<path d="M33.2023 6.32909C33.0168 5.85495 32.7562 5.44548 32.4201 5.10081C32.0842 4.75614 31.6799 4.48571 31.2076 4.28979C30.7351 4.09388 30.212 3.99585 29.638 3.99585C29.0641 3.99585 28.54 4.09292 28.0659 4.2872C27.5918 4.48147 27.1858 4.75177 26.8481 5.09821C26.5105 5.44466 26.2489 5.85495 26.0634 6.32923C25.8779 6.80337 25.7852 7.31866 25.7852 7.87511C25.7852 8.43155 25.8779 8.94685 26.0634 9.42099C26.2489 9.89513 26.5105 10.3054 26.8481 10.652C27.1858 10.9984 27.5918 11.2687 28.0659 11.463C28.54 11.6573 29.0641 11.7544 29.638 11.7544C30.212 11.7544 30.7351 11.6573 31.2076 11.463C31.6801 11.2689 32.0842 10.9984 32.4201 10.652C32.756 10.3056 33.0168 9.89526 33.2023 9.42099C33.3878 8.94685 33.4805 8.43155 33.4805 7.87511C33.4805 7.31853 33.3877 6.80323 33.2023 6.32909ZM31.8663 8.99565C31.7561 9.32638 31.5976 9.60638 31.3912 9.83552C31.1847 10.0648 30.9336 10.2406 30.6379 10.3631C30.3421 10.4856 30.0088 10.5469 29.6379 10.5469C29.267 10.5469 28.9327 10.4856 28.6353 10.3631C28.3378 10.2406 28.085 10.0648 27.8768 9.83552C27.6686 9.60624 27.5085 9.32638 27.3965 8.99565C27.2846 8.66493 27.2285 8.29142 27.2285 7.87497C27.2285 7.45853 27.2846 7.08501 27.3965 6.75429C27.5085 6.42356 27.6686 6.14274 27.8768 5.91183C28.085 5.68091 28.3378 5.50413 28.6353 5.38163C28.9328 5.25913 29.267 5.19788 29.6379 5.19788C30.0088 5.19788 30.3421 5.25913 30.6379 5.38163C30.9336 5.50413 31.1846 5.68091 31.3912 5.91183C31.5976 6.14274 31.7559 6.42356 31.8663 6.75429C31.9765 7.08501 32.0316 7.45853 32.0316 7.87497C32.0316 8.29142 31.9766 8.66493 31.8663 8.99565Z" fill="#F86E2D"/>
<path d="M23.2471 4.07959V7.34457H19.6882V4.07959H18.2656V11.6699H19.6882V8.35246H23.2471V11.6699H24.6697V4.07959H23.2471Z" fill="#F86E2D"/>
<path d="M47.8536 10.5046V4.07959H46.4414V11.6699H50.8928V10.5046H47.8536Z" fill="#F86E2D"/>
<path d="M33.543 4.07959V5.23965H35.837V11.6699H37.249V5.23965H39.5323V4.07959H33.543Z" fill="#F86E2D"/>
<path d="M45.217 5.20287V4.07959H40.4297V11.6699H45.217V10.5413H41.8522V8.39443H44.5031V7.30779H41.8522V5.20287H45.217Z" fill="#F86E2D"/>
</g>
<defs>
<clipPath id="clip0_1_4371">
<rect width="70" height="70" fill="white"/>
</clipPath>
</defs>
</svg>
