<svg width="34" height="35" viewBox="0 0 34 35" fill="none" xmlns="http://www.w3.org/2000/svg">
<g clip-path="url(#clip0_1_19416)">
<path d="M30.4829 14.4968C30.4829 14.3222 30.4118 14.1507 30.2883 14.0272C30.1648 13.9037 29.9933 13.8326 29.8187 13.8326C29.6441 13.8326 29.4726 13.9037 29.3491 14.0272C29.2256 14.1507 29.1545 14.3222 29.1545 14.4968C29.1545 14.6722 29.2256 14.8429 29.3491 14.9664C29.4726 15.0907 29.6441 15.161 29.8187 15.161C29.9933 15.161 30.1648 15.0907 30.2883 14.9664C30.4118 14.8429 30.4829 14.6714 30.4829 14.4968Z" fill="#F86E2D"/>
<path d="M21.8477 12.0419L26.1296 17.5274C26.383 17.8519 26.7646 18.0381 27.1765 18.0381H27.1768C27.5887 18.0381 27.9703 17.8519 28.2237 17.5269L28.6626 16.9645C28.888 16.6753 28.8367 16.2579 28.5474 16.0322C28.2585 15.8065 27.8411 15.8581 27.6154 16.1474L27.1765 16.71L22.9343 11.2748C22.9198 11.2525 22.9042 11.231 22.8868 11.21C22.0669 10.2175 21.6152 8.96045 21.6152 7.67045C21.6152 6.17034 22.2036 4.76414 23.2715 3.71071C24.3395 2.65755 25.755 2.08973 27.2556 2.1097C30.2997 2.15172 32.759 4.66401 32.738 7.70988C32.7292 8.98976 32.2976 10.1903 31.4898 11.1812C31.4823 11.1905 31.475 11.1998 31.4678 11.2097L30.8833 11.9586C30.6579 12.2478 30.7093 12.6652 30.9985 12.8909C31.2877 13.1163 31.7048 13.0649 31.9305 12.7757L32.5287 12.0092C32.5303 12.0068 32.5321 12.0045 32.5339 12.0022C33.5113 10.7947 34.0553 9.27458 34.0662 7.71922C34.0921 3.94599 31.0452 0.833713 27.2738 0.781833C25.4149 0.755633 23.6616 1.46068 22.339 2.7652C21.0158 4.07024 20.2871 5.81237 20.2871 7.67071C20.2871 9.2463 20.8313 10.7827 21.8207 12.0045C21.8292 12.0172 21.8383 12.0297 21.8477 12.0419Z" fill="#F86E2D"/>
<path d="M23.8447 7.67075C23.8447 9.50808 25.3394 11.0027 27.1767 11.0027C29.014 11.0027 30.509 9.50808 30.509 7.67075C30.509 5.83342 29.014 4.3385 27.1767 4.3385C25.3394 4.3385 23.8447 5.83342 23.8447 7.67075ZM29.1808 7.67075C29.1808 8.77553 28.2818 9.67461 27.1767 9.67461C26.0717 9.67461 25.1726 8.77553 25.1726 7.67075C25.1726 6.56571 26.0717 5.66663 27.1767 5.66663C28.2818 5.66663 29.1808 6.56571 29.1808 7.67075Z" fill="#F86E2D"/>
<path d="M31.1608 26.3618C31.0824 26.4085 31.0012 26.4524 30.919 26.4921C30.5887 26.6521 30.4506 27.0494 30.6105 27.3794C30.7251 27.6163 30.962 27.7543 31.2088 27.7543C31.3058 27.7543 31.4044 27.733 31.4978 27.6879C31.614 27.6316 31.7292 27.5696 31.8403 27.5037C32.1555 27.3158 32.259 26.9085 32.0712 26.593C31.8836 26.2778 31.4763 26.1745 31.1608 26.3618Z" fill="#F86E2D"/>
<path d="M16.6584 26.8124H16.3263C15.9594 26.8124 15.6621 27.1097 15.6621 27.4766C15.6621 27.8434 15.9594 28.1408 16.3263 28.1408H16.6584C17.025 28.1408 17.3226 27.8434 17.3226 27.4766C17.3226 27.1097 17.0253 26.8124 16.6584 26.8124Z" fill="#F86E2D"/>
<path d="M19.0578 20.3712C19.4247 20.3712 19.722 20.0739 19.722 19.707C19.722 19.3402 19.4247 19.0428 19.0578 19.0428H18.7257C18.3589 19.0428 18.0615 19.3402 18.0615 19.707C18.0615 20.0739 18.3589 20.3712 18.7257 20.3712H19.0578Z" fill="#F86E2D"/>
<path d="M33.0701 22.6811C33.1601 22.6811 33.252 22.6627 33.3394 22.6237C33.6749 22.4748 33.8256 22.0823 33.6767 21.7471C33.624 21.6288 33.5659 21.5117 33.5039 21.3991C33.3269 21.0777 32.923 20.9609 32.6015 21.1379C32.2803 21.3151 32.1633 21.719 32.3405 22.0402C32.3844 22.1199 32.4256 22.2029 32.4627 22.2865C32.5727 22.5342 32.8156 22.6811 33.0701 22.6811Z" fill="#F86E2D"/>
<path d="M33.4408 23.9725C33.0866 23.876 32.7216 24.0851 32.6256 24.439C32.6015 24.5272 32.5734 24.6152 32.5421 24.7008C32.4157 25.0453 32.5924 25.4267 32.9367 25.5533C33.0122 25.5809 33.0895 25.5941 33.1655 25.5941C33.4361 25.5941 33.6904 25.4273 33.789 25.1585C33.8336 25.037 33.8733 24.9125 33.9073 24.7877C34.0035 24.4338 33.7947 24.0688 33.4408 23.9725Z" fill="#F86E2D"/>
<path d="M28.0227 20.3712C28.3895 20.3712 28.6869 20.0739 28.6869 19.707C28.6869 19.3402 28.3895 19.0428 28.0227 19.0428H27.6906C27.3237 19.0428 27.0264 19.3402 27.0264 19.707C27.0264 20.0739 27.3237 20.3712 27.6906 20.3712H28.0227Z" fill="#F86E2D"/>
<path d="M22.635 26.8124H22.3029C21.936 26.8124 21.6387 27.1097 21.6387 27.4766C21.6387 27.8434 21.936 28.1408 22.3029 28.1408H22.635C23.0016 28.1408 23.2992 27.8434 23.2992 27.4766C23.2992 27.1097 23.0018 26.8124 22.635 26.8124Z" fill="#F86E2D"/>
<path d="M30.9744 20.654C31.237 20.654 31.4855 20.4973 31.5904 20.2391C31.7279 19.899 31.5641 19.5119 31.224 19.3741C31.1041 19.3256 30.9806 19.2815 30.8571 19.2436C30.5061 19.1357 30.1348 19.3324 30.0269 19.6829C29.919 20.0337 30.1156 20.4052 30.4664 20.5131C30.5536 20.5401 30.6408 20.571 30.7253 20.6052C30.8071 20.6384 30.8914 20.654 30.9744 20.654Z" fill="#F86E2D"/>
<path d="M25.0344 20.3712C25.4012 20.3712 25.6986 20.0739 25.6986 19.707C25.6986 19.3402 25.4012 19.0428 25.0344 19.0428H24.7023C24.3354 19.0428 24.0381 19.3402 24.0381 19.707C24.0381 20.0739 24.3354 20.3712 24.7023 20.3712H25.0344Z" fill="#F86E2D"/>
<path d="M28.6115 26.8124H28.2794C27.9126 26.8124 27.6152 27.1097 27.6152 27.4766C27.6152 27.8434 27.9126 28.1408 28.2794 28.1408H28.6115C28.9781 28.1408 29.2757 27.8434 29.2757 27.4766C29.2757 27.1097 28.9784 26.8124 28.6115 26.8124Z" fill="#F86E2D"/>
<path d="M25.6232 26.8124H25.2911C24.9243 26.8124 24.627 27.1097 24.627 27.4766C24.627 27.8434 24.9243 28.1408 25.2911 28.1408H25.6232C25.9899 28.1408 26.2874 27.8434 26.2874 27.4766C26.2874 27.1097 25.9901 26.8124 25.6232 26.8124Z" fill="#F86E2D"/>
<path d="M19.6467 26.8124H19.3146C18.9477 26.8124 18.6504 27.1097 18.6504 27.4766C18.6504 27.8434 18.9477 28.1408 19.3146 28.1408H19.6467C20.0133 28.1408 20.3109 27.8434 20.3109 27.4766C20.3109 27.1097 20.0135 26.8124 19.6467 26.8124Z" fill="#F86E2D"/>
<path d="M22.0461 20.3712C22.413 20.3712 22.7103 20.0739 22.7103 19.707C22.7103 19.3402 22.413 19.0428 22.0461 19.0428H21.714C21.3471 19.0428 21.0498 19.3402 21.0498 19.707C21.0498 20.0739 21.3471 20.3712 21.714 20.3712H22.0461Z" fill="#F86E2D"/>
<path d="M18.8568 10.3389C18.8568 9.97201 18.5594 9.67468 18.1926 9.67468H17.8605C17.4939 9.67468 17.1963 9.97201 17.1963 10.3389C17.1963 10.7057 17.4939 11.0031 17.8605 11.0031H18.1926C18.5594 11.0031 18.8568 10.7057 18.8568 10.3389Z" fill="#F86E2D"/>
<path d="M11.9656 11.513C12.0673 11.513 12.1703 11.4897 12.2671 11.4401C12.3514 11.397 12.4383 11.3566 12.5253 11.3197C12.8631 11.1768 13.0211 10.7868 12.8779 10.449C12.7349 10.1114 12.3452 9.95344 12.0074 10.0967C11.8914 10.1457 11.7757 10.1997 11.6631 10.257C11.3365 10.4238 11.2067 10.8239 11.3736 11.1506C11.4908 11.3807 11.7241 11.513 11.9656 11.513Z" fill="#F86E2D"/>
<path d="M14.8722 11.0031H15.2043C15.5712 11.0031 15.8685 10.7057 15.8685 10.3389C15.8685 9.97201 15.5712 9.67468 15.2043 9.67468H14.8722C14.5056 9.67468 14.208 9.97201 14.208 10.3389C14.208 10.7057 14.5056 11.0031 14.8722 11.0031Z" fill="#F86E2D"/>
<path d="M8.82581 15.9586C8.88263 16.2808 9.16283 16.5076 9.4791 16.5076C9.5175 16.5076 9.55642 16.5042 9.59534 16.4972C9.95676 16.4334 10.1978 16.0888 10.134 15.7277C10.1176 15.6343 10.1041 15.5396 10.0945 15.4454C10.0564 15.0806 9.72844 14.8157 9.36495 14.8536C9.00016 14.8917 8.73526 15.2184 8.77314 15.5832C8.78611 15.7082 8.80401 15.8346 8.82581 15.9586Z" fill="#F86E2D"/>
<path d="M9.6022 13.5299C9.69742 13.5773 9.7986 13.5999 9.89823 13.5999C10.1421 13.5999 10.3767 13.465 10.4932 13.232C10.5352 13.1474 10.5811 13.0634 10.6291 12.9819C10.8157 12.6659 10.7108 12.2586 10.3948 12.0723C10.0791 11.8857 9.67199 11.9905 9.48519 12.3063C9.42136 12.4145 9.36065 12.5266 9.30435 12.6389C9.14063 12.9671 9.27399 13.3662 9.6022 13.5299Z" fill="#F86E2D"/>
<path d="M10.3499 18.489L10.4384 18.5884C10.5697 18.7358 10.7518 18.8107 10.9347 18.8107C11.0917 18.8107 11.2495 18.7552 11.3761 18.6426C11.6501 18.3985 11.6744 17.9787 11.4303 17.7047L11.3418 17.6053C11.0977 17.3316 10.6781 17.3072 10.4042 17.5511C10.1302 17.7952 10.1058 18.215 10.3499 18.489Z" fill="#F86E2D"/>
<path d="M16.4568 18.9365C16.4101 18.6566 16.1909 18.4374 15.911 18.3907C14.3845 18.136 12.819 18.6372 11.7241 19.7321L10.4515 21.0047L2.41084 20.2377C2.21421 20.2192 2.01811 20.289 1.87803 20.4291L0.442774 21.8646C0.29336 22.014 0.223841 22.226 0.256007 22.4348C0.287913 22.6439 0.417613 22.8252 0.605159 22.923L5.81572 25.6404L4.1579 27.2983L2.44249 26.904C2.2194 26.8529 1.98594 26.9201 1.82408 27.0817L0.260935 28.6451C0.109186 28.7968 0.0401862 29.0124 0.0754645 29.2243C0.111002 29.436 0.246409 29.6173 0.439402 29.7115L3.59085 31.2484L5.13635 34.4087C5.23077 34.6014 5.41209 34.7368 5.62376 34.7721C5.66008 34.7781 5.69666 34.7812 5.73297 34.7812C5.90755 34.7812 6.07719 34.7122 6.20248 34.5866L7.76589 33.0232C7.92775 32.8614 7.99494 32.6274 7.94332 32.404L7.54721 30.6917L9.20711 29.0318L11.9246 34.2421C12.0224 34.4297 12.2037 34.5594 12.4128 34.5915C12.4465 34.5967 12.48 34.5993 12.5137 34.5993C12.6883 34.5993 12.8576 34.5301 12.9832 34.4048L14.4185 32.9695C14.5585 32.8294 14.6286 32.6341 14.6099 32.4367L13.8428 24.3961L15.1155 23.1235C16.2104 22.0286 16.7118 20.4633 16.4568 18.9365ZM2.02174 22.164L2.59605 21.5897L9.23357 22.2226L6.80014 24.656L2.02174 22.164ZM13.2579 32.2515L12.6838 32.8256L10.1915 28.0474L12.625 25.614L13.2579 32.2515ZM8.91114 27.4495C8.90958 27.4511 8.90828 27.4524 8.90673 27.4539L6.34749 30.0131C6.18562 30.1753 6.11844 30.4092 6.17006 30.6326L6.56616 32.3446L5.92104 32.99L4.68344 30.4598C4.61859 30.327 4.51094 30.2196 4.37813 30.1548L1.85832 28.9257L2.50345 28.2809L4.21886 28.6749C4.44168 28.7263 4.6754 28.6591 4.83726 28.4975L12.6634 20.6711C13.3362 19.9982 14.2543 19.6343 15.1933 19.6543C15.2125 20.5928 14.8493 21.5113 14.1764 22.1842L8.91114 27.4495Z" fill="#F86E2D"/>
</g>
<defs>
<clipPath id="clip0_1_19416">
<rect width="34" height="34" fill="white" transform="translate(0 0.781128)"/>
</clipPath>
</defs>
</svg>
