<svg width="20" height="21" viewBox="0 0 20 21" fill="none" xmlns="http://www.w3.org/2000/svg">
<g clip-path="url(#clip0_1_20531)">
<path d="M10 0.732422C6.48574 0.732422 3.55469 3.56328 3.55469 7.17773C3.55469 8.55281 3.96789 9.77899 4.7609 10.928L9.50676 18.3334C9.73699 18.6934 10.2635 18.6927 10.4932 18.3334L15.2597 10.9028C16.0356 9.80586 16.4453 8.51785 16.4453 7.17773C16.4453 3.62379 13.5539 0.732422 10 0.732422ZM10 10.1074C8.38465 10.1074 7.07031 8.79309 7.07031 7.17773C7.07031 5.56238 8.38465 4.24805 10 4.24805C11.6154 4.24805 12.9297 5.56238 12.9297 7.17773C12.9297 8.79309 11.6154 10.1074 10 10.1074Z" fill="#F86E2D"/>
<path d="M14.5806 14.1971L11.6302 18.8099C10.8665 20.0006 9.12926 19.9967 8.36922 18.811L5.41398 14.1983C2.81383 14.7995 1.21094 15.9008 1.21094 17.2168C1.21094 19.5005 5.73938 20.7324 10 20.7324C14.2606 20.7324 18.7891 19.5005 18.7891 17.2168C18.7891 15.8998 17.1839 14.7979 14.5806 14.1971Z" fill="#F86E2D"/>
</g>
<defs>
<clipPath id="clip0_1_20531">
<rect width="20" height="20" fill="white" transform="translate(0 0.732422)"/>
</clipPath>
</defs>
</svg>
