<svg width="36" height="36" viewBox="0 0 36 36" fill="none" xmlns="http://www.w3.org/2000/svg">
<g clip-path="url(#clip0_1_19372)">
<path d="M23.6627 23.3838C27.3724 17.5626 26.906 18.2889 27.0129 18.1371C28.3636 16.2321 29.0774 13.99 29.0774 11.6531C29.0774 5.45559 24.0483 0.350281 17.8427 0.350281C11.6574 0.350281 6.60804 5.44551 6.60804 11.6531C6.60804 13.9885 7.33687 16.2893 8.73174 18.22L12.0226 23.3838C8.50412 23.9245 2.52271 25.5358 2.52271 29.0838C2.52271 30.3772 3.36687 32.2203 7.38848 33.6566C10.1966 34.6595 13.9093 35.2118 17.8427 35.2118C25.198 35.2118 33.1627 33.137 33.1627 29.0838C33.1627 25.5352 27.1883 23.9256 23.6627 23.3838ZM10.438 17.0964C10.4267 17.0789 10.415 17.0617 10.4028 17.0448C9.24206 15.448 8.65071 13.5555 8.65071 11.6531C8.65071 6.54515 12.7637 2.39295 17.8427 2.39295C22.9112 2.39295 27.0347 6.54699 27.0347 11.6531C27.0347 13.5586 26.4545 15.3868 25.3566 16.9416C25.2582 17.0714 25.7715 16.2739 17.8427 28.7154L10.438 17.0964ZM17.8427 33.1692C9.80863 33.1692 4.56537 30.8076 4.56537 29.0838C4.56537 27.9252 7.25952 26.0202 13.2296 25.2776L16.9814 31.1648C17.1689 31.459 17.4937 31.6372 17.8427 31.6372C18.1916 31.6372 18.5165 31.459 18.7039 31.1648L22.4557 25.2776C28.4259 26.0202 31.1201 27.9252 31.1201 29.0838C31.1201 30.793 25.924 33.1692 17.8427 33.1692Z" fill="#F86E2D"/>
<path d="M17.8432 6.54639C15.0274 6.54639 12.7366 8.83724 12.7366 11.6531C12.7366 14.4689 15.0274 16.7597 17.8432 16.7597C20.6591 16.7597 22.9499 14.4689 22.9499 11.6531C22.9499 8.83724 20.6591 6.54639 17.8432 6.54639ZM17.8432 14.7171C16.1538 14.7171 14.7792 13.3426 14.7792 11.6531C14.7792 9.96357 16.1538 8.58906 17.8432 8.58906C19.5327 8.58906 20.9072 9.96357 20.9072 11.6531C20.9072 13.3426 19.5327 14.7171 17.8432 14.7171Z" fill="#F86E2D"/>
</g>
<defs>
<clipPath id="clip0_1_19372">
<rect width="34.8616" height="34.8616" fill="white" transform="translate(0.412354 0.350281)"/>
</clipPath>
</defs>
</svg>
