<svg width="18" height="18" viewBox="0 0 18 18" fill="none" xmlns="http://www.w3.org/2000/svg">
<g clip-path="url(#clip0_1_20424)">
<path d="M12.005 11.8923C13.9204 8.88673 13.6796 9.26171 13.7348 9.18334C14.4322 8.19974 14.8008 7.04208 14.8008 5.83545C14.8008 2.63553 12.2041 -0.000488281 9 -0.000488281C5.80634 -0.000488281 3.19922 2.63032 3.19922 5.83545C3.19922 7.04131 3.57553 8.22927 4.29574 9.22613L5.99491 11.8924C4.17822 12.1716 1.08984 13.0035 1.08984 14.8354C1.08984 15.5032 1.52571 16.4549 3.60218 17.1965C5.05209 17.7143 6.96906 17.9995 9 17.9995C12.7978 17.9995 16.9102 16.9282 16.9102 14.8354C16.9102 13.0032 13.8254 12.1721 12.005 11.8923ZM5.17672 8.64602C5.17092 8.63695 5.16488 8.62809 5.15855 8.61937C4.55924 7.79488 4.25391 6.81775 4.25391 5.83545C4.25391 3.1981 6.37755 1.0542 9 1.0542C11.617 1.0542 13.7461 3.19905 13.7461 5.83545C13.7461 6.81933 13.4465 7.76331 12.8796 8.56607C12.8288 8.63308 13.0939 8.22133 9 14.6452L5.17672 8.64602ZM9 16.9448C4.85177 16.9448 2.14453 15.7255 2.14453 14.8354C2.14453 14.2372 3.53559 13.2536 6.61809 12.8702L8.55527 15.9099C8.65209 16.0618 8.81979 16.1538 8.99996 16.1538C9.18014 16.1538 9.34787 16.0618 9.44466 15.9099L11.3818 12.8702C14.4644 13.2536 15.8555 14.2372 15.8555 14.8354C15.8555 15.7179 13.1726 16.9448 9 16.9448Z" fill="#F86E2D"/>
<path d="M9 3.19873C7.54611 3.19873 6.36328 4.38156 6.36328 5.83545C6.36328 7.28934 7.54611 8.47217 9 8.47217C10.4539 8.47217 11.6367 7.28934 11.6367 5.83545C11.6367 4.38156 10.4539 3.19873 9 3.19873ZM9 7.41748C8.12767 7.41748 7.41797 6.70778 7.41797 5.83545C7.41797 4.96312 8.12767 4.25342 9 4.25342C9.87233 4.25342 10.582 4.96312 10.582 5.83545C10.582 6.70778 9.87233 7.41748 9 7.41748Z" fill="#F86E2D"/>
</g>
<defs>
<clipPath id="clip0_1_20424">
<rect width="18" height="18" fill="white" transform="translate(0 -0.000488281)"/>
</clipPath>
</defs>
</svg>
