<svg width="26" height="26" viewBox="0 0 26 26" fill="none" xmlns="http://www.w3.org/2000/svg">
<g clip-path="url(#clip0_1_19452)">
<path d="M23.093 10.8881C23.093 10.7602 23.0409 10.6346 22.9505 10.5442C22.86 10.4537 22.7344 10.4017 22.6066 10.4017C22.4787 10.4017 22.3531 10.4537 22.2626 10.5442C22.1722 10.6346 22.1201 10.7602 22.1201 10.8881C22.1201 11.0166 22.1722 11.1416 22.2626 11.2321C22.3531 11.3231 22.4787 11.3746 22.6066 11.3746C22.7344 11.3746 22.86 11.3231 22.9505 11.2321C23.0409 11.1416 23.093 11.016 23.093 10.8881Z" fill="white"/>
<path d="M16.7679 9.09027L19.9039 13.1078C20.0895 13.3455 20.369 13.4819 20.6707 13.4819H20.6709C20.9726 13.4819 21.252 13.3455 21.4376 13.1074L21.7591 12.6955C21.9242 12.4837 21.8866 12.178 21.6747 12.0127C21.4631 11.8475 21.1574 11.8853 20.9921 12.0971L20.6707 12.5092L17.5638 8.5285C17.5531 8.51216 17.5417 8.49639 17.529 8.481C16.9285 7.75414 16.5977 6.83349 16.5977 5.88872C16.5977 4.79006 17.0286 3.76018 17.8107 2.98867C18.5929 2.21734 19.6296 1.80148 20.7286 1.81611C22.9581 1.84688 24.7593 3.68684 24.7439 5.9176C24.7374 6.85496 24.4213 7.73419 23.8297 8.45992C23.8242 8.46676 23.8189 8.4736 23.8135 8.48081L23.3855 9.02929C23.2204 9.24112 23.258 9.5468 23.4699 9.71208C23.6817 9.87717 23.9872 9.83956 24.1525 9.62773L24.5906 9.06633C24.5917 9.06462 24.593 9.06291 24.5944 9.0612C25.3102 8.17685 25.7086 7.06356 25.7166 5.92444C25.7356 3.16098 23.5041 0.881591 20.7419 0.843595C19.3805 0.824407 18.0965 1.34077 17.1277 2.29619C16.1587 3.25198 15.625 4.52789 15.625 5.88891C15.625 7.04285 16.0236 8.16811 16.7482 9.06291C16.7544 9.07222 16.7611 9.08134 16.7679 9.09027Z" fill="white"/>
<path d="M18.2305 5.88953C18.2305 7.23543 19.3254 8.33032 20.6713 8.33032C22.0172 8.33032 23.1122 7.23543 23.1122 5.88953C23.1122 4.54362 22.0172 3.44855 20.6713 3.44855C19.3254 3.44855 18.2305 4.54362 18.2305 5.88953ZM22.1393 5.88953C22.1393 6.69882 21.4807 7.35742 20.6713 7.35742C19.8618 7.35742 19.2032 6.69882 19.2032 5.88953C19.2032 5.08005 19.8618 4.42144 20.6713 4.42144C21.4807 4.42144 22.1393 5.08005 22.1393 5.88953Z" fill="white"/>
<path d="M23.5894 19.578C23.5321 19.6122 23.4726 19.6444 23.4123 19.6734C23.1705 19.7907 23.0694 20.0816 23.1864 20.3233C23.2704 20.4968 23.4439 20.5979 23.6246 20.5979C23.6957 20.5979 23.7679 20.5823 23.8363 20.5492C23.9214 20.508 24.0058 20.4626 24.0871 20.4143C24.318 20.2767 24.3938 19.9784 24.2562 19.7473C24.1188 19.5165 23.8205 19.4408 23.5894 19.578Z" fill="white"/>
<path d="M12.968 19.908H12.7247C12.456 19.908 12.2383 20.1258 12.2383 20.3945C12.2383 20.6632 12.456 20.8809 12.7247 20.8809H12.968C13.2364 20.8809 13.4544 20.6632 13.4544 20.3945C13.4544 20.1258 13.2366 19.908 12.968 19.908Z" fill="white"/>
<path d="M14.7255 15.1906C14.9942 15.1906 15.212 14.9728 15.212 14.7042C15.212 14.4355 14.9942 14.2177 14.7255 14.2177H14.4823C14.2136 14.2177 13.9958 14.4355 13.9958 14.7042C13.9958 14.9728 14.2136 15.1906 14.4823 15.1906H14.7255Z" fill="white"/>
<path d="M24.9875 16.8822C25.0534 16.8822 25.1207 16.8687 25.1847 16.8402C25.4304 16.7312 25.5408 16.4437 25.4317 16.1982C25.3932 16.1115 25.3506 16.0258 25.3052 15.9434C25.1756 15.7079 24.8797 15.6224 24.6443 15.752C24.4091 15.8818 24.3234 16.1776 24.4531 16.4129C24.4853 16.4712 24.5155 16.532 24.5426 16.5932C24.6232 16.7747 24.8011 16.8822 24.9875 16.8822Z" fill="white"/>
<path d="M25.2594 17.8281C25 17.7574 24.7327 17.9106 24.6624 18.1697C24.6447 18.2343 24.6242 18.2988 24.6012 18.3615C24.5087 18.6138 24.6381 18.8931 24.8902 18.9859C24.9455 19.006 25.0021 19.0157 25.0578 19.0157C25.256 19.0157 25.4422 18.8935 25.5144 18.6967C25.5471 18.6077 25.5762 18.5165 25.6011 18.4251C25.6716 18.1659 25.5186 17.8986 25.2594 17.8281Z" fill="white"/>
<path d="M21.2912 15.1906C21.5599 15.1906 21.7776 14.9728 21.7776 14.7042C21.7776 14.4355 21.5599 14.2177 21.2912 14.2177H21.048C20.7793 14.2177 20.5615 14.4355 20.5615 14.7042C20.5615 14.9728 20.7793 15.1906 21.048 15.1906H21.2912Z" fill="white"/>
<path d="M17.3451 19.908H17.1019C16.8332 19.908 16.6155 20.1258 16.6155 20.3945C16.6155 20.6632 16.8332 20.8809 17.1019 20.8809H17.3451C17.6136 20.8809 17.8316 20.6632 17.8316 20.3945C17.8316 20.1258 17.6138 19.908 17.3451 19.908Z" fill="white"/>
<path d="M23.4527 15.3977C23.645 15.3977 23.827 15.2829 23.9038 15.0938C24.0045 14.8447 23.8846 14.5612 23.6355 14.4603C23.5477 14.4248 23.4572 14.3925 23.3668 14.3647C23.1097 14.2857 22.8378 14.4297 22.7587 14.6864C22.6797 14.9434 22.8237 15.2155 23.0806 15.2945C23.1445 15.3143 23.2083 15.3369 23.2703 15.362C23.3301 15.3863 23.3919 15.3977 23.4527 15.3977Z" fill="white"/>
<path d="M19.1027 15.1906C19.3714 15.1906 19.5892 14.9728 19.5892 14.7042C19.5892 14.4355 19.3714 14.2177 19.1027 14.2177H18.8595C18.5908 14.2177 18.373 14.4355 18.373 14.7042C18.373 14.9728 18.5908 15.1906 18.8595 15.1906H19.1027Z" fill="white"/>
<path d="M21.7219 19.908H21.4786C21.2099 19.908 20.9922 20.1258 20.9922 20.3945C20.9922 20.6632 21.2099 20.8809 21.4786 20.8809H21.7219C21.9904 20.8809 22.2083 20.6632 22.2083 20.3945C22.2083 20.1258 21.9905 19.908 21.7219 19.908Z" fill="white"/>
<path d="M19.5336 19.908H19.2904C19.0217 19.908 18.804 20.1258 18.804 20.3945C18.804 20.6632 19.0217 20.8809 19.2904 20.8809H19.5336C19.8021 20.8809 20.0201 20.6632 20.0201 20.3945C20.0201 20.1258 19.8023 19.908 19.5336 19.908Z" fill="white"/>
<path d="M15.1564 19.908H14.9132C14.6445 19.908 14.4268 20.1258 14.4268 20.3945C14.4268 20.6632 14.6445 20.8809 14.9132 20.8809H15.1564C15.4249 20.8809 15.6429 20.6632 15.6429 20.3945C15.6429 20.1258 15.4251 19.908 15.1564 19.908Z" fill="white"/>
<path d="M16.9142 15.1906C17.1829 15.1906 17.4007 14.9728 17.4007 14.7042C17.4007 14.4355 17.1829 14.2177 16.9142 14.2177H16.671C16.4023 14.2177 16.1846 14.4355 16.1846 14.7042C16.1846 14.9728 16.4023 15.1906 16.671 15.1906H16.9142Z" fill="white"/>
<path d="M14.5782 7.84301C14.5782 7.57433 14.3604 7.35657 14.0917 7.35657H13.8485C13.58 7.35657 13.3621 7.57433 13.3621 7.84301C13.3621 8.1117 13.58 8.32946 13.8485 8.32946H14.0917C14.3604 8.32946 14.5782 8.1117 14.5782 7.84301Z" fill="white"/>
<path d="M9.53087 8.70302C9.60536 8.70302 9.68079 8.68592 9.75167 8.64963C9.81343 8.61808 9.87708 8.58844 9.94074 8.56146C10.1881 8.45676 10.3039 8.17116 10.199 7.92375C10.0943 7.67654 9.80887 7.56082 9.56146 7.66571C9.47652 7.70162 9.39178 7.74115 9.30931 7.78314C9.07007 7.90532 8.97507 8.19833 9.09725 8.43757C9.18314 8.60611 9.35396 8.70302 9.53087 8.70302Z" fill="white"/>
<path d="M11.6603 8.3294H11.9035C12.1722 8.3294 12.3899 8.11164 12.3899 7.84295C12.3899 7.57427 12.1722 7.35651 11.9035 7.35651H11.6603C11.3918 7.35651 11.1738 7.57427 11.1738 7.84295C11.1738 8.11164 11.3918 8.3294 11.6603 8.3294Z" fill="white"/>
<path d="M7.23164 11.9588C7.27326 12.1948 7.47848 12.3609 7.71011 12.3609C7.73823 12.3609 7.76674 12.3585 7.79524 12.3533C8.05994 12.3066 8.23646 12.0542 8.18972 11.7897C8.17775 11.7213 8.16787 11.652 8.16084 11.583C8.1329 11.3158 7.89272 11.1218 7.6265 11.1496C7.35934 11.1775 7.16533 11.4167 7.19307 11.6839C7.20257 11.7755 7.21568 11.868 7.23164 11.9588Z" fill="white"/>
<path d="M7.79966 10.1801C7.8694 10.2148 7.94351 10.2314 8.01647 10.2314C8.19509 10.2314 8.36687 10.1326 8.45219 9.96192C8.48297 9.89998 8.5166 9.83841 8.55176 9.77874C8.68838 9.5473 8.61161 9.24897 8.38017 9.11254C8.14892 8.97592 7.85078 9.05268 7.71396 9.28394C7.66722 9.36317 7.62275 9.44526 7.58152 9.52754C7.46162 9.76791 7.55929 10.0602 7.79966 10.1801Z" fill="white"/>
<path d="M8.34787 13.8121L8.41267 13.8848C8.50882 13.9928 8.64221 14.0477 8.77617 14.0477C8.89113 14.0477 9.00667 14.007 9.09939 13.9245C9.30005 13.7457 9.31792 13.4383 9.13911 13.2376L9.07431 13.1648C8.8955 12.9644 8.58824 12.9465 8.38758 13.1251C8.18693 13.3039 8.16906 13.6114 8.34787 13.8121Z" fill="white"/>
<path d="M12.8203 14.1398C12.7861 13.9348 12.6255 13.7743 12.4205 13.7401C11.3025 13.5536 10.156 13.9206 9.35406 14.7225L8.42202 15.6546L2.53319 15.0928C2.38919 15.0793 2.24556 15.1304 2.14297 15.233L1.09181 16.2843C0.98238 16.3938 0.931465 16.549 0.955023 16.7019C0.97839 16.855 1.07338 16.9878 1.21074 17.0595L5.02688 19.0497L3.81271 20.2639L2.55637 19.9751C2.39299 19.9377 2.222 19.9869 2.10346 20.1052L0.958632 21.2502C0.847494 21.3614 0.796959 21.5193 0.822796 21.6745C0.848824 21.8295 0.947993 21.9623 1.08934 22.0313L3.39741 23.1569L4.52932 25.4714C4.59847 25.6126 4.73127 25.7117 4.88629 25.7376C4.91289 25.742 4.93967 25.7442 4.96627 25.7442C5.09413 25.7442 5.21838 25.6937 5.31014 25.6017L6.45515 24.4567C6.5737 24.3382 6.6229 24.1668 6.5851 24.0033L6.295 22.7492L7.51068 21.5335L9.50092 25.3495C9.57254 25.4868 9.70534 25.5818 9.85846 25.6054C9.88316 25.6092 9.90767 25.6111 9.93236 25.6111C10.0602 25.6111 10.1843 25.5603 10.2762 25.4686L11.3274 24.4174C11.43 24.3148 11.4813 24.1718 11.4676 24.0272L10.9058 18.1384L11.8379 17.2063C12.6398 16.4044 13.007 15.2581 12.8203 14.1398ZM2.24822 16.5036L2.66884 16.083L7.53006 16.5465L5.74785 18.3287L2.24822 16.5036ZM10.4774 23.8915L10.057 24.312L8.23166 20.8125L10.0139 19.0303L10.4774 23.8915ZM7.29391 20.3746C7.29277 20.3758 7.29182 20.3767 7.29068 20.3779L5.41634 22.2522C5.29779 22.3709 5.24858 22.5423 5.28639 22.7059L5.57649 23.9597L5.10401 24.4324L4.19761 22.5793C4.15012 22.4821 4.07127 22.4034 3.974 22.3559L2.12853 21.4558L2.60101 20.9835L3.85736 21.2721C4.02055 21.3097 4.19172 21.2605 4.31027 21.1421L10.042 15.4102C10.5348 14.9174 11.2071 14.6509 11.8949 14.6655C11.9089 15.3529 11.643 16.0256 11.1501 16.5184L7.29391 20.3746Z" fill="white"/>
</g>
<defs>
<clipPath id="clip0_1_19452">
<rect width="24.9011" height="24.9011" fill="white" transform="translate(0.767578 0.843079)"/>
</clipPath>
</defs>
</svg>
