<svg width="25" height="25" viewBox="0 0 25 25" fill="none" xmlns="http://www.w3.org/2000/svg">
<path d="M4.80151 8.94336C4.64917 8.79102 4.64917 8.54395 4.80151 8.3916C4.95386 8.23926 5.20093 8.23926 5.35327 8.3916L6.10425 9.14258L7.28296 7.96484C7.4353 7.8125 7.68286 7.8125 7.83521 7.96533C7.98755 8.11768 7.98755 8.36475 7.83472 8.51758L6.38013 9.9707C6.30396 10.0469 6.20386 10.085 6.10425 10.085C6.00415 10.085 5.90454 10.0469 5.82837 9.9707L4.80151 8.94336ZM9.49976 9.35791H13.7366C13.9519 9.35791 14.1267 9.18311 14.1267 8.96777C14.1267 8.75244 13.9519 8.57764 13.7366 8.57764H9.49976C9.28442 8.57764 9.10962 8.75244 9.10962 8.96777C9.10962 9.18311 9.28394 9.35791 9.49976 9.35791ZM5.82837 13.5107C5.90161 13.584 6.00073 13.625 6.10425 13.6255C6.20776 13.6255 6.30688 13.5845 6.38013 13.5112L7.83472 12.0566C7.98706 11.9043 7.98706 11.6572 7.83472 11.5049C7.68237 11.3525 7.4353 11.3525 7.28296 11.5049L6.10425 12.6836L5.35327 11.9316C5.20093 11.7793 4.95386 11.7788 4.80151 11.9312C4.64917 12.0835 4.64868 12.3306 4.80103 12.4829L5.82837 13.5107ZM9.49976 12.8984H12.7468C12.9622 12.8984 13.137 12.7236 13.137 12.5083C13.137 12.293 12.9622 12.1182 12.7468 12.1182H9.49976C9.28442 12.1182 9.10962 12.293 9.10962 12.5083C9.10962 12.7236 9.28394 12.8984 9.49976 12.8984ZM5.82837 17.0513C5.90161 17.1245 6.00073 17.1655 6.10425 17.166C6.20776 17.166 6.30688 17.125 6.38013 17.0518L7.83472 15.5972C7.98706 15.4448 7.98706 15.1978 7.83472 15.0454C7.68237 14.8931 7.4353 14.8931 7.28296 15.0454L6.10425 16.2241L5.35327 15.4722C5.20093 15.3198 4.95386 15.3193 4.80151 15.4717C4.64917 15.624 4.64868 15.8711 4.80103 16.0234L5.82837 17.0513ZM9.49976 16.438H13.7366C13.9519 16.438 14.1267 16.2632 14.1267 16.0479C14.1267 15.8325 13.9519 15.6577 13.7366 15.6577H9.49976C9.28442 15.6577 9.10962 15.8325 9.10962 16.0479C9.10962 16.2632 9.28394 16.438 9.49976 16.438ZM5.82837 20.5903C5.90161 20.6636 6.00073 20.7046 6.10425 20.7051C6.20776 20.7051 6.30688 20.6641 6.38013 20.5908L7.83472 19.1377C7.98706 18.9854 7.98755 18.7383 7.83521 18.5854C7.68286 18.4331 7.43579 18.4331 7.28296 18.585L6.10425 19.7622L5.35327 19.0103C5.20093 18.8579 4.95386 18.8574 4.80151 19.0098C4.64917 19.1621 4.64868 19.4092 4.80103 19.5615L5.82837 20.5903ZM9.49976 19.9785H13.7366C13.9519 19.9785 14.1267 19.8037 14.1267 19.5884C14.1267 19.373 13.9519 19.1982 13.7366 19.1982H9.49976C9.28442 19.1982 9.10962 19.373 9.10962 19.5884C9.10962 19.8037 9.28394 19.9785 9.49976 19.9785ZM23.6399 12.5C23.6399 15.1626 21.4734 17.3291 18.8108 17.3291C18.3401 17.3291 17.885 17.2612 17.4543 17.1348V23.4951C17.4543 24.3247 16.7786 24.9995 15.9485 24.9995H2.86548C2.03491 24.9995 1.35962 24.3247 1.35962 23.4951V4.23828C1.35962 3.40772 2.03491 2.73242 2.86548 2.73242H5.24634C5.46851 2.3457 5.87427 2.08594 6.33667 2.08594H7.08569C7.26392 0.905273 8.23706 0 9.40698 0C10.5769 0 11.55 0.905273 11.7283 2.08594H12.4773C12.9402 2.08594 13.3455 2.3457 13.5676 2.73242H15.9485C16.7791 2.73242 17.4543 3.40772 17.4543 4.23828V7.86523C17.885 7.73877 18.3401 7.6709 18.8108 7.6709C21.4734 7.6709 23.6399 9.8374 23.6399 12.5ZM15.9485 3.51318H13.7478V4.24658H15.6482C15.864 4.24658 16.0383 4.42139 16.0383 4.63672V8.54883C16.2395 8.40723 16.4519 8.28076 16.6736 8.1709V4.23828C16.6736 3.83838 16.3484 3.51318 15.9485 3.51318ZM3.5564 5.02734V22.7065H15.2576V15.7656C14.4666 14.9053 13.9827 13.7578 13.9827 12.5C13.9827 11.2417 14.4666 10.0947 15.2576 9.23438V5.02734H13.6521C13.4617 5.50928 13.0066 5.84961 12.4768 5.84961H6.33716C5.80737 5.84961 5.3523 5.50928 5.16187 5.02734H3.5564ZM5.84692 3.41211V4.52344C5.84692 4.81885 6.07153 5.06885 6.33667 5.06885H12.4763C12.7419 5.06885 12.9661 4.81934 12.9661 4.52344V3.41211C12.9661 3.1167 12.7415 2.8667 12.4763 2.8667H11.3669C11.1511 2.8667 10.9768 2.69189 10.9768 2.47656C10.9768 1.5415 10.2727 0.78125 9.40698 0.78125C8.54126 0.78125 7.83765 1.54199 7.83765 2.47656C7.83765 2.69189 7.66284 2.8667 7.44751 2.8667H6.33765C6.07153 2.8667 5.84692 3.11621 5.84692 3.41211ZM16.6736 16.8296C16.4519 16.7197 16.2395 16.5933 16.0383 16.4517V23.0972C16.0383 23.3125 15.8635 23.4873 15.6482 23.4873H3.16626C2.95093 23.4873 2.77612 23.3125 2.77612 23.0972V4.63672C2.77612 4.4209 2.95093 4.24658 3.16626 4.24658H5.06665V3.51318H2.86548C2.46558 3.51318 2.14038 3.83838 2.14038 4.23828V23.4951C2.14038 23.894 2.46558 24.2192 2.86548 24.2192H15.948C16.3479 24.2192 16.6731 23.8945 16.6731 23.4951V16.8296H16.6736ZM22.8591 12.5C22.8591 10.2676 21.0432 8.45166 18.8108 8.45166C16.5793 8.45166 14.7634 10.2676 14.7634 12.5C14.7634 14.7324 16.5789 16.5483 18.8108 16.5483C21.0427 16.5483 22.8591 14.7324 22.8591 12.5ZM22.2986 12.5C22.2986 14.4233 20.7341 15.9878 18.8108 15.9878C16.8884 15.9878 15.3245 14.4233 15.3245 12.5C15.3245 10.5767 16.8884 9.01221 18.8108 9.01221C20.7336 9.01221 22.2986 10.5767 22.2986 12.5ZM21.5178 12.5C21.5178 11.0073 20.3035 9.79248 18.8103 9.79248C17.3181 9.79248 16.1042 11.0068 16.1042 12.5C16.1042 13.9932 17.3181 15.2075 18.8103 15.2075C20.3035 15.2075 21.5178 13.9927 21.5178 12.5ZM20.0798 12.1099H19.2009V10.7437C19.2009 10.5278 19.0261 10.3535 18.8108 10.3535C18.5955 10.3535 18.4207 10.5283 18.4207 10.7437V12.5C18.4207 12.7158 18.5955 12.8901 18.8108 12.8901H20.0798C20.2957 12.8901 20.47 12.7153 20.47 12.5C20.47 12.2847 20.2952 12.1099 20.0798 12.1099Z" fill="white"/>
</svg>
