<svg width="25" height="25" viewBox="0 0 25 25" fill="none" xmlns="http://www.w3.org/2000/svg">
<g clip-path="url(#clip0_1_19478)">
<path d="M12.5006 0.781555H1.2522C1.03657 0.781555 0.861572 0.956555 0.861572 1.17218V23.8284C0.861572 24.0441 1.03657 24.2191 1.2522 24.2191H23.7491C23.9647 24.2191 24.1397 24.0441 24.1397 23.8284V9.89445C24.1397 9.67882 23.9647 9.50382 23.7491 9.50382H12.8913V1.17218C12.8913 0.956555 12.7163 0.781555 12.5006 0.781555ZM1.64282 1.56281H12.11V23.4378H1.64282V1.56281ZM23.3584 10.2851V23.4378H12.8913V10.2851H23.3584Z" fill="white"/>
<path d="M5.31901 2.98645H2.92439C2.70873 2.98645 2.53369 3.16149 2.53369 3.37715V5.77177C2.53369 5.98744 2.70873 6.16248 2.92439 6.16248H5.31901C5.53468 6.16248 5.70972 5.98744 5.70972 5.77177V3.37715C5.70972 3.16149 5.53468 2.98645 5.31901 2.98645ZM4.92831 5.38107H3.3151V3.76786H4.92831V5.38107Z" fill="white"/>
<path d="M10.3842 2.98645H7.98958C7.77391 2.98645 7.59888 3.16149 7.59888 3.37715V5.77177C7.59888 5.98744 7.77391 6.16248 7.98958 6.16248H10.3842C10.5999 6.16248 10.7749 5.98744 10.7749 5.77177V3.37715C10.7749 3.16149 10.5999 2.98645 10.3842 2.98645ZM9.9935 5.38107H8.38028V3.76786H9.9935V5.38107Z" fill="white"/>
<path d="M5.31901 8.30627H2.92439C2.70873 8.30627 2.53369 8.48131 2.53369 8.69698V11.0916C2.53369 11.3073 2.70873 11.4823 2.92439 11.4823H5.31901C5.53468 11.4823 5.70972 11.3073 5.70972 11.0916V8.69698C5.70972 8.48131 5.53468 8.30627 5.31901 8.30627ZM4.92831 10.7009H3.3151V9.08768H4.92831V10.7009Z" fill="white"/>
<path d="M10.3842 8.3064H7.98958C7.77391 8.3064 7.59888 8.48143 7.59888 8.6971V11.0917C7.59888 11.3074 7.77391 11.4824 7.98958 11.4824H10.3842C10.5999 11.4824 10.7749 11.3074 10.7749 11.0917V8.6971C10.7749 8.48143 10.5999 8.3064 10.3842 8.3064ZM9.9935 10.701H8.38028V9.0878H9.9935V10.701Z" fill="white"/>
<path d="M5.31901 13.6263H2.92439C2.70873 13.6263 2.53369 13.8014 2.53369 14.017V16.4117C2.53369 16.6273 2.70873 16.8024 2.92439 16.8024H5.31901C5.53468 16.8024 5.70972 16.6273 5.70972 16.4117V14.017C5.70972 13.8014 5.53468 13.6263 5.31901 13.6263ZM4.92831 16.021H3.3151V14.4077H4.92831V16.021Z" fill="white"/>
<path d="M10.3842 13.6263H7.98958C7.77391 13.6263 7.59888 13.8013 7.59888 14.017V16.4116C7.59888 16.6273 7.77391 16.8023 7.98958 16.8023H10.3842C10.5999 16.8023 10.7749 16.6273 10.7749 16.4116V14.017C10.7749 13.8013 10.5999 13.6263 10.3842 13.6263ZM9.9935 16.0209H8.38028V14.4077H9.9935V16.0209Z" fill="white"/>
<path d="M5.31901 18.9462H2.92439C2.70873 18.9462 2.53369 19.1212 2.53369 19.3369V21.7315C2.53369 21.9472 2.70873 22.1222 2.92439 22.1222H5.31901C5.53468 22.1222 5.70972 21.9472 5.70972 21.7315V19.3369C5.70972 19.1212 5.53468 18.9462 5.31901 18.9462ZM4.92831 21.3408H3.3151V19.7276H4.92831V21.3408Z" fill="white"/>
<path d="M10.3842 18.9462H7.98958C7.77391 18.9462 7.59888 19.1213 7.59888 19.3369V21.7316C7.59888 21.9472 7.77391 22.1223 7.98958 22.1223H10.3842C10.5999 22.1223 10.7749 21.9472 10.7749 21.7316V19.3369C10.7749 19.1213 10.5999 18.9462 10.3842 18.9462ZM9.9935 21.3408H8.38028V19.7276H9.9935V21.3408Z" fill="white"/>
<path d="M14.2767 15.6055H16.6713C16.887 15.6055 17.062 15.4304 17.062 15.2148V12.8201C17.062 12.6045 16.887 12.4294 16.6713 12.4294H14.2767C14.061 12.4294 13.886 12.6045 13.886 12.8201V15.2148C13.886 15.4304 14.061 15.6055 14.2767 15.6055ZM14.6674 13.2108H16.2806V14.8241H14.6674V13.2108Z" fill="white"/>
<path d="M19.3424 15.6055H21.737C21.9527 15.6055 22.1277 15.4304 22.1277 15.2148V12.8201C22.1277 12.6045 21.9527 12.4294 21.737 12.4294H19.3424C19.1267 12.4294 18.9517 12.6045 18.9517 12.8201V15.2148C18.9517 15.4304 19.1267 15.6055 19.3424 15.6055ZM19.7331 13.2108H21.3463V14.8241H19.7331V13.2108Z" fill="white"/>
<path d="M14.2767 20.925H16.6713C16.887 20.925 17.062 20.75 17.062 20.5343V18.1397C17.062 17.924 16.887 17.749 16.6713 17.749H14.2767C14.061 17.749 13.886 17.924 13.886 18.1397V20.5343C13.886 20.75 14.061 20.925 14.2767 20.925ZM14.6674 18.5304H16.2806V20.1436H14.6674V18.5304Z" fill="white"/>
<path d="M19.3424 20.925H21.737C21.9527 20.925 22.1277 20.75 22.1277 20.5343V18.1397C22.1277 17.924 21.9527 17.749 21.737 17.749H19.3424C19.1267 17.749 18.9517 17.924 18.9517 18.1397V20.5343C18.9517 20.75 19.1267 20.925 19.3424 20.925ZM19.7331 18.5304H21.3463V20.1436H19.7331V18.5304Z" fill="white"/>
</g>
<defs>
<clipPath id="clip0_1_19478">
<rect width="25" height="25" fill="white" transform="translate(0.000488281 0.00012207)"/>
</clipPath>
</defs>
</svg>
