<svg width="26" height="25" viewBox="0 0 26 25" fill="none" xmlns="http://www.w3.org/2000/svg">
<g clip-path="url(#clip0_1_19509)">
<path fill-rule="evenodd" clip-rule="evenodd" d="M20.0668 22.3458H5.95131C4.58722 22.3458 3.46924 21.2278 3.46924 19.8637V4.24002C3.46924 1.33255 8.41228 -0.010437 13.0108 -0.010437C17.6058 -0.010437 22.5488 1.31146 22.5488 4.24002V19.8426C22.5488 21.2278 21.4308 22.3458 20.0668 22.3458ZM13.0108 0.720824C8.63729 0.720824 4.18292 1.94428 4.18292 4.24002V19.8426C4.18292 20.82 4.97395 21.6145 5.95131 21.6145H20.0668C21.0441 21.6145 21.8387 20.82 21.8387 19.8426V4.24002C21.8387 2.91812 20.3937 2.106 19.1949 1.65951C17.5671 1.04778 15.3698 0.720824 13.0108 0.720824Z" fill="white"/>
<path fill-rule="evenodd" clip-rule="evenodd" d="M15.4078 4.12056H10.6089C10.2644 4.12056 9.9585 3.83579 9.9585 3.48773V2.42951C9.9585 2.06388 10.2433 1.77911 10.6089 1.77911H15.4078C15.7769 1.77911 16.0617 2.06388 16.0617 2.42951V3.48773C16.0617 3.83579 15.7769 4.12056 15.4078 4.12056ZM10.6687 3.40687H15.348V2.4928H10.6687V3.40687Z" fill="white"/>
<path fill-rule="evenodd" clip-rule="evenodd" d="M22.2043 14.3511H3.83487C3.63096 14.3511 3.46924 14.1894 3.46924 13.9855C3.46924 13.7816 3.63096 13.6199 3.83487 13.6199H22.2043C22.4082 13.6199 22.5699 13.7816 22.5699 13.9855C22.5699 14.1894 22.3871 14.3511 22.2043 14.3511ZM22.2043 5.72717H3.83487C3.63096 5.72717 3.46924 5.56545 3.46924 5.37912C3.46924 5.1963 3.63096 5.01349 3.83487 5.01349H22.2043C22.4082 5.01349 22.5699 5.17873 22.5699 5.37912C22.5699 5.58303 22.3871 5.72717 22.2043 5.72717Z" fill="white"/>
<path fill-rule="evenodd" clip-rule="evenodd" d="M12.9894 14.3511C12.7855 14.3511 12.6238 14.1894 12.6238 13.9855V5.36152C12.6238 5.15761 12.7855 4.99237 12.9894 4.99237C13.1933 4.99237 13.3339 5.1787 13.3339 5.36152V13.9855C13.3339 14.1894 13.1933 14.3511 12.9894 14.3511Z" fill="white"/>
<path fill-rule="evenodd" clip-rule="evenodd" d="M20.7205 14.3511C20.5166 14.3511 20.3513 14.1894 20.3513 13.9855V5.36152C20.3513 5.15761 20.5166 4.99237 20.7205 4.99237C20.9209 4.99237 21.065 5.1787 21.065 5.36152V13.9855C21.065 14.1894 20.9209 14.3511 20.7205 14.3511ZM5.32178 14.3511C5.11787 14.3511 4.95264 14.1894 4.95264 13.9855V5.36152C4.95264 5.15761 5.11787 4.99237 5.32178 4.99237C5.52218 4.99237 5.68741 5.15761 5.68741 5.36152V13.9855C5.66632 14.1894 5.5046 14.3511 5.32178 14.3511Z" fill="white"/>
<path fill-rule="evenodd" clip-rule="evenodd" d="M8.14895 19.6006H6.11296C5.68748 19.6006 5.33936 19.256 5.33936 18.827V17.2587C5.33936 16.8333 5.68748 16.4886 6.11296 16.4886H8.14895C8.57443 16.4886 8.92255 16.8333 8.92255 17.2587V18.8059C8.92255 19.256 8.57443 19.6006 8.14895 19.6006ZM6.11296 17.2201C6.07428 17.2201 6.05318 17.2587 6.05318 17.2798V18.827C6.05318 18.8692 6.09186 18.8868 6.11296 18.8868H8.14895C8.18763 18.8868 8.20872 18.8481 8.20872 18.827V17.2587C8.20872 17.2412 8.18763 17.199 8.14895 17.199H6.11296V17.2201Z" fill="white"/>
<path fill-rule="evenodd" clip-rule="evenodd" d="M19.9263 19.6006H17.8903C17.4648 19.6006 17.1167 19.256 17.1167 18.827V17.2587C17.1167 16.8333 17.4648 16.4886 17.8903 16.4886H19.9263C20.3518 16.4886 20.6999 16.8333 20.6999 17.2587V18.8059C20.6999 19.256 20.3518 19.6006 19.9263 19.6006ZM17.8903 17.2201C17.8516 17.2201 17.8305 17.2587 17.8305 17.2798V18.827C17.8305 18.8692 17.8727 18.8868 17.8903 18.8868H19.9263C19.9685 18.8868 19.9861 18.8481 19.9861 18.827V17.2587C19.9861 17.2412 19.9685 17.199 19.9263 17.199H17.8903V17.2201Z" fill="white"/>
<path fill-rule="evenodd" clip-rule="evenodd" d="M16.1218 16.791H9.91666C9.71275 16.791 9.55103 16.6293 9.55103 16.4254C9.55103 16.2215 9.71275 16.0598 9.91666 16.0598H16.1218C16.3257 16.0598 16.4875 16.2215 16.4875 16.4254C16.4875 16.6293 16.3257 16.791 16.1218 16.791Z" fill="white"/>
<path fill-rule="evenodd" clip-rule="evenodd" d="M14.9837 18.338H11.0559C10.8519 18.338 10.6902 18.1763 10.6902 17.9723C10.6902 17.7684 10.8519 17.6066 11.0559 17.6066H14.9837C15.1876 17.6066 15.3494 17.7684 15.3494 17.9723C15.3494 18.1763 15.1665 18.338 14.9837 18.338Z" fill="white"/>
<path fill-rule="evenodd" clip-rule="evenodd" d="M13.823 19.885H12.216C12.0121 19.885 11.8503 19.7232 11.8503 19.5193C11.8503 19.3153 12.0121 19.1536 12.216 19.1536H13.823C14.027 19.1536 14.1887 19.3153 14.1887 19.5193C14.1887 19.7232 14.027 19.885 13.823 19.885Z" fill="white"/>
<path fill-rule="evenodd" clip-rule="evenodd" d="M23.3434 12.0739H22.2041C22.0001 12.0739 21.8384 11.9122 21.8384 11.7082C21.8384 11.5043 22.0001 11.3425 22.2041 11.3425H23.3434C23.7724 11.3425 24.1381 10.9768 24.1381 10.5478V8.75798C24.1381 8.32898 23.79 7.96328 23.3434 7.96328H22.2041C22.0001 7.96328 21.8384 7.80153 21.8384 7.59758C21.8384 7.39363 22.0001 7.23187 22.2041 7.23187H23.3434C24.1768 7.23187 24.8484 7.9035 24.8484 8.73688V10.5267C24.8273 11.4023 24.1557 12.0739 23.3434 12.0739Z" fill="white"/>
<path fill-rule="evenodd" clip-rule="evenodd" d="M3.83499 12.0739H2.69569C1.8623 12.0739 1.19067 11.4023 1.19067 10.5689V8.77906C1.19067 7.94216 1.8623 7.27405 2.69569 7.27405H3.83499C4.03894 7.27405 4.2007 7.4358 4.2007 7.63975C4.2007 7.8437 4.03894 8.00546 3.83499 8.00546H2.69569C2.2702 8.00546 1.90098 8.37116 1.90098 8.79664V10.59C1.90098 11.0366 2.2702 11.3812 2.69569 11.3812H3.83499C4.03894 11.3812 4.2007 11.5465 4.2007 11.7469C4.2007 11.9508 4.03894 12.0739 3.83499 12.0739Z" fill="white"/>
<path fill-rule="evenodd" clip-rule="evenodd" d="M8.43397 25.0112H7.96629C7.03093 25.0112 6.25732 24.2376 6.25732 23.3023V21.959C6.25732 21.7551 6.41908 21.5933 6.62303 21.5933C6.82698 21.5933 6.98873 21.7551 6.98873 21.959V23.3023C6.98873 23.8508 7.43531 24.2974 7.98739 24.2974H8.45506C8.98252 24.2974 9.4291 23.8508 9.4291 23.3023V21.959C9.4291 21.7551 9.59437 21.5933 9.79481 21.5933C9.99876 21.5933 10.164 21.7551 10.164 21.959V23.3023C10.1218 24.2587 9.36932 25.0112 8.43397 25.0112Z" fill="white"/>
<path fill-rule="evenodd" clip-rule="evenodd" d="M18.073 25.0112H17.6053C16.67 25.0112 15.9175 24.2376 15.9175 23.3023V21.959C15.9175 21.7551 16.0792 21.5933 16.2832 21.5933C16.4871 21.5933 16.6489 21.7551 16.6489 21.959V23.3023C16.6489 23.8508 17.099 24.2974 17.6264 24.2974H18.0941C18.6427 24.2974 19.0928 23.8508 19.0928 23.3023V21.959C19.0928 21.7551 19.2545 21.5933 19.4585 21.5933C19.6624 21.5933 19.8242 21.7551 19.8242 21.959V23.3023C19.7644 24.2587 19.0119 25.0112 18.073 25.0112Z" fill="white"/>
</g>
<defs>
<clipPath id="clip0_1_19509">
<rect width="25" height="25" fill="white" transform="translate(0.519043 6.10352e-05)"/>
</clipPath>
</defs>
</svg>
