<svg width="26" height="25" viewBox="0 0 26 25" fill="none" xmlns="http://www.w3.org/2000/svg">
<g clip-path="url(#clip0_1_19494)">
<path d="M25.0224 3.28835C24.9748 3.18866 24.8895 3.11196 24.7854 3.07493L16.1424 0.0237918C15.9255 -0.0529089 15.6875 0.0610232 15.6108 0.277901L13.6475 5.83331H12.7887V4.41669C12.7887 4.02891 12.6087 3.66311 12.3015 3.4265C11.994 3.18988 11.5945 3.10932 11.2195 3.2084L1.20793 5.84715V5.85468C1.02645 5.90025 0.898885 6.0628 0.897461 6.24998V23.75C0.897461 24.4403 1.45715 25 2.14746 25H13.8141C14.5044 25 15.0641 24.4403 15.0641 23.75V19.9692L18.4058 21.1488C18.6229 21.2253 18.8609 21.1116 18.9374 20.8945L25.0403 3.60675C25.0769 3.50238 25.0704 3.38784 25.0224 3.28835ZM11.4321 4.01203C11.557 3.97907 11.6905 4.00592 11.7928 4.08466C11.8954 4.1636 11.9554 4.28567 11.9554 4.41506V5.83331H4.52701L11.4321 4.01203ZM14.2308 23.75C14.2308 23.9801 14.0442 24.1666 13.8141 24.1666H2.14746C1.91736 24.1666 1.73079 23.9801 1.73079 23.75V6.66665H13.8141C14.0442 6.66665 14.2308 6.85321 14.2308 7.08331V23.75ZM17.6559 8.25295L18.1891 8.00006L18.4432 8.53167L16.4187 14.2612C16.3821 14.3654 16.3882 14.4799 16.4358 14.5796L16.8695 15.487L16.7355 15.8675L15.909 15.0118C15.8183 14.917 15.6881 14.8708 15.5579 14.8866L15.0641 14.9491V14.3908L15.4195 14.2208C15.5192 14.1731 15.5959 14.0879 15.633 13.9837L16.4663 11.6272L17.6559 8.25295ZM18.4416 11.0341L19.2875 12.3934L19.1429 12.8029L18.1307 11.9167L18.4416 11.0341ZM15.0641 13.0912V11.9462L15.4741 11.9291L15.0641 13.0912ZM15.7725 11.0829L15.0641 11.112V10.5574L16.0842 10.2016L15.7725 11.0829ZM18.29 20.2242L15.0641 19.0854V15.7891L15.4545 15.7403L16.6059 16.9313C16.6848 17.0119 16.793 17.0568 16.9057 17.0562C16.9354 17.0564 16.9651 17.0532 16.994 17.0467C17.1352 17.016 17.2502 16.9144 17.2982 16.7783L17.7149 15.5995C17.7517 15.4954 17.7456 15.3808 17.6978 15.2813L17.262 14.375L17.832 12.7604L19.0562 13.8334C19.1321 13.8999 19.2297 13.9367 19.3309 13.9367C19.3665 13.9367 19.4019 13.9321 19.4363 13.9229C19.5699 13.8879 19.6775 13.789 19.7237 13.6588L20.1404 12.48C20.1825 12.3606 20.1681 12.2288 20.1011 12.1213L18.797 10.0262L19.2853 8.64337C19.3221 8.539 19.316 8.42446 19.2682 8.32456L18.76 7.26174C18.6607 7.05401 18.4119 6.96612 18.2042 7.06541L17.1407 7.57383C17.0412 7.62144 16.9645 7.70668 16.9279 7.81085L16.439 9.19533L15.0641 9.67506V7.08331C15.0631 6.64976 14.8369 6.24774 14.4666 6.02211L15.1475 4.09117L15.3003 3.65802L16.2588 0.949694L24.1166 3.72333L18.29 20.2242Z" fill="white"/>
<path d="M21.5774 6.36146L21.8548 5.57538L22.5694 5.8275L22.2921 6.61359L21.5774 6.36146Z" fill="white"/>
<path d="M15.8623 4.3438L16.1399 3.55792L16.8543 3.81025L16.5768 4.59613L15.8623 4.3438Z" fill="white"/>
<path d="M20.1484 5.85707L20.426 5.07098L21.1405 5.32331L20.8629 6.10919L20.1484 5.85707Z" fill="white"/>
<path d="M17.2913 4.84838L17.5688 4.0625L18.2831 4.31483L18.0055 5.10071L17.2913 4.84838Z" fill="white"/>
<path d="M18.7197 5.35235L18.9973 4.56647L19.7117 4.8188L19.4342 5.60468L18.7197 5.35235Z" fill="white"/>
<path d="M7.78897 8.33325C5.48775 8.33325 3.62231 10.1987 3.62231 12.4999C3.62231 14.8011 5.48775 16.6666 7.78897 16.6666C10.0902 16.6666 11.9556 14.8011 11.9556 12.4999C11.9532 10.1999 10.0892 8.3359 7.78897 8.33325ZM10.7978 11.0754L10.2294 10.9504C9.97932 10.8953 9.72928 10.8516 9.4768 10.8137C9.43855 10.5612 9.39359 10.31 9.33987 10.0612L9.21475 9.49292C9.90831 9.82312 10.4674 10.3818 10.7978 11.0754ZM4.45565 12.4999C4.45646 12.3296 4.47029 12.1595 4.49735 11.9913L5.52763 11.762C5.68571 11.727 5.8448 11.6979 6.00431 11.6704C5.96403 12.2226 5.96403 12.7772 6.00431 13.3296C5.8448 13.3021 5.68571 13.2728 5.52763 13.2378L4.49735 13.0087C4.47029 12.8405 4.45646 12.6704 4.45565 12.4999ZM6.84985 11.5612C7.47444 11.5054 8.10269 11.5054 8.72729 11.5612C8.78324 12.1858 8.78324 12.814 8.72729 13.4386C8.10269 13.4946 7.47444 13.4946 6.84985 13.4386C6.7939 12.814 6.7939 12.1858 6.84985 11.5612ZM9.57181 11.6704C9.73152 11.6979 9.89061 11.727 10.0485 11.762L11.079 11.9913C11.1367 12.328 11.1367 12.672 11.079 13.0087L10.0485 13.2378C9.89061 13.2728 9.73152 13.3021 9.57181 13.33C9.61229 12.7774 9.61229 12.2228 9.57181 11.6704ZM8.2974 9.20829L8.52648 10.2392C8.56147 10.3971 8.59097 10.5561 8.61864 10.7159C8.06607 10.6754 7.51147 10.6754 6.9589 10.7159C6.98657 10.5561 7.01566 10.3971 7.05106 10.2392L7.28015 9.20829C7.61686 9.15112 7.96069 9.15112 8.2974 9.20829ZM6.36401 9.48987L6.23889 10.0583C6.18396 10.3083 6.14021 10.5584 6.10237 10.8109C5.84989 10.8487 5.59863 10.8941 5.34981 10.9474L4.78137 11.0725C5.11218 10.3796 5.67085 9.82129 6.36401 9.49129V9.48987ZM4.78056 13.9232L5.349 14.0484C5.59904 14.1033 5.84887 14.147 6.10156 14.1849C6.1394 14.4374 6.18477 14.6886 6.23807 14.9374L6.3632 15.5057C5.66963 15.1759 5.11076 14.6176 4.77974 13.9245L4.78056 13.9232ZM7.28055 15.7891L7.05147 14.7582C7.01607 14.6007 6.98697 14.4412 6.9593 14.2819C7.23518 14.3021 7.51228 14.3157 7.78938 14.3157C8.06648 14.3157 8.34277 14.3021 8.61905 14.2819C8.59138 14.4412 8.56188 14.6007 8.52689 14.7582L8.2978 15.7891C7.96109 15.8463 7.61726 15.8463 7.28055 15.7891ZM9.21394 15.5075L9.33906 14.9391C9.3944 14.689 9.43773 14.4392 9.47598 14.1865C9.72806 14.1487 9.97973 14.1033 10.2285 14.05L10.7968 13.9249C10.4666 14.619 9.9075 15.1783 9.21353 15.5087L9.21394 15.5075Z" fill="white"/>
<path d="M4.45532 20H11.122V20.8333H4.45532V20Z" fill="white"/>
<path d="M5.28833 21.6667H10.2893V22.5002H5.28833V21.6667Z" fill="white"/>
<path d="M7.37231 18.3333H8.20581V19.1668H7.37231V18.3333Z" fill="white"/>
<path d="M5.70532 18.3333H6.53882V19.1668H5.70532V18.3333Z" fill="white"/>
<path d="M9.03833 18.3333H9.87183V19.1668H9.03833V18.3333Z" fill="white"/>
</g>
<defs>
<clipPath id="clip0_1_19494">
<rect width="25" height="25" fill="white" transform="translate(0.480713)"/>
</clipPath>
</defs>
</svg>
