<svg width="30" height="24" viewBox="0 0 30 24" fill="none" xmlns="http://www.w3.org/2000/svg">
<path d="M2.66249 21.9262C0.930106 20.0069 0 17.8543 0 14.3648C0 8.22452 4.13249 2.72104 10.142 0L11.644 2.41753C6.03475 5.58243 4.93814 9.68942 4.50084 12.2789C5.40403 11.7912 6.58643 11.621 7.74527 11.7333C10.7795 12.0262 13.1712 14.6245 13.1712 17.8543C13.1712 19.4828 12.551 21.0446 11.447 22.1961C10.343 23.3477 8.84569 23.9946 7.28443 23.9946C6.42102 23.9867 5.56774 23.7998 4.77425 23.4447C3.98076 23.0896 3.26292 22.5734 2.66249 21.9262ZM19.4818 21.9262C17.7494 20.0069 16.8193 17.8543 16.8193 14.3648C16.8193 8.22452 20.9518 2.72104 26.9613 0L28.4633 2.41753C22.854 5.58243 21.7574 9.68942 21.3201 12.2789C22.2233 11.7912 23.4057 11.621 24.5645 11.7333C27.5987 12.0262 29.9904 14.6245 29.9904 17.8543C29.9904 19.4828 29.3702 21.0446 28.2663 22.1961C27.1623 23.3477 25.665 23.9946 24.1037 23.9946C23.2403 23.9867 22.387 23.7998 21.5935 23.4447C20.8 23.0896 20.0822 22.5734 19.4818 21.9262Z" fill="#F86E2D"/>
</svg>
