<svg width="50" height="51" viewBox="0 0 50 51" fill="none" xmlns="http://www.w3.org/2000/svg">
<g clip-path="url(#clip0_1_15719)">
<path d="M34.2458 29.8742C34.4903 29.897 34.7281 29.7872 34.8691 29.5863C35.01 29.3854 35.0324 29.1243 34.9277 28.9024L32.4295 23.6099C33.0412 23.445 33.5875 23.1212 34.0764 22.6323C35.0104 21.6981 35.348 20.5575 35.1085 19.1451C34.9487 18.2015 35.3191 17.3072 36.0994 16.753C37.2675 15.9234 37.8354 14.8781 37.8354 13.5573C37.8354 12.2364 37.2676 11.1911 36.0994 10.3615C35.3191 9.80734 34.9487 8.91302 35.1086 7.96922C35.3476 6.55635 35.01 5.41579 34.0763 4.48214C33.1422 3.548 32.0014 3.21031 30.5892 3.45001C29.6456 3.60988 28.7513 3.23949 28.197 2.45917C27.3673 1.29099 26.322 0.723145 25.0013 0.723145C23.6805 0.723145 22.6351 1.29099 21.8055 2.45917C21.2513 3.23949 20.3568 3.60998 19.4133 3.44992C18.0005 3.21089 16.8599 3.54849 15.9263 4.48224C14.9926 5.41599 14.6546 6.55694 14.8941 7.96942C15.054 8.91302 14.6836 9.80734 13.9032 10.3615C12.7351 11.1912 12.1673 12.2365 12.1673 13.5573C12.1673 14.878 12.7351 15.9234 13.9032 16.7529C14.6835 17.3072 15.054 18.2015 14.894 19.1452C14.655 20.558 14.9926 21.6986 15.9264 22.6323C16.4259 23.1318 16.9852 23.4591 17.6129 23.6204L15.1117 28.9195C15.007 29.1415 15.0292 29.4026 15.1702 29.6035C15.3113 29.8045 15.5487 29.9139 15.7935 29.8913L18.6708 29.6209L20.5171 31.8442C20.6482 32.0021 20.8415 32.091 21.0427 32.091C21.0822 32.091 21.1219 32.0876 21.1617 32.0805C21.4033 32.0378 21.6035 31.8687 21.6861 31.6375L23.6441 26.1554C24.0609 26.3129 24.5121 26.3913 25.0014 26.3913C25.5054 26.3913 25.969 26.3079 26.3961 26.1407L28.3533 31.6203C28.4359 31.8515 28.636 32.0206 28.8777 32.0634C28.9174 32.0704 28.9571 32.0738 28.9967 32.0738C29.1977 32.0738 29.3912 31.9849 29.5222 31.8271L31.3686 29.6037L34.2458 29.8742ZM20.8024 30.0492L19.4913 28.4705C19.3471 28.2968 19.1266 28.2056 18.9017 28.2268L16.8587 28.4188L19.0817 23.7094C19.1907 23.6977 19.3009 23.6835 19.4133 23.6645C20.357 23.5046 21.2514 23.875 21.8054 24.6554C22.0099 24.9433 22.2278 25.1944 22.4594 25.4099L20.8023 30.0493L20.8024 30.0492ZM22.9196 23.8641C22.1871 22.8328 21.0743 22.2601 19.8562 22.2601C19.6355 22.2601 19.411 22.279 19.1852 22.3172C18.2012 22.484 17.5157 22.2892 16.8925 21.666C16.2695 21.043 16.0747 20.3573 16.2412 19.3732C16.4908 17.9001 15.9125 16.5041 14.6943 15.6388C13.8807 15.061 13.5336 14.4384 13.5336 13.5571C13.5336 12.6757 13.8807 12.0532 14.6943 11.4753C15.9126 10.6101 16.4909 9.21403 16.2412 7.74084C16.0744 6.75712 16.2691 6.07147 16.8924 5.44819C17.5154 4.82511 18.2009 4.6305 19.1852 4.797C20.658 5.04686 22.0543 4.46828 22.9196 3.25022C23.4974 2.43662 24.12 2.08946 25.0013 2.08946C25.8825 2.08946 26.5051 2.43662 27.0831 3.25032C27.9482 4.46828 29.344 5.04628 30.8176 4.7971C31.8011 4.6303 32.4869 4.82501 33.1102 5.44829C33.7332 6.07118 33.9279 6.75692 33.7615 7.74094C33.5119 9.21403 34.0901 10.6101 35.3083 11.4753C36.1219 12.0532 36.4691 12.6758 36.4691 13.5571C36.4691 14.4383 36.1219 15.0609 35.3082 15.6388C34.0901 16.504 33.5118 17.9001 33.7614 19.3733C33.9282 20.357 33.7335 21.0427 33.1102 21.6659C32.4873 22.289 31.8017 22.4839 30.8175 22.3172C29.3444 22.0675 27.9483 22.6458 27.0831 23.864C26.5051 24.6777 25.8825 25.0249 25.0013 25.0249C24.12 25.0249 23.4974 24.6777 22.9196 23.8641ZM30.5477 28.4533L29.2368 30.0319L27.5747 25.3788C27.7944 25.1701 28.0019 24.9299 28.197 24.6553C28.7513 23.8749 29.6456 23.5045 30.5893 23.6645C30.7179 23.6863 30.8435 23.7016 30.9675 23.7137L33.1802 28.4015L31.1372 28.2095C30.9123 28.1884 30.6919 28.2796 30.5476 28.4533H30.5477ZM33.3155 13.5572C33.3155 8.97266 29.5858 5.24294 25.0013 5.24294C20.4168 5.24294 16.6871 8.97266 16.6871 13.5572C16.6871 18.1417 20.4168 21.8714 25.0013 21.8714C29.5858 21.8714 33.3155 18.1417 33.3155 13.5572ZM25.0013 20.505C21.1703 20.505 18.0535 17.3882 18.0535 13.5572C18.0535 9.72614 21.1703 6.60935 25.0013 6.60935C28.8323 6.60935 31.9491 9.72614 31.9491 13.5572C31.9491 17.3882 28.8323 20.505 25.0013 20.505ZM30.4758 11.8017C30.3468 11.4046 30.0093 11.1254 29.5951 11.0734L27.0547 10.7542L25.9661 8.43683C25.7885 8.05892 25.4188 7.82419 25.0013 7.82419C24.5837 7.82419 24.2141 8.05902 24.0366 8.43683L22.9479 10.7542L20.4076 11.0734C19.9932 11.1254 19.6557 11.4046 19.5268 11.8015C19.3977 12.1986 19.5067 12.6227 19.8114 12.9084L21.6789 14.66L21.1976 17.1745C21.1191 17.5847 21.2802 17.9919 21.6178 18.2371C21.9555 18.4826 22.3926 18.5099 22.7585 18.3086L25.0013 17.0738L27.2442 18.3087C27.4069 18.3982 27.5837 18.4426 27.7596 18.4426C27.9791 18.4426 28.1971 18.3735 28.3845 18.2373C28.7223 17.992 28.8834 17.5848 28.805 17.1745L28.3237 14.6599L30.1913 12.9082C30.4957 12.6225 30.6046 12.1985 30.4757 11.8016L30.4758 11.8017ZM27.1146 13.9206C26.9438 14.0808 26.8669 14.3173 26.911 14.5473L27.3428 16.8032L25.3308 15.6955C25.1256 15.5826 24.8769 15.5826 24.6718 15.6955L22.6597 16.8033L23.0915 14.5474C23.1355 14.3175 23.0587 14.0809 22.8879 13.9207L21.2126 12.3495L23.4916 12.063C23.724 12.0338 23.9251 11.8876 24.0247 11.6756L25.0014 9.59682L25.978 11.6756C26.0775 11.8875 26.2788 12.0337 26.5111 12.063L28.79 12.3495L27.1147 13.9207L27.1146 13.9206ZM19.2265 34.9599C18.638 32.9594 17.1759 31.8388 15.483 30.5411C13.6419 29.13 11.5556 27.5309 9.6799 24.2862C9.25222 23.4867 8.45521 23.003 7.54489 22.9916C6.96904 22.9842 6.43419 23.1672 6.00543 23.5019C5.50093 20.3053 5.19622 15.9222 5.19622 14.0684C5.19622 12.5036 4.29605 11.6222 3.40398 11.4427C2.42846 11.2465 1.50232 11.825 1.04477 12.9167C0.40968 14.4324 0.340969 20.4071 0.445305 23.269C0.541734 25.9122 0.721417 27.9864 2.16279 30.6153C2.84804 31.8652 3.68682 33.0809 4.49808 34.2566C4.8392 34.7511 5.16147 35.2181 5.45847 35.6681C6.75383 37.6308 7.62687 39.2554 7.87273 41.0163C7.1497 41.1655 6.53403 41.706 6.33024 42.4664L5.36478 46.0696C5.31793 46.2446 5.34243 46.4311 5.433 46.588C5.52357 46.745 5.6728 46.8594 5.8478 46.9063L16.9859 49.8907C17.0441 49.9063 17.1035 49.9141 17.1628 49.9141C17.2816 49.9141 17.3996 49.883 17.5044 49.8225C17.6613 49.7319 17.7758 49.5827 17.8226 49.4077L18.7881 45.8046C19.0089 44.9809 18.6822 44.1386 18.0336 43.661C19.4474 39.6543 19.8149 36.9598 19.2265 34.96V34.9599ZM17.4683 45.4508L16.6796 48.3939L6.86139 45.7632L7.65 42.82C7.74262 42.4747 8.09848 42.2694 8.44389 42.3616L17.0098 44.6569C17.3551 44.7494 17.5608 45.1056 17.4683 45.4508ZM16.7561 43.1742L9.26676 41.1675C9.02071 38.765 7.76937 36.6889 6.59894 34.9154C6.29413 34.4536 5.96805 33.9809 5.62283 33.4806C4.83119 32.3332 4.01261 31.1468 3.36103 29.9584C2.06109 27.5874 1.90327 25.7506 1.81094 23.2192C1.68035 19.6378 1.87174 14.4792 2.30509 13.4448C2.50595 12.9659 2.81583 12.7181 3.1347 12.7822C3.46956 12.8496 3.82991 13.2807 3.82991 14.0683C3.82991 16.5237 4.31625 22.9247 5.11082 26.0154L5.1114 26.0152C5.49234 28.7944 8.67188 32.4863 10.0897 33.3897C10.408 33.5925 10.8302 33.4989 11.033 33.1807C11.2359 32.8625 11.1423 32.4402 10.824 32.2374C10.1051 31.7793 8.74381 30.3357 7.70983 28.7127C6.63456 27.0247 6.19507 25.5685 6.56302 24.9122C6.76057 24.5599 7.12393 24.3562 7.52761 24.3577C7.93412 24.3627 8.28948 24.5791 8.47805 24.9364C8.48205 24.9441 8.48625 24.9516 8.49054 24.959C10.5038 28.4461 12.8036 30.2089 14.6516 31.6254C16.2778 32.8719 17.4528 33.7725 17.9156 35.3455C18.41 37.0261 18.0414 39.521 16.756 43.1741L16.7561 43.1742ZM48.9577 12.9167C48.5001 11.8251 47.5741 11.2468 46.5986 11.4427C45.7065 11.6221 44.8063 12.5036 44.8063 14.0684C44.8063 15.922 44.5017 20.3047 43.9972 23.5014C43.5687 23.1665 43.0341 22.9835 42.4577 22.9916C41.5474 23.0031 40.7503 23.4867 40.3227 24.2862C38.447 27.5309 36.3606 29.1299 34.5196 30.5411C32.8266 31.8387 31.3646 32.9594 30.776 34.9599C30.1877 36.9597 30.5552 39.6542 31.9689 43.6609C31.3203 44.1385 30.9937 44.9807 31.2144 45.8044L32.1799 49.4075C32.2268 49.5825 32.3413 49.7317 32.4982 49.8223C32.6029 49.8828 32.7209 49.9139 32.8398 49.9139C32.8989 49.9139 32.9585 49.9062 33.0166 49.8905L44.1548 46.9061C44.3298 46.8592 44.479 46.7448 44.5696 46.5878C44.6601 46.4309 44.6847 46.2444 44.6378 46.0694L43.6723 42.4662C43.4685 41.7059 42.8527 41.1655 42.1298 41.0162C42.3757 39.2554 43.2487 37.6307 44.544 35.668C44.8409 35.2181 45.1631 34.7513 45.5041 34.257C46.3153 33.0811 47.1543 31.8652 47.8397 30.6152C49.2811 27.9861 49.4608 25.9121 49.5572 23.2689C49.6616 20.407 49.5929 14.4324 48.9576 12.9166L48.9577 12.9167ZM42.3526 42.82L43.1412 45.7633L33.3229 48.394L32.5343 45.4508C32.4418 45.1056 32.6474 44.7494 32.9926 44.6569L41.5587 42.3616C41.6147 42.3466 41.6709 42.3395 41.7262 42.3395C42.0124 42.3395 42.2751 42.5308 42.3526 42.82ZM48.1917 23.2192C48.0994 25.7506 47.9417 27.5872 46.6415 29.9585C45.9899 31.1471 45.1712 32.3336 44.3794 33.4812C44.0342 33.9814 43.7083 34.4539 43.4035 34.9155C42.2331 36.689 40.9819 38.7651 40.7358 41.1676L33.2464 43.1743C31.9609 39.5212 31.5924 37.0262 32.0868 35.3457C32.5495 33.7727 33.7245 32.8722 35.3508 31.6256C37.1987 30.2091 39.4985 28.4463 41.5118 24.9592C41.5161 24.9517 41.5203 24.9442 41.5243 24.9366C41.713 24.5793 42.0682 24.363 42.4748 24.3579C42.884 24.3567 43.2419 24.5601 43.4394 24.9125C43.8074 25.5688 43.3679 27.025 42.2926 28.7129C41.2587 30.3358 39.8973 31.7794 39.1785 32.2376C38.8603 32.4404 38.7667 32.8627 38.9694 33.1809C39.1722 33.499 39.5944 33.5927 39.9127 33.3899C41.3306 32.4865 44.5102 28.7947 44.8912 26.0154L44.8917 26.0156C45.6863 22.9245 46.1726 16.5236 46.1726 14.0685C46.1726 13.281 46.5329 12.8498 46.8679 12.7824C47.1864 12.7184 47.4967 12.966 47.6975 13.4449C48.131 14.4794 48.3223 19.6379 48.1917 23.2192ZM37.4961 7.95907C37.3075 7.63231 37.4194 7.21448 37.7462 7.02581L39.4282 6.05469C39.7551 5.86612 40.1728 5.97797 40.3615 6.30474C40.5502 6.63151 40.4382 7.04934 40.1114 7.238L38.4294 8.20913C38.3217 8.2712 38.2043 8.30077 38.0884 8.30077C37.8523 8.30077 37.6226 8.17829 37.4961 7.95907ZM40.1114 19.8762C40.4382 20.0649 40.5502 20.4827 40.3615 20.8095C40.235 21.0287 40.0054 21.1512 39.7692 21.1512C39.6532 21.1512 39.5358 21.1217 39.4282 21.0595L37.7462 20.0884C37.4194 19.8998 37.3075 19.4819 37.4961 19.1552C37.6849 18.8283 38.1026 18.7163 38.4294 18.9051L40.1114 19.8762ZM39.6793 12.874H41.6215C41.9989 12.874 42.3047 13.1798 42.3047 13.5572C42.3047 13.9345 41.9989 14.2404 41.6215 14.2404H39.6793C39.3019 14.2404 38.9961 13.9345 38.9961 13.5572C38.9961 13.1798 39.3019 12.874 39.6793 12.874ZM11.5733 18.9051C11.9002 18.7165 12.318 18.8284 12.5065 19.1552C12.6952 19.4819 12.5832 19.8998 12.2565 20.0884L10.5744 21.0595C10.4668 21.1216 10.3493 21.1512 10.2335 21.1512C9.9974 21.1512 9.76774 21.0287 9.64116 20.8095C9.45249 20.4827 9.56444 20.0649 9.89121 19.8762L11.5733 18.9051ZM7.69783 13.5572C7.69783 13.1798 8.00371 12.874 8.38103 12.874H10.3234C10.7007 12.874 11.0066 13.1798 11.0066 13.5572C11.0066 13.9345 10.7007 14.2404 10.3234 14.2404H8.38103C8.00371 14.2404 7.69783 13.9345 7.69783 13.5572ZM9.64116 6.30474C9.82982 5.97787 10.2477 5.86593 10.5744 6.05469L12.2565 7.02581C12.5832 7.21448 12.6952 7.63231 12.5065 7.95907C12.38 8.17829 12.1504 8.30077 11.9143 8.30077C11.7983 8.30077 11.6809 8.2713 11.5733 8.20913L9.89121 7.238C9.56444 7.04934 9.45249 6.63151 9.64116 6.30474Z" fill="#F86E2D"/>
</g>
<defs>
<clipPath id="clip0_1_15719">
<rect width="49.9716" height="49.9716" fill="white" transform="translate(0.0148926 0.33252)"/>
</clipPath>
</defs>
</svg>
