<svg width="48" height="51" viewBox="0 0 48 51" fill="none" xmlns="http://www.w3.org/2000/svg">
<path d="M46.4527 33.145C47.1352 33.145 47.6904 32.5899 47.6904 31.9073V29.7121C47.6904 29.2247 47.403 28.7813 46.9583 28.5824L36.7649 24.0202V3.20941C36.7649 1.72949 35.5609 0.525391 34.0809 0.525391H2.99579C1.51577 0.525391 0.311768 1.72949 0.311768 3.20941V46.7354C0.311768 48.2153 1.51577 49.4194 2.99579 49.4194H20.4014C20.4804 50.0263 20.9995 50.497 21.6276 50.497H46.4527C47.1352 50.497 47.6904 49.9418 47.6904 49.2592V47.242C47.6904 46.5596 47.1352 46.0042 46.4527 46.0042H46.0776V33.145H46.4527ZM39.5501 46.0043V33.145H41.5849V46.0043H39.5501ZM23.4666 33.145H25.0312V46.0043H23.4666V33.145ZM26.4953 33.145H28.5301V46.0043H26.4953V33.145ZM31.5588 46.0043H29.9941V33.145H31.5588V46.0043ZM33.0228 33.145H35.0576V46.0043H33.0228V33.145ZM38.0861 46.0043H36.5215V33.145H38.0861V46.0043ZM46.2263 31.681H21.8538V29.8588L34.0401 24.4046L46.2263 29.8587V31.681ZM8.28732 1.9894H34.0808C34.7535 1.9894 35.3008 2.53665 35.3008 3.20941V6.22616H8.28732V1.9894ZM1.77578 3.20941C1.77578 2.53665 2.32303 1.9894 2.99579 1.9894H6.8233V6.22616H1.77578V3.20941ZM20.3898 47.242V47.9554H2.99579C2.32303 47.9554 1.77578 47.4081 1.77578 46.7354V7.69017H35.3009V23.365L34.5457 23.027C34.2245 22.8832 33.856 22.8832 33.5345 23.027L21.1222 28.5823C20.6773 28.7813 20.3899 29.2247 20.3899 29.7121V31.9073C20.3899 32.5898 20.9452 33.145 21.6277 33.145H22.0028V46.0043H21.6277C20.9451 46.0043 20.3898 46.5596 20.3898 47.242ZM46.2263 49.033H21.8538V47.4684H46.2263V49.033ZM44.6136 46.0043H43.0489V33.145H44.6136V46.0043Z" fill="#F86E2D"/>
<path d="M31.6663 28.3249C31.6663 29.6341 32.7314 30.6993 34.0406 30.6993C35.3498 30.6993 36.4149 29.6341 36.4149 28.3249C36.4149 27.0158 35.3498 25.9507 34.0406 25.9507C32.7314 25.9507 31.6663 27.0158 31.6663 28.3249ZM34.9508 28.3249C34.9508 28.8269 34.5425 29.2352 34.0405 29.2352C33.5385 29.2352 33.1302 28.8268 33.1302 28.3249C33.1302 27.8231 33.5385 27.4147 34.0405 27.4147C34.5425 27.4147 34.9508 27.8231 34.9508 28.3249Z" fill="#F86E2D"/>
<path d="M12.7063 9.60693C8.45287 9.60693 4.99243 13.0674 4.99243 17.3208C4.99243 21.5743 8.45287 25.0347 12.7063 25.0347C16.9598 25.0347 20.4202 21.5743 20.4202 17.3208C20.4202 13.0674 16.9598 9.60693 12.7063 9.60693ZM12.7063 23.5707C11.5536 23.5707 10.4737 23.2557 9.54561 22.7093C10.0643 21.9879 10.8054 21.4728 11.651 21.2374C11.9877 21.3283 12.3413 21.3775 12.7063 21.3775C13.0713 21.3775 13.4249 21.3282 13.7617 21.2374C14.6072 21.4728 15.3484 21.9879 15.867 22.7093C14.9389 23.2557 13.859 23.5707 12.7063 23.5707ZM10.1135 17.3208C10.1135 15.8913 11.2767 14.7281 12.7062 14.7281C14.1358 14.7281 15.2989 15.8913 15.2989 17.3208C15.2989 18.7504 14.1358 19.9135 12.7062 19.9135C11.2767 19.9135 10.1135 18.7504 10.1135 17.3208ZM17.0335 21.8239C16.5915 21.2175 16.0343 20.7188 15.3998 20.3508C16.2354 19.6072 16.7631 18.5247 16.7631 17.3208C16.7631 15.0839 14.9432 13.2641 12.7064 13.2641C10.4696 13.2641 8.64973 15.084 8.64973 17.3208C8.64973 18.5247 9.17736 19.6072 10.013 20.3508C9.37842 20.7188 8.82121 21.2175 8.37928 21.8239C7.19557 20.686 6.45664 19.0886 6.45664 17.3208C6.45664 13.8745 9.26032 11.0709 12.7065 11.0709C16.1527 11.0709 18.9564 13.8746 18.9564 17.3208C18.9562 19.0886 18.2172 20.686 17.0335 21.8239Z" fill="#F86E2D"/>
<path d="M9.43424 37.3407H7.28644C6.82879 37.3407 6.45644 36.9684 6.45644 36.5106C6.45644 36.1063 6.1287 35.7786 5.72444 35.7786C5.32018 35.7786 4.99243 36.1063 4.99243 36.5106C4.99243 37.7756 6.02153 38.8047 7.28644 38.8047H7.62834V39.5045C7.62834 39.9089 7.95608 40.2365 8.36034 40.2365C8.76461 40.2365 9.09235 39.9089 9.09235 39.5045V38.8047H9.43424C10.6992 38.8047 11.7283 37.7756 11.7283 36.5106V36.055C11.7283 34.7901 10.6992 33.761 9.43424 33.761H7.28644C6.82879 33.761 6.45644 33.3888 6.45644 32.931V32.4754C6.45644 32.0178 6.82879 31.6454 7.28644 31.6454H9.43424C9.89189 31.6454 10.2642 32.0177 10.2642 32.4754C10.2642 32.8798 10.592 33.2074 10.9962 33.2074C11.4005 33.2074 11.7283 32.8798 11.7283 32.4754C11.7283 31.2105 10.6992 30.1814 9.43424 30.1814H9.09235V29.4815C9.09235 29.0772 8.76461 28.7495 8.36034 28.7495C7.95608 28.7495 7.62834 29.0772 7.62834 29.4815V30.1814H7.28644C6.02153 30.1814 4.99243 31.2105 4.99243 32.4754V32.931C4.99243 34.1959 6.02153 35.225 7.28644 35.225H9.43424C9.89189 35.225 10.2642 35.5973 10.2642 36.055V36.5106C10.2642 36.9684 9.89189 37.3407 9.43424 37.3407Z" fill="#F86E2D"/>
<path d="M18.3424 29.3481H13.753C13.3487 29.3481 13.021 29.6758 13.021 30.0802C13.021 30.4845 13.3487 30.8122 13.753 30.8122H18.3424C18.7467 30.8122 19.0744 30.4845 19.0744 30.0802C19.0744 29.6758 18.7467 29.3481 18.3424 29.3481Z" fill="#F86E2D"/>
<path d="M18.3424 32.457H13.753C13.3487 32.457 13.021 32.7847 13.021 33.189C13.021 33.5934 13.3487 33.921 13.753 33.921H18.3424C18.7467 33.921 19.0744 33.5934 19.0744 33.189C19.0744 32.7847 18.7467 32.457 18.3424 32.457Z" fill="#F86E2D"/>
<path d="M18.3424 35.5659H13.753C13.3487 35.5659 13.021 35.8936 13.021 36.2979C13.021 36.7023 13.3487 37.0299 13.753 37.0299H18.3424C18.7467 37.0299 19.0744 36.7023 19.0744 36.2979C19.0744 35.8936 18.7467 35.5659 18.3424 35.5659Z" fill="#F86E2D"/>
<path d="M18.3424 38.6743H13.753C13.3487 38.6743 13.021 39.002 13.021 39.4063C13.021 39.8107 13.3487 40.1383 13.753 40.1383H18.3424C18.7467 40.1383 19.0744 39.8107 19.0744 39.4063C19.0744 39.002 18.7467 38.6743 18.3424 38.6743Z" fill="#F86E2D"/>
<path d="M18.3419 42.5229H5.72444C5.32018 42.5229 4.99243 42.8506 4.99243 43.255C4.99243 43.6593 5.32018 43.987 5.72444 43.987H18.342C18.7462 43.987 19.074 43.6593 19.074 43.255C19.074 42.8506 18.7462 42.5229 18.3419 42.5229Z" fill="#F86E2D"/>
<path d="M22.6834 13.2262H31.3516C31.7559 13.2262 32.0836 12.8986 32.0836 12.4942C32.0836 12.0899 31.7559 11.7622 31.3516 11.7622H22.6834C22.2792 11.7622 21.9514 12.0899 21.9514 12.4942C21.9514 12.8986 22.2792 13.2262 22.6834 13.2262Z" fill="#F86E2D"/>
<path d="M22.6834 16.9308H24.6677C25.072 16.9308 25.3997 16.6032 25.3997 16.1988C25.3997 15.7944 25.072 15.4668 24.6677 15.4668H22.6834C22.2792 15.4668 21.9514 15.7944 21.9514 16.1988C21.9514 16.6032 22.2792 16.9308 22.6834 16.9308Z" fill="#F86E2D"/>
<path d="M31.352 15.4668H27.0623C26.6581 15.4668 26.3303 15.7944 26.3303 16.1988C26.3303 16.6032 26.6581 16.9308 27.0623 16.9308H31.352C31.7562 16.9308 32.084 16.6032 32.084 16.1988C32.084 15.7944 31.7563 15.4668 31.352 15.4668Z" fill="#F86E2D"/>
<path d="M22.6834 20.6354H31.3516C31.7559 20.6354 32.0836 20.3078 32.0836 19.9034C32.0836 19.499 31.7559 19.1714 31.3516 19.1714H22.6834C22.2792 19.1714 21.9514 19.499 21.9514 19.9034C21.9514 20.3078 22.2792 20.6354 22.6834 20.6354Z" fill="#F86E2D"/>
</svg>
