<svg width="51" height="51" viewBox="0 0 51 51" fill="none" xmlns="http://www.w3.org/2000/svg">
<g clip-path="url(#clip0_1_15704)">
<path d="M41.7821 0.0883789H8.40304C5.28171 0.0883789 2.74219 2.62791 2.74219 5.74923V41.8611C2.74219 43.4758 4.0556 44.7892 5.67021 44.7892H18.4883C19.0274 44.7892 19.4643 44.3523 19.4643 43.8132C19.4643 43.2741 19.0274 42.8372 18.4883 42.8372H5.67021C5.13188 42.8372 4.6942 42.3995 4.6942 41.8611V5.74923C4.6942 3.70418 6.35799 2.0404 8.40304 2.0404H37.511C36.6467 3.0347 36.1213 4.33135 36.1213 5.74923V37.2026C36.1213 38.1031 35.3889 38.8355 34.4884 38.8355C33.7846 38.8355 33.162 38.3868 32.939 37.7192L31.4681 33.3058C31.0529 32.0599 29.8912 31.223 28.5782 31.223C26.8984 31.223 25.532 32.5895 25.532 34.2689V35.0291H20.4731C19.934 35.0291 19.4971 35.4664 19.4971 36.0051C19.4971 36.5442 19.934 36.9811 20.4731 36.9811H25.532V41.8367C25.532 43.2779 25.813 44.6832 26.3673 46.013L27.8031 49.4591C27.9594 49.8339 28.322 50.06 28.7044 50.06C28.8294 50.06 28.9568 50.036 29.0792 49.9849C29.5771 49.7775 29.8123 49.206 29.6049 48.7085L28.1691 45.2623C27.7147 44.1715 27.484 43.019 27.484 41.8371V34.2693C27.484 33.6657 27.9747 33.1751 28.5782 33.1751C29.0498 33.1751 29.4673 33.4755 29.6163 33.9231L31.0872 38.3365C31.576 39.8024 32.9428 40.7875 34.4884 40.7875C36.4652 40.7875 38.0733 39.1794 38.0733 37.2026V20.469L39.3776 21.7706C41.7047 24.0932 42.9861 27.1833 42.9861 30.4708V40.8459C42.9861 43.5333 42.3773 46.2372 41.2259 48.6654C40.9948 49.1522 41.2026 49.7344 41.6895 49.9654C42.1763 50.1965 42.7585 49.9891 42.9896 49.5018C44.2641 46.814 44.9381 43.8208 44.9381 40.8459V30.4708C44.9381 26.661 43.4532 23.0806 40.7566 20.389L38.0733 17.7107V16.7781H44.515C46.1296 16.7781 47.443 15.4647 47.443 13.8501V5.74923C47.443 2.62791 44.9038 0.0883789 41.7821 0.0883789ZM45.491 13.8501C45.491 14.388 45.0533 14.8261 44.515 14.8261H38.0733V5.74923C38.0733 3.70418 39.7371 2.0404 41.7821 2.0404C43.8272 2.0404 45.491 3.70418 45.491 5.74923V13.8501Z" fill="#F86E2D"/>
<path d="M22.7504 42.8369C22.4935 42.8369 22.2418 42.9414 22.0604 43.1229C21.8789 43.3047 21.7744 43.5563 21.7744 43.8129C21.7744 44.0699 21.8789 44.3215 22.0604 44.503C22.2418 44.6845 22.4935 44.7889 22.7504 44.7889C23.007 44.7889 23.2586 44.6845 23.4405 44.503C23.622 44.3215 23.7264 44.0699 23.7264 43.8129C23.7264 43.5563 23.622 43.3047 23.4405 43.1229C23.2586 42.9414 23.007 42.8369 22.7504 42.8369Z" fill="#F86E2D"/>
<path d="M16.1792 7.3109C16.1792 6.23463 15.3034 5.35889 14.2272 5.35889H9.93273C8.85607 5.35889 7.98071 6.23463 7.98071 7.3109V11.6053C7.98071 12.6816 8.85607 13.5574 9.93273 13.5574H14.2272C15.3034 13.5574 16.1792 12.6816 16.1792 11.6053V7.3109ZM14.2272 11.6053H9.93273V7.3109H14.2272L14.2283 11.6053C14.2283 11.6053 14.2279 11.6053 14.2272 11.6053Z" fill="#F86E2D"/>
<path d="M16.1792 19.0228C16.1792 17.9465 15.3034 17.0708 14.2272 17.0708H9.93273C8.85607 17.0708 7.98071 17.9465 7.98071 19.0228V23.3173C7.98071 24.3935 8.85607 25.2693 9.93273 25.2693H14.2272C15.3034 25.2693 16.1792 24.3935 16.1792 23.3173V19.0228ZM14.2272 23.3173H9.93273V19.0228H14.2272L14.2283 23.3173C14.2283 23.3173 14.2279 23.3173 14.2272 23.3173Z" fill="#F86E2D"/>
<path d="M14.2272 28.7832H9.93273C8.85607 28.7832 7.98071 29.6586 7.98071 30.7352V35.0293C7.98071 36.1059 8.85607 36.9813 9.93273 36.9813H14.2272C15.3034 36.9813 16.1792 36.1059 16.1792 35.0293V30.7352C16.1792 29.6586 15.3034 28.7832 14.2272 28.7832ZM14.2272 35.0293H9.93273V30.7352H14.2272L14.2283 35.0293C14.2283 35.0293 14.2279 35.0293 14.2272 35.0293Z" fill="#F86E2D"/>
<path d="M31.6653 13.5575C32.2044 13.5575 32.6413 13.1206 32.6413 12.5815C32.6413 12.0424 32.2044 11.6055 31.6653 11.6055H24.9369C24.3979 11.6055 23.9609 12.0424 23.9609 12.5815C23.9609 13.1206 24.3979 13.5575 24.9369 13.5575H31.6653Z" fill="#F86E2D"/>
<path d="M20.4741 13.5575C20.731 13.5575 20.9826 13.453 21.1641 13.2715C21.3456 13.0901 21.4501 12.8381 21.4501 12.5815C21.4501 12.3249 21.3456 12.0729 21.1641 11.8914C20.9826 11.7099 20.731 11.6055 20.4741 11.6055C20.2163 11.6055 19.9655 11.7099 19.784 11.8914C19.6017 12.0729 19.498 12.3249 19.498 12.5815C19.498 12.8381 19.6017 13.0901 19.784 13.2715C19.9655 13.453 20.2163 13.5575 20.4741 13.5575Z" fill="#F86E2D"/>
<path d="M20.4733 25.2694H31.665C32.2041 25.2694 32.641 24.8325 32.641 24.2934C32.641 23.7543 32.2041 23.3174 31.665 23.3174H20.4733C19.9346 23.3174 19.4973 23.7543 19.4973 24.2934C19.4973 24.8325 19.9346 25.2694 20.4733 25.2694Z" fill="#F86E2D"/>
</g>
<defs>
<clipPath id="clip0_1_15704">
<rect width="49.9716" height="49.9716" fill="white" transform="translate(0.107422 0.0883789)"/>
</clipPath>
</defs>
</svg>
