<svg width="36" height="36" viewBox="0 0 36 36" fill="none" xmlns="http://www.w3.org/2000/svg">
<path d="M17.2876 12.6685C12.393 18.1546 9.21897 24.9584 8.1601 32.2339L7.89526 34.0437L8.97325 34.2015L9.23809 32.3916C10.2662 25.3269 13.3483 18.7202 18.1011 13.393L17.2876 12.6685Z" fill="#F86E2D"/>
<path d="M25.8657 33.0332H24.2312V34.1228H25.8657V33.0332Z" fill="#F86E2D"/>
<path d="M32.4018 15.6026H30.223V9.61077C30.2231 9.11798 30.0561 8.63973 29.7493 8.2541C29.4424 7.86848 29.014 7.59827 28.5338 7.48758C28.0536 7.3769 27.55 7.43229 27.1054 7.6447C26.6607 7.85712 26.3012 8.21401 26.0856 8.6571C25.6603 8.26135 25.2121 7.89095 24.7433 7.54783C26.3335 6.46028 28.0072 5.5002 29.7488 4.67658L28.903 6.36816L29.8774 6.85542L31.7062 3.19797L28.0487 1.36914L27.5614 2.34353L29.7888 3.45721C27.6827 4.41568 25.6695 5.5664 23.7748 6.89474C23.1089 6.48329 22.4111 6.12571 21.6883 5.82541C22.628 4.76718 23.1454 3.40007 23.1417 1.9848V1.44009H22.597C21.8344 1.43801 21.079 1.58721 20.3744 1.87904C19.6698 2.17087 19.0301 2.59955 18.4923 3.14025L17.5634 4.06923L13.1168 2.29054C12.8199 2.17155 12.4946 2.1424 12.1813 2.20671C11.8679 2.27102 11.5804 2.42595 11.3544 2.65226L9.71758 4.28912L11.6711 5.37442C9.1464 6.16444 6.88142 7.62066 5.11471 9.5897C3.34799 11.5587 2.14493 13.9678 1.63221 16.563C1.1195 19.1583 1.31609 21.8439 2.20131 24.3368C3.08652 26.8298 4.62759 29.0379 6.66222 30.7287L7.3588 29.891C6.54066 29.2106 5.80462 28.4371 5.16559 27.5863H5.25975C5.81263 27.5856 6.34268 27.3657 6.73363 26.9748C7.12457 26.5838 7.34448 26.0538 7.34511 25.5009C7.34474 25.3701 7.37034 25.2404 7.42041 25.1196C7.47048 24.9987 7.54403 24.8889 7.63681 24.7967L8.91321 23.5203C9.10745 23.3271 9.26145 23.0972 9.36628 22.8441C9.47111 22.591 9.5247 22.3196 9.52395 22.0457V21.6879C9.5247 21.4139 9.47111 21.1426 9.36628 20.8894C9.26145 20.6363 9.10745 20.4065 8.91321 20.2133L8.27502 19.5751C7.88361 19.1846 7.35329 18.9653 6.8004 18.9653C6.2475 18.9653 5.71719 19.1846 5.32578 19.5751L5.23229 19.6686C5.14003 19.7614 5.03028 19.8349 4.9094 19.885C4.78852 19.9351 4.6589 19.9607 4.52806 19.9603H2.45477C2.44759 19.7792 2.4427 19.5977 2.4427 19.4156C2.4429 18.8694 2.47594 18.3237 2.54164 17.7814H4.55545C4.89173 17.7814 5.22045 17.6817 5.50005 17.4949C5.77965 17.3081 5.99757 17.0425 6.12626 16.7319C6.25494 16.4212 6.28862 16.0793 6.22302 15.7495C6.15742 15.4197 5.99549 15.1167 5.75772 14.879L3.99217 13.1134C4.90449 11.3641 6.18611 9.83394 7.7483 8.62894C9.31049 7.42394 11.1159 6.57287 13.0396 6.13467L14.62 7.01268L11.1581 10.4746V12.0745L8.84805 11.1505L6.37584 13.6227L9.64962 14.9322L10.9591 18.206L13.4314 15.7338L12.5074 13.4237H14.1073L17.5692 9.96185L20.2927 14.8643L21.9296 13.2275C22.1559 13.0015 22.3109 12.7139 22.3752 12.4006C22.4395 12.0873 22.4103 11.762 22.2913 11.4651L20.5126 7.0184L20.8617 6.66928C21.5362 6.924 22.1893 7.23225 22.8146 7.59107C22.5943 7.75617 22.3756 7.92341 22.1584 8.09279L22.8308 8.94989C23.1504 8.69918 23.4741 8.454 23.8019 8.21434C24.5459 8.72908 25.2371 9.31624 25.8653 9.96724V15.6026H23.6865C23.2532 15.6031 22.8379 15.7754 22.5315 16.0818C22.2251 16.3881 22.0528 16.8035 22.0523 17.2367V30.3098C22.0521 30.7228 22.2088 31.1204 22.4908 31.4221C21.8262 31.7787 21.1329 32.0791 20.4182 32.3201V31.8505C20.4188 31.6358 20.3768 31.4231 20.2946 31.2248C20.2125 31.0264 20.0918 30.8463 19.9396 30.6949L18.9436 29.699C18.8929 29.6486 18.8526 29.5885 18.8252 29.5224C18.7979 29.4563 18.7839 29.3854 18.7841 29.3139V28.6757C18.7842 28.5313 18.8417 28.3928 18.9438 28.2907C19.0459 28.1886 19.1844 28.1311 19.3288 28.131C19.762 28.1305 20.1774 27.9581 20.4837 27.6518C20.7901 27.3454 20.9624 26.9301 20.9629 26.4968V24.8627C20.9624 24.4294 20.7901 24.0141 20.4837 23.7077C20.1774 23.4014 19.762 23.2291 19.3288 23.2286H18.1459C17.9312 23.228 17.7185 23.27 17.5202 23.3521C17.3218 23.4343 17.1417 23.555 16.9903 23.7072L14.3603 26.3373C14.3098 26.388 14.2498 26.4282 14.1837 26.4556C14.1176 26.483 14.0467 26.497 13.9751 26.4968H13.3369C12.9037 26.4973 12.4883 26.6697 12.182 26.976C11.8756 27.2824 11.7033 27.6977 11.7028 28.131V29.3139C11.7022 29.5286 11.7442 29.7412 11.8264 29.9396C11.9085 30.1379 12.0292 30.318 12.1814 30.4694L12.6326 30.9206C12.6834 30.9711 12.7236 31.0311 12.751 31.0972C12.7784 31.1633 12.7924 31.2342 12.7922 31.3058V32.6389C12.1202 32.4733 11.4618 32.2563 10.823 31.9899L10.4037 32.9954C12.5557 33.8894 14.889 34.2602 17.2121 34.0774C19.5352 33.8946 21.7818 33.1635 23.7674 31.9439H32.4018C32.8351 31.9435 33.2505 31.7711 33.5568 31.4648C33.8632 31.1584 34.0355 30.7431 34.036 30.3098V17.2367C34.0355 16.8035 33.8632 16.3881 33.5568 16.0818C33.2505 15.7754 32.8351 15.6031 32.4018 15.6026ZM4.52806 21.0497C4.80203 21.0505 5.07342 20.9969 5.32654 20.892C5.57966 20.7872 5.80947 20.6332 6.00268 20.439L6.09617 20.3455C6.18863 20.253 6.29842 20.1796 6.41926 20.1295C6.54009 20.0795 6.6696 20.0537 6.80039 20.0537C6.93119 20.0537 7.0607 20.0795 7.18153 20.1295C7.30237 20.1796 7.41215 20.253 7.50462 20.3455L8.14282 20.9837C8.2356 21.0759 8.30915 21.1857 8.35923 21.3066C8.4093 21.4275 8.43489 21.5571 8.43453 21.6879V22.0456C8.43489 22.1765 8.4093 22.3061 8.35923 22.427C8.30916 22.5479 8.2356 22.6576 8.14282 22.7499L6.86642 24.0263C6.67218 24.2195 6.51819 24.4493 6.41335 24.7024C6.30852 24.9555 6.25493 25.2269 6.25568 25.5009C6.25539 25.7649 6.15036 26.0181 5.96365 26.2048C5.77694 26.3915 5.5238 26.4965 5.25975 26.4968H4.42552C3.41453 24.8371 2.77199 22.9794 2.54139 21.0497H4.52806ZM4.98733 15.6493C5.07276 15.7348 5.13095 15.8436 5.15452 15.9621C5.1781 16.0806 5.16601 16.2034 5.11978 16.315C5.07355 16.4266 4.99526 16.522 4.89481 16.5891C4.79436 16.6562 4.67626 16.692 4.55545 16.692H2.71802C2.89531 15.825 3.15701 14.9774 3.49937 14.1614L4.98733 15.6493ZM11.357 16.2675L10.4877 14.0941L8.31437 13.2248L9.11043 12.4287L11.2838 13.2981L12.1531 15.4714L11.357 16.2675ZM20.6712 5.3191L19.2343 6.75602L21.2798 11.8696C21.3195 11.9686 21.3292 12.077 21.3078 12.1815C21.2863 12.2859 21.2347 12.3817 21.1592 12.4571L20.5437 13.0727L17.8201 8.17026L13.656 12.3343H12.2475V10.9258L16.4116 6.76173L13.2362 4.99765L13.2328 4.98005C13.2259 4.9814 13.2191 4.98294 13.2122 4.98431L11.5092 4.03818L12.1248 3.42265C12.2001 3.34719 12.2959 3.29554 12.4004 3.27409C12.5048 3.25265 12.6133 3.26236 12.7122 3.30203L17.8258 5.34749L19.2627 3.91064C20.0037 3.16538 20.974 2.69123 22.0173 2.56456C21.8906 3.60784 21.4165 4.57811 20.6712 5.3191ZM19.3288 32.6374C17.5462 33.0753 15.6939 33.1509 13.8816 32.8598V31.3058C13.8822 31.0911 13.8402 30.8784 13.7581 30.68C13.6759 30.4817 13.5552 30.3016 13.403 30.1502L12.9518 29.699C12.9011 29.6486 12.8608 29.5885 12.8334 29.5224C12.806 29.4563 12.792 29.3854 12.7922 29.3139V28.131C12.7924 27.9865 12.8498 27.8481 12.9519 27.746C13.0541 27.6439 13.1925 27.5864 13.3369 27.5863H13.9751C14.1898 27.5868 14.4025 27.5448 14.6008 27.4627C14.7992 27.3805 14.9793 27.2599 15.1307 27.1076L17.7607 24.4776C17.8112 24.4268 17.8712 24.3866 17.9373 24.3592C18.0034 24.3318 18.0743 24.3178 18.1459 24.318H19.3288C19.4732 24.3181 19.6116 24.3756 19.7138 24.4777C19.8159 24.5798 19.8733 24.7183 19.8735 24.8627V26.4968C19.8733 26.6412 19.8159 26.7797 19.7138 26.8818C19.6116 26.9839 19.4732 27.0414 19.3288 27.0415C18.8955 27.042 18.4802 27.2144 18.1738 27.5207C17.8675 27.8271 17.6951 28.2424 17.6946 28.6757V29.3139C17.694 29.5286 17.736 29.7412 17.8182 29.9396C17.9004 30.1379 18.021 30.318 18.1732 30.4694L19.1692 31.4653C19.2199 31.5158 19.2602 31.5758 19.2876 31.6419C19.315 31.708 19.329 31.7789 19.3288 31.8505V32.6374ZM26.9547 9.61077C26.9547 9.32183 27.0695 9.04473 27.2738 8.84043C27.4781 8.63612 27.7552 8.52134 28.0442 8.52134C28.3331 8.52134 28.6102 8.63612 28.8145 8.84043C29.0188 9.04473 29.1336 9.32183 29.1336 9.61077V15.6026H26.9547V9.61077ZM32.9466 30.3098C32.9464 30.4542 32.889 30.5927 32.7868 30.6948C32.6847 30.7969 32.5463 30.8544 32.4018 30.8545H23.6865C23.542 30.8544 23.4036 30.7969 23.3015 30.6948C23.1994 30.5927 23.1419 30.4542 23.1417 30.3098V17.2367C23.1419 17.0923 23.1994 16.9539 23.3015 16.8517C23.4036 16.7496 23.542 16.6922 23.6865 16.692H32.4018C32.5463 16.6922 32.6847 16.7496 32.7868 16.8517C32.889 16.9539 32.9464 17.0923 32.9466 17.2367V30.3098Z" fill="#F86E2D"/>
<path d="M32.402 33.0331H30.7676V34.1228H32.402V33.0331Z" fill="#F86E2D"/>
<path d="M25.8655 17.7812H24.7761V29.7649H25.8655V17.7812Z" fill="#F86E2D"/>
<path d="M28.5882 17.7812H27.4988V29.7649H28.5882V17.7812Z" fill="#F86E2D"/>
<path d="M31.3118 17.7812H30.2224V29.7649H31.3118V17.7812Z" fill="#F86E2D"/>
<path d="M16.6046 18.326V18.645L15.2895 19.9601C15.188 20.0611 15.1076 20.1811 15.0528 20.3133C14.9981 20.4456 14.9701 20.5873 14.9705 20.7305V21.0496C14.9708 21.3384 15.0857 21.6153 15.2899 21.8195C15.4941 22.0238 15.7711 22.1386 16.0599 22.139H17.4684C17.6115 22.1394 17.7533 22.1114 17.8855 22.0566C18.0177 22.0018 18.1378 21.9214 18.2387 21.8199L19.0091 21.0496H19.8729C20.1617 21.0492 20.4386 20.9343 20.6428 20.7301C20.8471 20.5259 20.962 20.249 20.9623 19.9601V18.326C20.962 18.0372 20.8471 17.7603 20.6428 17.556C20.4386 17.3518 20.1617 17.2369 19.8729 17.2366H17.694C17.4052 17.2369 17.1283 17.3518 16.924 17.556C16.7198 17.7603 16.6049 18.0372 16.6046 18.326ZM17.694 18.6451V18.326H19.8729V19.9601H19.0091C18.8659 19.9597 18.7242 19.9877 18.5919 20.0425C18.4597 20.0973 18.3397 20.1777 18.2387 20.2792L17.4684 21.0496H16.0599V20.7305L17.375 19.4154C17.4764 19.3145 17.5569 19.1944 17.6117 19.0622C17.6664 18.93 17.6944 18.7882 17.694 18.6451Z" fill="#F86E2D"/>
</svg>
