<svg width="21" height="21" viewBox="0 0 21 21" fill="none" xmlns="http://www.w3.org/2000/svg">
<g clip-path="url(#clip0_1_20523)">
<path d="M14.0698 10.6602H13.2886V5.50391C13.2886 4.21156 12.2372 3.16016 10.9448 3.16016C9.65248 3.16016 8.60107 4.21156 8.60107 5.50391V10.794C8.35662 10.7073 8.09361 10.6602 7.81982 10.6602C6.52748 10.6602 5.47607 11.7116 5.47607 13.0039V16.1289C5.47607 18.2828 7.22842 20.0352 9.38232 20.0352H14.0698C16.2238 20.0352 17.9761 18.2828 17.9761 16.1289V14.5664C17.9761 12.4125 16.2238 10.6602 14.0698 10.6602ZM16.4136 16.1289C16.4136 17.4213 15.3622 18.4727 14.0698 18.4727H9.38232C8.08998 18.4727 7.03857 17.4213 7.03857 16.1289V13.0039C7.03857 12.5731 7.38904 12.2227 7.81998 12.2227C8.25068 12.2227 8.60107 12.5731 8.60107 13.0039V14.5664C8.60107 14.9979 8.95084 15.3477 9.38232 15.3477C9.81381 15.3477 10.1636 14.9979 10.1636 14.5664V5.50391C10.1636 5.07313 10.514 4.72266 10.9448 4.72266C11.3756 4.72266 11.7261 5.07313 11.7261 5.50391V11.4414C11.7261 11.8729 12.0758 12.2227 12.5073 12.2227H14.0698C15.3622 12.2227 16.4136 13.2741 16.4136 14.5664V16.1289Z" fill="#F86E2D"/>
<path d="M17.0386 0.0351562H4.85107C2.69717 0.0351562 0.944824 1.7875 0.944824 3.94141C0.944824 6.09531 2.69717 7.84766 4.85107 7.84766H6.25732C6.68881 7.84766 7.03857 7.49789 7.03857 7.06641C7.03857 6.63492 6.68881 6.28516 6.25732 6.28516H4.85107C3.55873 6.28516 2.50732 5.23375 2.50732 3.94141C2.50732 2.64906 3.55873 1.59766 4.85107 1.59766H17.0386C18.3309 1.59766 19.3823 2.64906 19.3823 3.94141C19.3823 5.23375 18.3309 6.28516 17.0386 6.28516H15.6323C15.2008 6.28516 14.8511 6.63492 14.8511 7.06641C14.8511 7.49789 15.2008 7.84766 15.6323 7.84766H17.0386C19.1925 7.84766 20.9448 6.09531 20.9448 3.94141C20.9448 1.7875 19.1925 0.0351562 17.0386 0.0351562Z" fill="#F86E2D"/>
</g>
<defs>
<clipPath id="clip0_1_20523">
<rect width="20" height="20" fill="white" transform="translate(0.944824 0.0351562)"/>
</clipPath>
</defs>
</svg>
