<svg width="26" height="26" viewBox="0 0 26 26" fill="none" xmlns="http://www.w3.org/2000/svg">
<g clip-path="url(#clip0_1_1602)">
<path d="M12.8223 12.5426C14.4767 12.5426 15.9091 11.9492 17.0799 10.7785C18.2502 9.60795 18.8438 8.17573 18.8438 6.52111C18.8438 4.86706 18.2504 3.43464 17.0797 2.26372C15.9089 1.09337 14.4765 0.5 12.8223 0.5C11.1677 0.5 9.73543 1.09337 8.56489 2.26391C7.39435 3.43445 6.80078 4.86687 6.80078 6.52111C6.80078 8.17573 7.39435 9.60814 8.56489 10.7787C9.73581 11.949 11.1682 12.5426 12.8223 12.5426ZM9.60096 3.29979C10.4991 2.40162 11.5527 1.96503 12.8223 1.96503C14.0916 1.96503 15.1454 2.40162 16.0438 3.29979C16.942 4.19815 17.3787 5.25196 17.3787 6.52111C17.3787 7.79064 16.942 8.84425 16.0438 9.74261C15.1454 10.641 14.0916 11.0776 12.8223 11.0776C11.5531 11.0776 10.4995 10.6408 9.60096 9.74261C8.7026 8.84444 8.26582 7.79064 8.26582 6.52111C8.26582 5.25196 8.7026 4.19815 9.60096 3.29979Z" fill="white"/>
<path d="M23.3579 19.7237C23.3241 19.2366 23.2558 18.7052 23.1553 18.1441C23.0538 17.5787 22.9232 17.0443 22.7668 16.5558C22.605 16.051 22.3855 15.5524 22.1137 15.0746C21.832 14.5787 21.5009 14.1469 21.1293 13.7915C20.7408 13.4198 20.2651 13.1209 19.715 12.9029C19.1668 12.686 18.5593 12.5762 17.9095 12.5762C17.6543 12.5762 17.4075 12.6809 16.9309 12.9912C16.6375 13.1825 16.2944 13.4038 15.9114 13.6485C15.5839 13.8571 15.1402 14.0526 14.5923 14.2296C14.0576 14.4026 13.5148 14.4904 12.9788 14.4904C12.4432 14.4904 11.9004 14.4026 11.3654 14.2296C10.818 14.0528 10.3742 13.8573 10.0472 13.6487C9.66786 13.4062 9.32454 13.185 9.0268 12.991C8.55054 12.6807 8.30373 12.576 8.04852 12.576C7.3985 12.576 6.7912 12.686 6.24322 12.9031C5.69352 13.1207 5.21764 13.4196 4.82873 13.7917C4.45718 14.1472 4.12606 14.5789 3.84454 15.0746C3.57312 15.5524 3.35339 16.0508 3.19165 16.556C3.03544 17.0445 2.90479 17.5787 2.80331 18.1441C2.70261 18.7045 2.63451 19.236 2.60075 19.7243C2.56757 20.2017 2.55078 20.6986 2.55078 21.2006C2.55078 22.5056 2.96563 23.5621 3.78369 24.3412C4.59164 25.1101 5.66052 25.5 6.96076 25.5H18.9984C20.2983 25.5 21.3672 25.1101 22.1753 24.3412C22.9936 23.5627 23.4084 22.5058 23.4084 21.2004C23.4082 20.6967 23.3912 20.1998 23.3579 19.7237ZM21.1652 23.2798C20.6313 23.7879 19.9225 24.0349 18.9982 24.0349H6.96076C6.03627 24.0349 5.3275 23.7879 4.79382 23.28C4.27026 22.7816 4.01582 22.1013 4.01582 21.2006C4.01582 20.7322 4.03127 20.2696 4.06216 19.8256C4.0923 19.39 4.15391 18.9114 4.24527 18.4029C4.33549 17.9007 4.45031 17.4294 4.58688 17.0027C4.71791 16.5936 4.89663 16.1885 5.11826 15.7982C5.32979 15.4263 5.57317 15.1072 5.84172 14.8501C6.09292 14.6096 6.40954 14.4127 6.78262 14.2651C7.12766 14.1286 7.51542 14.0538 7.93637 14.0425C7.98768 14.0698 8.07904 14.1219 8.22705 14.2184C8.52822 14.4147 8.87536 14.6386 9.25912 14.8837C9.6917 15.1595 10.249 15.4086 10.9149 15.6235C11.5956 15.8436 12.2899 15.9554 12.979 15.9554C13.6681 15.9554 14.3626 15.8436 15.043 15.6237C15.7094 15.4084 16.2665 15.1595 16.6997 14.8833C17.0924 14.6323 17.4298 14.4148 17.731 14.2184C17.879 14.1221 17.9704 14.0698 18.0217 14.0425C18.4428 14.0538 18.8306 14.1286 19.1758 14.2651C19.5487 14.4127 19.8653 14.6098 20.1165 14.8501C20.3851 15.107 20.6284 15.4261 20.84 15.7984C21.0618 16.1885 21.2407 16.5938 21.3715 17.0025C21.5083 17.4298 21.6233 17.9009 21.7133 18.4027C21.8045 18.9122 21.8663 19.3909 21.8964 19.8258V19.8262C21.9275 20.2685 21.9432 20.7308 21.9434 21.2006C21.9432 22.1014 21.6887 22.7816 21.1652 23.2798Z" fill="white"/>
</g>
<defs>
<clipPath id="clip0_1_1602">
<rect width="25" height="25" fill="white" transform="translate(0.5 0.5)"/>
</clipPath>
</defs>
</svg>
