<svg width="35" height="36" viewBox="0 0 35 36" fill="none" xmlns="http://www.w3.org/2000/svg">
<g clip-path="url(#clip0_1_19399)">
<path d="M17.4613 0.350281C7.86354 0.350281 0.0305176 8.18385 0.0305176 17.7811C0.0305176 27.3788 7.86409 35.2118 17.4613 35.2118C27.059 35.2118 34.8921 27.3782 34.8921 17.7811C34.8921 8.1833 27.0585 0.350281 17.4613 0.350281ZM17.4613 33.1692C8.97625 33.1692 2.07319 26.2661 2.07319 17.7811C2.07319 9.29601 8.97625 2.39295 17.4613 2.39295C25.9463 2.39295 32.8494 9.29601 32.8494 17.7811C32.8494 26.2661 25.9463 33.1692 17.4613 33.1692Z" fill="#F86E2D"/>
<path d="M8.79522 27.4691C9.3594 27.4691 9.81676 27.0117 9.81676 26.4476C9.81676 25.8834 9.3594 25.426 8.79522 25.426C8.23104 25.426 7.77368 25.8834 7.77368 26.4476C7.77368 27.0117 8.23104 27.4691 8.79522 27.4691Z" fill="#F86E2D"/>
<path d="M26.1282 10.1365C26.6924 10.1365 27.1498 9.67916 27.1498 9.11498C27.1498 8.5508 26.6924 8.09344 26.1282 8.09344C25.564 8.09344 25.1067 8.5508 25.1067 9.11498C25.1067 9.67916 25.564 10.1365 26.1282 10.1365Z" fill="#F86E2D"/>
<path d="M8.07289 8.39259C7.67395 8.79154 7.67395 9.43831 8.07289 9.83725C8.47184 10.2362 9.11861 10.2362 9.51755 9.83725C9.9165 9.43831 9.9165 8.79154 9.51755 8.39259C9.11867 7.99365 8.47184 7.99365 8.07289 8.39259Z" fill="#F86E2D"/>
<path d="M25.4059 25.7252C25.007 26.1241 25.007 26.7709 25.4059 27.1698C25.8048 27.5688 26.4516 27.5688 26.8506 27.1698C27.2495 26.7709 27.2495 26.1241 26.8506 25.7252C26.4516 25.3262 25.8048 25.3262 25.4059 25.7252Z" fill="#F86E2D"/>
<path d="M17.4612 8.58976C18.0254 8.58976 18.4828 8.13238 18.4828 7.56822V5.52514C18.4828 4.96098 18.0254 4.5036 17.4612 4.5036C16.8971 4.5036 16.4397 4.96098 16.4397 5.52514V7.56822C16.4397 8.13238 16.8971 8.58976 17.4612 8.58976Z" fill="#F86E2D"/>
<path d="M17.4612 26.9731C16.8971 26.9731 16.4397 27.4305 16.4397 27.9946V30.0377C16.4397 30.6019 16.8971 31.0592 17.4612 31.0592C18.0254 31.0592 18.4828 30.6019 18.4828 30.0377V27.9946C18.4828 27.4305 18.0254 26.9731 17.4612 26.9731Z" fill="#F86E2D"/>
<path d="M8.26999 17.7812C8.26999 17.2171 7.81262 16.7597 7.24845 16.7597H5.20538C4.64121 16.7597 4.18384 17.2171 4.18384 17.7812C4.18384 18.3454 4.64121 18.8028 5.20538 18.8028H7.24845C7.81262 18.8028 8.26999 18.3454 8.26999 17.7812Z" fill="#F86E2D"/>
<path d="M26.6536 17.7812C26.6536 18.3454 27.1109 18.8028 27.6751 18.8028H29.7182C30.2823 18.8028 30.7397 18.3454 30.7397 17.7812C30.7397 17.2171 30.2823 16.7597 29.7182 16.7597H27.6751C27.1109 16.7597 26.6536 17.2171 26.6536 17.7812Z" fill="#F86E2D"/>
<path d="M18.4824 17.3581V11.6531C18.4824 11.0891 18.0251 10.6318 17.461 10.6318C16.897 10.6318 16.4397 11.0891 16.4397 11.6531V17.7811C16.4397 18.052 16.5473 18.3117 16.7389 18.5033L22.8669 24.6313C23.2657 25.0301 23.9124 25.0302 24.3113 24.6313C24.7101 24.2325 24.7101 23.5858 24.3113 23.187L18.4824 17.3581Z" fill="#F86E2D"/>
</g>
<defs>
<clipPath id="clip0_1_19399">
<rect width="34.8616" height="34.8616" fill="white" transform="translate(0.0305176 0.350281)"/>
</clipPath>
</defs>
</svg>
