<svg width="71" height="71" viewBox="0 0 71 71" fill="none" xmlns="http://www.w3.org/2000/svg">
<g clip-path="url(#clip0_1_20079)">
<path d="M33.7834 58.8433L16.6022 62.1687C13.22 62.8233 9.93358 60.6049 9.27848 57.2202L3.10269 25.3124C2.44758 21.9277 4.66893 18.6433 8.05116 17.9886L12.9601 17.0385C13.6375 16.9074 14.2937 17.3508 14.4248 18.0282C14.5559 18.7056 14.1125 19.3618 13.4351 19.4929L8.52622 20.4431C6.49639 20.8359 5.16426 22.8075 5.55714 24.8373L11.7329 56.7452C12.1258 58.775 14.0974 60.1071 16.1272 59.7142L33.3083 56.3888C33.9858 56.2577 34.642 56.7011 34.7731 57.3785C34.9042 58.0559 34.4608 58.7121 33.7834 58.8433Z" fill="#F86E2D"/>
<path d="M45.2638 26.0645C44.5864 26.1956 43.9302 25.7522 43.799 25.0748L42.3739 17.7115C41.981 15.6816 40.0094 14.3495 37.9796 14.7424L33.0707 15.6925C32.3933 15.8236 31.7371 15.3802 31.6059 14.7028C31.4748 14.0254 31.9182 13.3692 32.5956 13.2381L37.5045 12.2879C40.8868 11.6333 44.1732 13.8517 44.8283 17.2364L46.2535 24.5997C46.3846 25.2772 45.9412 25.9334 45.2638 26.0645Z" fill="#F86E2D"/>
<path d="M31.5664 21.0766L16.8397 23.9269C14.8099 24.3198 12.8383 22.9877 12.4455 20.9579L11.4953 16.049C11.3642 15.3715 11.8076 14.7153 12.485 14.5842L16.2894 13.8479C16.3197 10.9391 18.3877 8.34894 21.3527 7.77507C24.3177 7.2012 27.2028 8.83269 28.3162 11.5201L32.1206 10.7837C32.798 10.6526 33.4542 11.096 33.5854 11.7734L34.5355 16.6823C34.9284 18.7121 33.5962 20.6837 31.5664 21.0766ZM14.1873 16.8011L14.8999 20.4828C15.0305 21.1578 15.6872 21.6036 16.3647 21.4725L31.0913 18.6221C31.7688 18.491 32.2117 17.8323 32.081 17.1574L31.3684 13.4757L27.6868 14.1883C27.0093 14.3194 26.3531 13.876 26.222 13.1986C25.8291 11.1688 23.8576 9.83664 21.8278 10.2295C19.7979 10.6224 18.4658 12.594 18.8587 14.6238C18.9898 15.3012 18.5464 15.9574 17.869 16.0885L14.1873 16.8011Z" fill="#F86E2D"/>
<path d="M54.8442 62.4061C46.0474 64.1087 37.505 58.3368 35.8024 49.5401C34.0998 40.7434 39.8716 32.2009 48.6684 30.4983C57.4651 28.7957 66.0076 34.5676 67.7102 43.3643C69.4128 52.1611 63.6409 60.7035 54.8442 62.4061ZM49.1435 32.9527C41.6991 34.3936 36.8164 41.6231 38.2568 49.065C39.6972 56.5069 46.9248 61.3925 54.3691 59.9517C61.8135 58.5108 66.6961 51.2813 65.2558 43.8394C63.8154 36.3975 56.5878 31.5119 49.1435 32.9527Z" fill="#F86E2D"/>
<path d="M53.419 55.0427C52.7416 55.1738 52.0853 54.7305 51.9542 54.053L49.1039 39.3263C48.9727 38.6489 49.4161 37.9927 50.0936 37.8616C50.771 37.7305 51.4272 38.1739 51.5583 38.8513L54.4087 53.578C54.5398 54.2554 54.0964 54.9116 53.419 55.0427Z" fill="#F86E2D"/>
<path d="M59.3571 46.2543L44.6304 49.1046C43.953 49.2357 43.2968 48.7923 43.1657 48.1149C43.0346 47.4375 43.478 46.7813 44.1554 46.6502L58.8821 43.7998C59.5595 43.6687 60.2157 44.1121 60.3468 44.7895C60.4779 45.4669 60.0346 46.1231 59.3571 46.2543Z" fill="#F86E2D"/>
<path d="M37.9005 27.4898L13.356 32.2404C12.6785 32.3715 12.0223 31.9281 11.8912 31.2507C11.7601 30.5732 12.2035 29.917 12.8809 29.7859L37.4254 25.0353C38.1028 24.9042 38.759 25.3476 38.8901 26.025C39.0213 26.7024 38.5779 27.3586 37.9005 27.4898Z" fill="#F86E2D"/>
<path d="M31.9623 36.2782L14.7811 39.6036C14.1037 39.7348 13.4475 39.2914 13.3164 38.6139C13.1853 37.9365 13.6287 37.2803 14.3061 37.1492L31.4872 33.8238C32.1646 33.6926 32.8209 34.136 32.952 34.8135C33.0831 35.4909 32.6397 36.1471 31.9623 36.2782Z" fill="#F86E2D"/>
<path d="M28.4786 44.5916L16.2063 46.9669C15.5289 47.098 14.8727 46.6547 14.7416 45.9772C14.6104 45.2998 15.0538 44.6436 15.7313 44.5125L28.0035 42.1372C28.6809 42.0061 29.3371 42.4494 29.4682 43.1269C29.5994 43.8043 29.156 44.4605 28.4786 44.5916Z" fill="#F86E2D"/>
</g>
<defs>
<clipPath id="clip0_1_20079">
<rect width="60" height="60" fill="white" transform="translate(0.489868 11.813) rotate(-10.9542)"/>
</clipPath>
</defs>
</svg>
