<svg width="85" height="85" viewBox="0 0 85 85" fill="none" xmlns="http://www.w3.org/2000/svg">
<g clip-path="url(#clip0_1_20051)">
<path d="M63.6868 56.6933C63.2333 56.0356 62.564 55.5798 61.832 55.3878L63.377 53.6144C64.3977 52.4426 64.525 50.7711 63.6797 49.5492C63.2222 48.8961 62.5444 48.4409 61.804 48.2495C62.5511 47.1179 62.5716 45.6238 61.8135 44.5575C61.1578 43.6203 60.0842 43.0988 58.9064 43.1629C58.6824 43.1826 58.4601 43.2277 58.2474 43.2891C58.5376 38.4253 56.5606 33.6156 52.8373 30.372C52.4935 30.0725 52.1475 29.8029 51.7987 29.5547L53.8902 18.8598C54.3858 16.2996 53.4764 13.6532 51.5175 11.9467L47.6449 8.57307C43.6275 5.07333 37.5071 5.49479 34.0074 9.51217L21.4587 23.9169C20.438 25.0886 20.3186 26.7511 21.1628 27.956C21.6163 28.6137 22.2856 29.0695 23.0175 29.2615L21.4726 31.0349C20.4518 32.2066 20.3245 33.8782 21.1699 35.1C21.6274 35.7532 22.3012 36.2129 23.0456 36.3998C22.2985 37.5314 22.278 39.0255 23.0361 40.0918C23.1918 40.3149 23.3757 40.5149 23.5748 40.6883C24.2127 41.244 25.0492 41.5351 25.9477 41.4903C26.1717 41.4706 26.394 41.4255 26.6067 41.3641C26.3125 46.2324 28.285 51.0382 32.0128 54.2857C32.3567 54.5853 32.7027 54.8549 33.0515 55.103L30.9599 65.798C30.4598 68.3543 31.3738 71.0045 33.3327 72.711L37.2053 76.0847C41.2227 79.5844 47.343 79.163 50.8428 75.1456L63.3954 60.7364C64.4116 59.5607 64.531 57.8982 63.6868 56.6933ZM26.7933 39.1951C26.545 39.4802 26.183 39.6582 25.8196 39.6917C25.3026 39.7188 24.8099 39.4806 24.5127 39.0545C24.1407 38.5315 24.2192 37.7564 24.6921 37.2135L26.2843 35.3858L36.5431 23.6096C36.8702 23.2341 36.8312 22.6669 36.4557 22.3398C36.0802 22.0127 35.513 22.0517 35.1859 22.4272L24.931 34.1989C24.6788 34.4884 24.3253 34.6659 23.9319 34.6972C23.5425 34.724 23.0009 34.5785 22.6516 34.0752C22.2875 33.5432 22.3614 32.7641 22.8344 32.2212L26.271 28.2762C26.275 28.2717 26.2829 28.2626 26.2868 28.2581L33.0144 20.5355C33.3415 20.16 33.3024 19.5928 32.9269 19.2657C32.5514 18.9386 31.9842 18.9776 31.6571 19.3531L24.9453 27.0576L24.9296 27.0757C24.6813 27.3608 24.3278 27.5382 23.9254 27.5617C23.422 27.6006 22.9429 27.3742 22.6405 26.9357C22.277 26.4121 22.3515 25.6415 22.8205 25.1031L35.3691 10.6985C38.2186 7.42755 43.1961 7.08479 46.467 9.93424L50.3397 13.3079C51.819 14.5966 52.5007 16.591 52.1273 18.5176L50.1736 28.4971C49.8549 28.315 49.5204 28.1509 49.1904 27.9907C49.1288 27.961 49.0672 27.9312 49.0056 27.9014C48.6762 27.7497 48.335 27.6116 47.9944 27.482C47.9243 27.4528 47.8548 27.432 47.7848 27.4028C47.6803 27.3675 47.5797 27.3277 47.4752 27.2923C47.595 26.5611 47.2316 25.8547 46.5626 25.5265C45.8761 25.191 45.075 25.3525 44.5744 25.9271L44.0266 26.5559C43.9538 26.5482 43.877 26.545 43.7957 26.5378C43.6631 26.5257 43.5304 26.5136 43.3983 26.5099C43.2318 26.5001 43.0698 26.4942 42.9078 26.4884C42.7757 26.4847 42.6436 26.4811 42.5076 26.4819C42.3416 26.4806 42.1802 26.4832 42.0148 26.4903C41.8833 26.4951 41.7518 26.4999 41.6203 26.5048C41.455 26.5119 41.2902 26.5275 41.1254 26.5431C40.9945 26.5564 40.8675 26.5651 40.7366 26.5784C40.5679 26.5985 40.4037 26.6226 40.235 26.6427C40.1926 26.6456 40.1548 26.6524 40.1086 26.6599C40.4018 26.2867 40.356 25.7455 39.9941 25.4302C39.6186 25.1031 39.0514 25.1422 38.7243 25.5177L37.0572 27.4314C34.5255 28.3372 32.2547 29.8842 30.4773 31.9245C30.2526 32.1824 30.037 32.4482 29.8305 32.7218C29.7601 32.8117 29.6949 32.914 29.629 33.0078C29.4968 33.187 29.3606 33.3708 29.2374 33.5579C29.1603 33.6738 29.0878 33.7936 29.0152 33.9134C28.9078 34.0824 28.8003 34.2514 28.6974 34.4243C28.6215 34.5571 28.5541 34.6894 28.4866 34.8216C28.3961 34.9894 28.3056 35.1573 28.2196 35.329C28.1528 35.4697 28.0904 35.6144 28.0275 35.7505C27.95 35.9217 27.8719 36.0845 27.7989 36.2596C27.7366 36.4042 27.6833 36.5567 27.6255 36.7053C27.5604 36.8714 27.4958 37.0459 27.4352 37.216C27.382 37.3685 27.3371 37.5204 27.2923 37.6723C27.2362 37.8463 27.1841 38.0158 27.1365 38.1891C27.0962 38.345 27.0559 38.5009 27.0241 38.6562C26.9911 38.7945 26.9536 38.9289 26.9245 39.0628L26.8023 39.203L26.7933 39.1951ZM28.6354 39.6382C29.1026 37.2202 30.2056 34.9584 31.8294 33.0945C33.4531 31.2305 35.5424 29.8279 37.8735 29.0337C38.2057 28.9173 38.5436 28.8217 38.8821 28.7346C40.624 28.2787 42.47 28.1601 44.2767 28.3971C44.9074 28.477 45.55 28.6071 46.1961 28.788C47.6566 29.185 49.0364 29.83 50.3037 30.6953C50.7582 30.9957 51.2116 31.343 51.6504 31.7253C55.419 35.0083 57.1686 40.0973 56.2096 45.0072C55.7425 47.4251 54.6394 49.687 53.0157 51.5509C51.3919 53.4148 49.3026 54.8175 46.9715 55.6116C44.9445 56.3126 42.7313 56.533 40.5683 56.2482C39.9377 56.1683 39.2951 56.0382 38.6489 55.8573C37.1885 55.4603 35.8087 54.8153 34.5413 53.95C34.0869 53.6496 33.6334 53.3023 33.1946 52.92C29.4261 49.6371 27.6765 44.548 28.6354 39.6382ZM49.485 73.9548C46.6355 77.2257 41.658 77.5684 38.3871 74.719L34.5144 71.3454C33.0351 70.0566 32.3534 68.0623 32.7268 66.1356L34.6805 56.1561C34.9992 56.3383 35.3337 56.5023 35.6637 56.6625L35.8485 56.7518C36.1779 56.9035 36.5191 57.0416 36.8597 57.1712C36.9298 57.2004 36.9993 57.2212 37.0733 57.2459C37.1778 57.2812 37.2783 57.321 37.3828 57.3564C37.2631 58.0876 37.6264 58.794 38.2954 59.1222C38.9819 59.4576 39.7831 59.2962 40.2836 58.7216L40.8314 58.0928C40.9042 58.1005 40.981 58.1037 41.0623 58.1109C41.195 58.123 41.3276 58.1351 41.4597 58.1388C41.6263 58.1486 41.7883 58.1544 41.9503 58.1603C42.0824 58.164 42.2144 58.1676 42.3505 58.1668C42.5164 58.1681 42.6778 58.1655 42.8432 58.1584C42.9747 58.1535 43.1107 58.1527 43.2422 58.1479C43.4076 58.1407 43.5724 58.1252 43.7332 58.1141C43.8641 58.1008 43.9911 58.0921 44.122 58.0788C44.2908 58.0587 44.4595 58.0385 44.6237 58.0145C44.666 58.0116 44.7038 58.0047 44.7461 58.0018C44.4529 58.375 44.4986 58.9162 44.8606 59.2314C45.2361 59.5586 45.8032 59.5195 46.1304 59.144L47.7975 57.2303C50.3292 56.3245 52.6 54.7775 54.3774 52.7372C54.6021 52.4793 54.8177 52.2135 55.0242 51.9399C55.0946 51.85 55.1559 51.7522 55.2217 51.6584C55.3579 51.4746 55.4901 51.2954 55.6173 51.1038C55.6944 50.9879 55.763 50.8726 55.8355 50.7528C55.943 50.5838 56.0543 50.4103 56.1527 50.2334C56.2247 50.1051 56.2921 49.9729 56.3681 49.8401C56.4586 49.6723 56.5491 49.5044 56.635 49.3326C56.7019 49.192 56.7648 49.0558 56.8272 48.9112C56.9047 48.74 56.9867 48.5727 57.0558 48.4021C57.1181 48.2575 57.1675 48.1095 57.2253 47.9609C57.2898 47.7864 57.3549 47.6203 57.4155 47.4502C57.4688 47.2977 57.5136 47.1458 57.5584 46.9939C57.6145 46.8199 57.6666 46.6505 57.7182 46.4726C57.7585 46.3167 57.7948 46.1653 57.8306 46.0055C57.8636 45.8672 57.9011 45.7327 57.9302 45.5989L58.0523 45.4587C58.3006 45.1736 58.6626 44.9956 59.026 44.9621C59.543 44.935 60.0357 45.1732 60.333 45.5993C60.7049 46.1223 60.6265 46.8974 60.1535 47.4403L58.5613 49.268L48.3064 61.0397C47.9793 61.4152 48.0184 61.9824 48.3939 62.3095C48.7694 62.6366 49.3366 62.5975 49.6637 62.222L59.9185 50.4504C60.1708 50.1608 60.5243 49.9834 60.9176 49.9521C61.307 49.9252 61.8486 50.0708 62.198 50.5741C62.5621 51.1061 62.4882 51.8852 62.0152 52.4281L58.5785 56.3731L58.5628 56.3912L51.8352 64.1138C51.5081 64.4893 51.5472 65.0565 51.9227 65.3836C52.2982 65.7107 52.8653 65.6716 53.1925 65.2961L59.9042 57.5916C59.9082 57.5871 59.9161 57.5781 59.92 57.5735C60.1683 57.2885 60.5218 57.1111 60.9242 57.0876C61.4276 57.0487 61.9067 57.2751 62.2091 57.7136C62.5726 58.2372 62.4981 59.0078 62.0291 59.5461L49.4805 73.9508L49.485 73.9548Z" fill="#F86E2D"/>
<path d="M36.4753 53.0089C36.525 53.0523 36.5787 53.0911 36.6403 53.1209C37.4354 53.5509 38.2749 53.8844 39.1373 54.1184C39.701 54.2752 40.2662 54.3936 40.8195 54.4619C41.1758 54.5096 41.5393 54.5399 41.8978 54.5577C42.3968 54.5786 42.8125 54.1928 42.8379 53.6977C42.8589 53.1987 42.473 52.783 41.9779 52.7576C41.6709 52.7447 41.3587 52.7194 41.0453 52.6772C40.5779 52.6201 40.099 52.5212 39.6178 52.3885C38.8853 52.188 38.1684 51.9057 37.4926 51.5397C37.0552 51.3019 36.5097 51.4713 36.2759 51.9042C36.0724 52.2839 36.1676 52.7409 36.4753 53.0089Z" fill="#F86E2D"/>
<path d="M34.528 35.4774C34.8551 35.1019 34.8161 34.5347 34.4406 34.2076C34.0651 33.8805 33.4979 33.9196 33.1708 34.2951C31.9536 35.7015 31.0867 37.3176 30.6058 39.1029C30.5145 39.4451 30.6282 39.7988 30.8815 40.0195C30.9811 40.1062 31.1003 40.1703 31.2347 40.2078C31.7159 40.3405 32.2109 40.0555 32.3351 39.5749C32.7534 38.0534 33.4921 36.6757 34.528 35.4774Z" fill="#F86E2D"/>
<path d="M33.9825 48.4898C33.0625 47.2348 32.4294 45.7602 32.1449 44.2233C32.0519 43.7364 31.5872 43.4111 31.0958 43.5003C30.6043 43.5894 30.2836 44.058 30.3728 44.5494C30.7052 46.3509 31.4495 48.0816 32.5291 49.5552C32.5671 49.6121 32.6129 49.66 32.6627 49.7034C32.9748 49.9753 33.436 50.0031 33.7843 49.7494C34.1934 49.4533 34.278 48.8904 33.9825 48.4898Z" fill="#F86E2D"/>
<path d="M47.1653 32.9825C47.2151 33.0259 47.2688 33.0647 47.3349 33.0984C47.657 33.2676 47.9724 33.4628 48.285 33.6794C49.212 34.296 50.1402 35.1762 50.849 36.1438C51.1445 36.5444 51.7074 36.629 52.1081 36.3335C52.5087 36.038 52.5933 35.4751 52.2978 35.0744C51.4628 33.9411 50.366 32.8982 49.2875 32.1815C48.9348 31.9378 48.5578 31.7129 48.1781 31.5094C47.7407 31.2716 47.1953 31.441 46.9575 31.8784C46.7624 32.2575 46.8577 32.7145 47.1653 32.9825Z" fill="#F86E2D"/>
<path d="M42.8501 31.8891C43.3491 31.9101 43.7648 31.5242 43.7857 31.0252C43.8067 30.5262 43.4208 30.1105 42.9218 30.0896C41.3909 30.0291 39.8877 30.2475 38.4546 30.7417C38.1512 30.8434 37.8613 30.9569 37.5681 31.0834C37.1096 31.2808 36.9036 31.8096 37.0965 32.2641C37.1521 32.3921 37.2319 32.5014 37.3315 32.5881C37.5848 32.8088 37.9468 32.8775 38.2772 32.7356C38.5293 32.629 38.7819 32.5308 39.0397 32.445C40.2608 32.0207 41.545 31.8344 42.8501 31.8891Z" fill="#F86E2D"/>
<path d="M52.695 40.4097C52.9377 41.7113 52.9304 43.0259 52.6799 44.3274C52.633 44.5731 52.5771 44.8108 52.5133 45.0576C52.422 45.3999 52.5396 45.749 52.7929 45.9697C52.8925 46.0564 53.0117 46.1205 53.1507 46.1619C53.6273 46.2907 54.1223 46.0057 54.255 45.5245C54.3334 45.2427 54.3988 44.9575 54.4512 44.669C54.7465 43.1517 54.755 41.6074 54.4711 40.079C54.3781 39.5921 53.9134 39.2668 53.4219 39.356C52.9266 39.4496 52.6059 39.9182 52.695 40.4097Z" fill="#F86E2D"/>
<path d="M50.3058 49.1902C49.2653 50.3846 48.0019 51.3051 46.5521 51.9281C46.0936 52.1255 45.8831 52.6503 46.0805 53.1087C46.1361 53.2368 46.2159 53.3461 46.3155 53.4328C46.5688 53.6535 46.9308 53.7221 47.2612 53.5803C48.9631 52.8507 50.4452 51.7705 51.6748 50.359L51.0159 49.7452L51.6945 50.3364C52.0217 49.9609 51.9668 49.4118 51.5913 49.0847C51.2158 48.7576 50.6329 48.8147 50.3058 49.1902Z" fill="#F86E2D"/>
<path d="M41.2306 47.5228C42.0527 47.4195 42.8076 47.0187 43.3554 46.3899C44.5772 44.9874 44.4342 42.8497 43.0273 41.624C42.3713 41.0525 42.3025 40.0536 42.8739 39.3976C43.4454 38.7416 44.4443 38.6728 45.1003 39.2443C45.7563 39.8158 45.8251 40.8147 45.2536 41.4707C44.9265 41.8462 44.9656 42.4133 45.341 42.7405C45.7165 43.0676 46.2837 43.0285 46.6108 42.653C47.6277 41.4858 47.6951 39.8098 46.8785 38.5733L47.7219 37.6051C48.049 37.2296 48.01 36.6624 47.6345 36.3353C47.259 36.0082 46.6918 36.0473 46.3647 36.4228L45.5213 37.3909C44.1889 36.7555 42.5375 37.0435 41.5167 38.2153C40.295 39.6177 40.4379 41.7555 41.8449 42.9812C42.5009 43.5527 42.5697 44.5516 41.9982 45.2076C41.742 45.5016 41.3891 45.6875 41.0054 45.7352C40.5585 45.7915 40.1112 45.6565 39.7719 45.3609C39.1159 44.7894 39.0516 43.7944 39.6231 43.1385C39.9502 42.763 39.9111 42.1958 39.5356 41.8687C39.1601 41.5416 38.593 41.5806 38.2659 41.9561C37.249 43.1233 37.1816 44.7993 37.9982 46.0359L37.1548 47.004C36.8277 47.3795 36.8667 47.9467 37.2422 48.2738C37.6177 48.6009 38.1849 48.5619 38.512 48.1864L39.3594 47.2137C39.9396 47.4884 40.5856 47.6055 41.2306 47.5228Z" fill="#F86E2D"/>
</g>
<defs>
<clipPath id="clip0_1_20051">
<rect width="60" height="60" fill="white" transform="translate(39.5101 -0.00146484) rotate(41.0607)"/>
</clipPath>
</defs>
</svg>
