<svg width="74" height="74" viewBox="0 0 74 74" fill="none" xmlns="http://www.w3.org/2000/svg">
<g clip-path="url(#clip0_1_20066)">
<path d="M72.9903 15.9586C72.9981 15.8893 73.004 15.8222 73.0001 15.7514C72.9965 15.6739 72.9837 15.6008 72.9674 15.5255C72.9588 15.4844 72.9622 15.4436 72.9495 15.4028C72.9412 15.3765 72.9222 15.3557 72.9111 15.33C72.8838 15.2614 72.847 15.1985 72.8079 15.1337C72.7689 15.0689 72.7289 15.0079 72.6798 14.9514C72.662 14.9308 72.6534 14.9058 72.6351 14.8878C72.605 14.8575 72.567 14.8427 72.5346 14.8159C72.4735 14.7644 72.4123 14.7183 72.3442 14.6785C72.2863 14.6467 72.2277 14.6227 72.1663 14.5994C72.0938 14.572 72.0229 14.549 71.9472 14.5343C71.8766 14.5208 71.8061 14.5181 71.7336 14.5176C71.688 14.517 71.6447 14.5022 71.5978 14.5067L11.1703 19.6714C10.6243 19.716 10.1645 20.1006 10.0221 20.6312C9.87963 21.1617 10.084 21.7246 10.5355 22.0396L34.0824 38.5021L38.8673 67.3323C38.9532 67.847 39.3374 68.2596 39.8401 68.3843C39.8617 68.3897 39.8819 68.3947 39.9038 68.3988C40.4384 68.5032 40.98 68.2653 41.2656 67.8025L72.821 16.4892C72.8434 16.4531 72.8496 16.4117 72.8673 16.373C72.9001 16.3059 72.9285 16.2404 72.9489 16.1688C72.969 16.0985 72.9819 16.0305 72.9903 15.9586ZM14.9798 21.9625L66.2293 17.5819L35.3322 36.1911L14.9798 21.9625ZM40.8694 63.4632L36.7111 38.4072L67.7887 19.6882L40.8694 63.4632Z" fill="#F86E2D"/>
<path d="M25.4124 43.6897C25.0402 43.0717 24.2399 42.8731 23.6219 43.2453L1.49503 56.5723C0.877059 56.9445 0.678433 57.7447 1.05064 58.3627C1.23626 58.6709 1.52961 58.8754 1.85376 58.9559C2.17791 59.0363 2.53286 58.9927 2.84106 58.8071L24.968 45.4801C25.5859 45.1079 25.7846 44.3077 25.4124 43.6897Z" fill="#F86E2D"/>
<path d="M26.4869 53.3659L15.4234 60.0293C14.8054 60.4016 14.6068 61.2018 14.979 61.8198C15.1646 62.128 15.458 62.3325 15.7821 62.413C16.1063 62.4934 16.4612 62.4498 16.7694 62.2642L27.8329 55.6007C28.4509 55.2285 28.6495 54.4282 28.2773 53.8103C27.9051 53.1923 27.1048 52.9937 26.4869 53.3659Z" fill="#F86E2D"/>
<path d="M5.31095 45.0275C5.6351 45.1079 5.99005 45.0643 6.29824 44.8787L17.3617 38.2152C17.9797 37.843 18.1783 37.0427 17.8061 36.4248C17.4339 35.8068 16.6336 35.6082 16.0157 35.9804L4.95222 42.6438C4.33424 43.0161 4.13562 43.8163 4.50782 44.4343C4.69345 44.7425 4.9868 44.947 5.31095 45.0275Z" fill="#F86E2D"/>
</g>
<defs>
<clipPath id="clip0_1_20066">
<rect width="60" height="60" fill="white" transform="translate(15.041 0.408447) rotate(13.9396)"/>
</clipPath>
</defs>
</svg>
