<svg width="85" height="85" viewBox="0 0 85 85" fill="none" xmlns="http://www.w3.org/2000/svg">
<g clip-path="url(#clip0_1_20094)">
<path d="M32.2939 47.1781L35.74 44.1645C36.6376 43.3796 36.7302 42.012 35.9465 41.1158L34.8999 39.919C34.1162 39.0229 32.7485 38.9323 31.8509 39.7173L28.4048 42.7308C27.5073 43.5157 27.4147 44.8832 28.1983 45.7794L29.245 46.9762C30.0286 47.8725 31.3964 47.9629 32.2939 47.1781ZM29.6097 44.5452C29.5073 44.4281 29.5199 44.2427 29.6371 44.1402L33.0832 41.1266C33.2005 41.0241 33.386 41.0363 33.4883 41.1533L34.535 42.3502C34.6373 42.4672 34.6247 42.6528 34.5075 42.7553L31.0614 45.7689C30.9442 45.8714 30.7587 45.8591 30.6563 45.742L29.6097 44.5452ZM35.5698 59.2505L32.1237 62.2641C31.2262 63.049 31.1335 64.4165 31.9173 65.3127L32.9639 66.5095C33.7476 67.4058 35.1153 67.4963 36.0128 66.7114L39.4589 63.6979C40.3564 62.913 40.449 61.5455 39.6653 60.6492L38.6187 59.4524C37.835 58.5562 36.4673 58.4657 35.5698 59.2505ZM38.2539 61.8835C38.3562 62.0006 38.3438 62.1861 38.2265 62.2886L34.7804 65.3022C34.6632 65.4047 34.4777 65.3923 34.3753 65.2753L33.3287 64.0784C33.2263 63.9614 33.2388 63.7759 33.3561 63.6734L36.8022 60.6598C36.9194 60.5573 37.1049 60.5696 37.2073 60.6867L38.2539 61.8835ZM29.9243 52.7947L26.4781 55.8083C25.5806 56.5931 25.488 57.9607 26.2718 58.8569L27.3184 60.0537C28.1021 60.9499 29.4698 61.0405 30.3673 60.2556L33.8134 57.242C34.7109 56.4572 34.8035 55.0896 34.0198 54.1934L32.9732 52.9966C32.1895 52.1004 30.8218 52.0098 29.9243 52.7947ZM32.6084 55.4277C32.7107 55.5448 32.6982 55.7302 32.581 55.8328L29.1349 58.8463C29.0176 58.9489 28.8322 58.9365 28.7298 58.8194L27.6832 57.6226C27.5808 57.5056 27.5933 57.3201 27.7105 57.2176L31.1567 54.204C31.2739 54.1015 31.4594 54.1138 31.5617 54.2309L32.6084 55.4277ZM46.1909 52.8306C45.4072 51.9344 44.0395 51.8439 43.1419 52.6288L39.6958 55.6424C38.7983 56.4272 38.7057 57.7948 39.4894 58.691L40.536 59.8878C41.3197 60.7841 42.6874 60.8746 43.5849 60.0897L47.031 57.0761C47.9286 56.2912 48.0213 54.9237 47.2375 54.0275L46.1909 52.8306ZM45.8261 55.2617C45.9284 55.3788 45.9159 55.5643 45.7986 55.6669L42.3525 58.6805C42.2353 58.783 42.0498 58.7706 41.9474 58.6536L40.9008 57.4567C40.7985 57.3397 40.8109 57.1542 40.9282 57.0517L44.3743 54.0381C44.4915 53.9356 44.6771 53.9479 44.7795 54.0649L45.8261 55.2617ZM24.2788 46.339L20.8327 49.3525C19.9352 50.1374 19.8426 51.5049 20.6262 52.4011L21.6728 53.5979C22.4566 54.4941 23.8243 54.5846 24.7218 53.7998L28.1679 50.7862C29.0654 50.0014 29.158 48.6338 28.3743 47.7376L27.3277 46.5408C26.544 45.6446 25.1763 45.5541 24.2788 46.339ZM26.9628 48.9719C27.0652 49.0889 27.0527 49.2744 26.9355 49.3769L23.4894 52.3905C23.3721 52.493 23.1866 52.4807 23.0843 52.3636L22.0377 51.1668C21.9353 51.0497 21.9479 50.8644 22.0651 50.7618L25.5112 47.7482C25.6285 47.6457 25.8139 47.658 25.9162 47.7751L26.9628 48.9719ZM37.9394 53.6339L41.3855 50.6203C42.2831 49.8354 42.3757 48.4679 41.592 47.5716L40.5454 46.3748C39.7617 45.4786 38.394 45.3881 37.4964 46.173L34.0503 49.1866C33.1528 49.9714 33.0601 51.339 33.8439 52.2352L34.8905 53.432C35.6741 54.3283 37.0419 54.4188 37.9394 53.6339ZM35.2552 51.001C35.1529 50.8839 35.1653 50.6985 35.2826 50.5959L38.7287 47.5824C38.8459 47.4798 39.0315 47.4921 39.1339 47.6092L40.1805 48.806C40.2828 48.9231 40.2703 49.1086 40.153 49.2111L36.7069 52.2247C36.5897 52.3272 36.4042 52.3149 36.3018 52.1978L35.2552 51.001ZM68.2979 29.6506C65.0346 28.5187 60.8379 27.6839 55.1831 27.0466C55.619 25.9277 55.4352 24.6104 54.5925 23.6468C53.4697 22.3628 51.5681 22.1536 50.1958 23.1045L50.419 19.8083C50.5454 17.9416 49.1294 16.3224 47.2624 16.1989C45.6824 16.0945 44.2152 17.1237 43.7737 18.6457C43.7406 18.7608 43.6783 18.8259 43.5646 18.8642C43.4514 18.9025 43.362 18.8886 43.266 18.8176C42.0451 17.9143 40.3508 17.9472 39.1617 18.8711L36.8112 16.1833C34.5403 13.5866 30.577 13.3242 27.9763 15.5985L5.01793 35.6753C2.41717 37.9496 2.14886 41.9124 4.4197 44.5092L30.0206 73.7846C32.2914 76.3813 36.2546 76.6437 38.8553 74.3694L54.7445 60.4745C54.9184 60.5388 55.0936 60.6011 55.2713 60.6592C60.7604 62.4575 67.0457 61.0169 71.7522 56.9009L72.2158 56.4954C76.9222 52.3798 79.1883 46.3421 78.1379 40.6627C77.1834 35.5025 73.5969 31.4886 68.2979 29.6506ZM53.181 24.8812C53.7082 25.484 53.6458 26.404 53.0421 26.9319L45.0089 33.9569C44.4051 34.4849 43.485 34.424 42.9578 33.8211C42.4306 33.2183 42.493 32.2984 43.0968 31.7704L51.13 24.7454C51.7338 24.2175 52.6539 24.2785 53.181 24.8812ZM42.15 20.3243C42.7373 20.7585 43.471 20.8732 44.1629 20.6388C44.8557 20.4049 45.3697 19.8675 45.5733 19.1651C45.7713 18.4832 46.4285 18.0215 47.1361 18.0683C47.5384 18.095 47.9075 18.2785 48.1758 18.5852C48.4441 18.892 48.5767 19.2824 48.5495 19.6848L48.2019 24.8192L43.5605 28.878L38.4254 28.5381C38.0229 28.5116 37.6538 28.328 37.3855 28.0212C37.1172 27.7144 36.9846 27.3241 37.0119 26.9218C37.0596 26.2144 37.6043 25.6244 38.3074 25.5191C39.0304 25.4108 39.6311 24.973 39.9558 24.3182C40.2804 23.6631 40.2646 22.9206 39.9123 22.2808C39.57 21.6589 39.7092 20.8685 40.2432 20.4014C40.7771 19.9342 41.579 19.9018 42.15 20.3243ZM35.5858 28.7139L16.1514 45.7089C16.0342 45.8114 15.8486 45.7991 15.7463 45.6821L12.5863 42.0686C12.484 41.9515 12.4966 41.7661 12.6139 41.6636L32.8984 23.925C33.0156 23.8225 33.2011 23.8347 33.3035 23.9518L35.2464 26.1736C35.1931 26.3758 35.1568 26.5841 35.1423 26.7981C35.0963 27.4756 35.2519 28.137 35.5858 28.7139ZM37.6229 72.9601C35.8005 74.5538 33.0233 74.3699 31.4321 72.5503L5.83114 43.2749C4.23989 41.4552 4.42789 38.6783 6.25032 37.0846L29.2087 17.0078C31.0312 15.4141 33.8084 15.598 35.3997 17.4176L38.0424 20.4397C37.738 21.3262 37.7981 22.3281 38.2706 23.1861C38.3281 23.2909 38.3302 23.3813 38.2771 23.4882C38.2243 23.5956 38.1509 23.6486 38.0325 23.6665C37.3616 23.767 36.7562 24.0668 36.2734 24.4995L34.715 22.7174C33.9313 21.8213 32.5637 21.7308 31.6661 22.5157L11.3815 40.2543C10.4839 41.0392 10.3912 42.4068 11.1749 43.3029L14.3348 46.9163C15.1185 47.8125 16.4862 47.903 17.3838 47.1181L36.9361 30.0199C37.3529 30.2417 37.8145 30.3753 38.2986 30.4075L41.5952 30.6256C41.0932 31.1757 40.8062 31.8608 40.7418 32.5653C40.2713 32.5878 39.8046 32.7617 39.423 33.0955L35.9769 36.109C35.0794 36.8939 34.9867 38.2614 35.7704 39.1576L36.817 40.3544C37.6007 41.2506 38.9684 41.3411 39.866 40.5562L43.312 37.5427C43.726 37.1807 43.9665 36.6945 44.031 36.1879C44.3014 36.1895 44.572 36.1582 44.837 36.094C44.8091 37.3922 44.8016 38.6163 44.8146 39.7731L41.6223 42.5648C40.7247 43.3497 40.6321 44.7173 41.4158 45.6135L42.4625 46.8104C43.1847 47.6362 44.4021 47.7761 45.2913 47.1789C45.3989 47.9746 45.5247 48.7267 45.6692 49.439C46.5958 54.0062 49.1699 57.6003 52.8742 59.6231L37.6229 72.9601ZM41.0605 34.5316L42.1072 35.7284C42.2095 35.8455 42.197 36.031 42.0797 36.1335L38.6337 39.147C38.5164 39.2495 38.3309 39.2373 38.2285 39.1202L37.1819 37.9234C37.0795 37.8063 37.0922 37.6209 37.2094 37.5183L40.6555 34.5048C40.7727 34.4023 40.9582 34.4145 41.0605 34.5316ZM45.046 44.9323L44.2792 45.6028C44.162 45.7054 43.9764 45.6931 43.874 45.576L42.8274 44.3792C42.7251 44.2621 42.7376 44.0766 42.8549 43.9741L44.8768 42.206C44.9159 43.1645 44.9723 44.0717 45.046 44.9323ZM76.2954 41.006C77.2258 46.0361 75.1934 51.4046 70.9837 55.0859C70.9063 55.1535 70.5969 55.4242 70.5195 55.4918C66.3102 59.1728 60.718 60.4715 55.8572 58.8789C51.4636 57.4395 48.4977 53.9538 47.5055 49.064C46.7999 45.5854 46.5561 41.0859 46.7411 34.9292L53.7746 28.7785C59.901 29.416 64.3279 30.2576 67.6812 31.4206C72.3952 33.0556 75.4545 36.4598 76.2954 41.006ZM66.1959 42.4618C66.9657 43.1525 67.3752 44.0402 67.3798 45.0285C67.3852 46.1533 66.8542 47.3831 65.9342 48.4251L66.5588 49.1394C66.8991 49.5285 66.859 50.1203 66.4693 50.4612C66.0796 50.802 65.4877 50.7628 65.1474 50.3737L64.5135 49.6488C62.7545 50.7674 60.6833 50.823 59.0968 49.72C58.6724 49.4248 58.568 48.8412 58.8638 48.4163C59.1601 47.9919 59.7436 47.8863 60.1682 48.1814C61.5067 49.1122 63.053 48.515 64.0264 47.684C64.0351 47.6757 64.0446 47.6679 64.0539 47.6602C64.0852 47.6328 64.1149 47.6067 64.1442 47.5795C64.9753 46.8171 65.5097 45.8204 65.5061 45.0401C65.504 44.5817 65.32 44.1947 64.9434 43.8569C64.0368 43.0436 62.8026 43.1965 60.9417 44.353C57.8379 46.282 55.9936 45.4499 54.993 44.412C53.6072 42.9747 53.5569 40.7998 54.8679 39.0001C54.9178 38.9316 54.9697 38.8638 55.0237 38.7967L54.3807 38.0614C54.0404 37.6723 54.0805 37.0805 54.4702 36.7396C54.8599 36.3988 55.4518 36.438 55.7921 36.8271L56.4298 37.5563C57.7334 36.7495 59.435 36.4497 61.166 37.2948C61.6307 37.5215 61.8229 38.0824 61.5952 38.5473C61.3681 39.0116 60.8066 39.2053 60.3417 38.9784C59.0591 38.3522 57.8148 38.7299 56.9503 39.4819C56.9264 39.5057 56.9009 39.5285 56.874 39.5499C56.6903 39.719 56.5251 39.9048 56.382 40.1013C55.7702 40.9411 55.4388 42.1727 56.3431 43.1107C56.6557 43.435 57.4861 44.2963 59.9543 42.7621C60.9151 42.1651 63.8396 40.3478 66.1959 42.4618Z" fill="#F86E2D"/>
</g>
<defs>
<clipPath id="clip0_1_20094">
<rect width="60" height="59.9081" fill="white" transform="translate(0.301422 39.7998) rotate(-41.1692)"/>
</clipPath>
</defs>
</svg>
